<svg id="Layer_1" data-name="Layer 1" xmlns="http://www.w3.org/2000/svg" width="712.49906" height="278.47571" viewBox="0 0 712.49906 278.47571"><defs><style>.cls-1{fill:#f2f2f2;}.cls-1,.cls-10,.cls-11,.cls-12,.cls-13,.cls-6,.cls-8,.cls-9{stroke:#231f20;}.cls-1,.cls-12,.cls-13,.cls-6,.cls-8,.cls-9{stroke-miterlimit:10;}.cls-1,.cls-10,.cls-11,.cls-13,.cls-8,.cls-9{stroke-width:1.02708px;}.cls-2{fill:#231f20;}.cls-11,.cls-13,.cls-3{fill:#99cfec;}.cls-10,.cls-11,.cls-13,.cls-3,.cls-4,.cls-7{opacity:0.7;}.cls-10,.cls-4{fill:#92ec9d;}.cls-5{opacity:0.2;}.cls-6,.cls-8,.cls-9{fill:none;}.cls-6{stroke-width:1.05px;}.cls-7{fill:#e61b23;}.cls-9{stroke-dasharray:4.3812 4.3812;}.cls-10,.cls-11{stroke-linejoin:round;}.cls-12{fill:#fff;stroke-width:0.7742px;}</style></defs><rect class="cls-1" x="242.44931" y="0.51668" width="227.09802" height="227.09802"/><circle class="cls-2" cx="430.53812" cy="209.69783" r="2.56769"/><circle class="cls-2" cx="281.45852" cy="209.69783" r="2.56769"/><circle class="cls-2" cx="430.53812" cy="16.03775" r="2.56769"/><circle class="cls-2" cx="281.45852" cy="16.03775" r="2.56769"/><polygon class="cls-3" points="355.998 145.144 430.538 16.038 281.459 16.038 355.998 145.144"/><polygon class="cls-4" points="355.998 80.591 281.458 209.697 430.538 209.697 355.998 80.591"/><g class="cls-5"><line class="cls-6" x1="353.70982" y1="39.74861" x2="355.99832" y2="80.59111"/><line class="cls-6" x1="421.05963" y1="74.88178" x2="430.53812" y2="16.03775"/><line class="cls-6" x1="353.70982" y1="39.74861" x2="421.05963" y2="74.88178"/><line class="cls-6" x1="355.99832" y1="80.59111" x2="421.05963" y2="74.88178"/><line class="cls-6" x1="402.56599" y1="145.14447" x2="421.05963" y2="74.88178"/><line class="cls-6" x1="449.89215" y1="145.14447" x2="402.56599" y2="145.14447"/><line class="cls-6" x1="421.05963" y1="74.88178" x2="449.89215" y2="145.14447"/><line class="cls-6" x1="469.54732" y1="0.51668" x2="430.53812" y2="16.03775"/><line class="cls-6" x1="469.54732" y1="60.89178" x2="430.53812" y2="16.03775"/><line class="cls-6" x1="421.05963" y1="74.88178" x2="469.54732" y2="60.89178"/><line class="cls-6" x1="449.89215" y1="145.14447" x2="469.54732" y2="60.89178"/><line class="cls-6" x1="402.56599" y1="145.14447" x2="469.54732" y2="201.94035"/><line class="cls-6" x1="449.89215" y1="145.14447" x2="469.54732" y2="154.04904"/><line class="cls-6" x1="469.54732" y1="201.94035" x2="449.89215" y2="145.14447"/><line class="cls-6" x1="430.53812" y1="209.69783" x2="469.54732" y2="201.94035"/><line class="cls-6" x1="469.54732" y1="227.61469" x2="430.53812" y2="209.69783"/><line class="cls-6" x1="355.99832" y1="215.89634" x2="355.99832" y2="227.61469"/><line class="cls-6" x1="430.53812" y1="209.69783" x2="355.99832" y2="227.61469"/><line class="cls-6" x1="281.45852" y1="209.69783" x2="355.99832" y2="227.61469"/><line class="cls-6" x1="242.44931" y1="227.61469" x2="281.45852" y2="209.69783"/><line class="cls-6" x1="355.99832" y1="145.14447" x2="358.28681" y2="185.98696"/><line class="cls-6" x1="373.12995" y1="162.2761" x2="355.99832" y2="145.14447"/><line class="cls-6" x1="370.76265" y1="121.43361" x2="355.99832" y2="145.14447"/><line class="cls-6" x1="341.23398" y1="104.30197" x2="355.99832" y2="80.59111"/><line class="cls-6" x1="370.76265" y1="121.43361" x2="341.23398" y2="104.30197"/><line class="cls-6" x1="338.86668" y1="63.45947" x2="355.99832" y2="80.59111"/><line class="cls-6" x1="373.12995" y1="162.2761" x2="402.56599" y2="145.14447"/><line class="cls-6" x1="370.76265" y1="121.43361" x2="402.56599" y2="145.14447"/><line class="cls-6" x1="373.12995" y1="162.2761" x2="430.53812" y2="209.69783"/><line class="cls-6" x1="358.28681" y1="185.98696" x2="355.99832" y2="215.89634"/><line class="cls-6" x1="430.53812" y1="209.69783" x2="358.28681" y2="185.98696"/><line class="cls-6" x1="281.45852" y1="209.69783" x2="355.99832" y2="145.14447"/><line class="cls-6" x1="309.43064" y1="80.59111" x2="271.52147" y2="130.10339"/><line class="cls-6" x1="271.52147" y1="130.10339" x2="281.45852" y2="209.69783"/><line class="cls-6" x1="271.52147" y1="130.10339" x2="355.99832" y2="145.14447"/><line class="cls-6" x1="271.52147" y1="130.10339" x2="242.44931" y2="227.61469"/><line class="cls-6" x1="271.52147" y1="130.10339" x2="242.44931" y2="93.94057"/><line class="cls-6" x1="242.44931" y1="93.94057" x2="309.43064" y2="80.59111"/><line class="cls-6" x1="281.45852" y1="16.03775" x2="242.44931" y2="93.94057"/><line class="cls-6" x1="281.45852" y1="16.03775" x2="242.44931" y2="0.51668"/><line class="cls-6" x1="355.99832" y1="9.83923" x2="304.26349" y2="0.51668"/><line class="cls-6" x1="304.26349" y1="0.51668" x2="281.45852" y2="16.03775"/><line class="cls-6" x1="355.99832" y1="9.83923" x2="405.13368" y2="0.51668"/><line class="cls-6" x1="405.13368" y1="0.51668" x2="430.53812" y2="16.03775"/><line class="cls-6" x1="309.43064" y1="80.59111" x2="338.86668" y2="63.45947"/><line class="cls-6" x1="353.70982" y1="39.74861" x2="281.45852" y2="16.03775"/><line class="cls-6" x1="355.99832" y1="9.83923" x2="353.70982" y2="39.74861"/><line class="cls-6" x1="281.45852" y1="16.03775" x2="338.86668" y2="63.45947"/><line class="cls-6" x1="309.43064" y1="80.59111" x2="341.23398" y2="104.30197"/><line class="cls-6" x1="355.99832" y1="9.83923" x2="281.45852" y2="16.03775"/><line class="cls-6" x1="355.99832" y1="9.83923" x2="430.53812" y2="16.03775"/><line class="cls-6" x1="353.70982" y1="39.74861" x2="430.53812" y2="16.03775"/><line class="cls-6" x1="353.70982" y1="39.74861" x2="338.86668" y2="63.45947"/><line class="cls-6" x1="341.23398" y1="104.30197" x2="338.86668" y2="63.45947"/><line class="cls-6" x1="341.23398" y1="104.30197" x2="355.99832" y2="145.14447"/><line class="cls-6" x1="309.43064" y1="80.59111" x2="355.99832" y2="145.14447"/><line class="cls-6" x1="309.43064" y1="80.59111" x2="281.45852" y2="16.03775"/><line class="cls-6" x1="281.51206" y1="209.69783" x2="358.28681" y2="185.98696"/><line class="cls-6" x1="373.12995" y1="162.2761" x2="358.28681" y2="185.98696"/><line class="cls-6" x1="373.12995" y1="162.2761" x2="370.76265" y2="121.43361"/><line class="cls-6" x1="355.99832" y1="80.59111" x2="370.76265" y2="121.43361"/><line class="cls-6" x1="355.99832" y1="80.59111" x2="402.56599" y2="145.14447"/><line class="cls-6" x1="430.53812" y1="209.69783" x2="402.56599" y2="145.14447"/><line class="cls-6" x1="430.53812" y1="209.69783" x2="355.99832" y2="215.89634"/><line class="cls-6" x1="281.45852" y1="209.69783" x2="355.99832" y2="215.89634"/></g><circle class="cls-2" cx="355.99832" cy="80.59111" r="2.56769"/><circle class="cls-2" cx="355.99832" cy="145.14447" r="2.56769"/><polygon class="cls-7" points="355.998 80.591 337.363 112.868 355.998 145.144 374.633 112.868 355.998 80.591"/><polyline class="cls-8" points="357.123 82.54 355.998 80.591 354.873 82.54"/><polyline class="cls-9" points="352.683 86.334 318.728 145.144 283.679 205.852"/><polyline class="cls-8" points="282.584 207.749 281.459 209.698 283.709 209.698"/><polyline class="cls-9" points="288.09 209.698 355.998 209.698 426.097 209.698"/><polyline class="cls-8" points="428.288 209.698 430.538 209.698 429.413 207.749"/><polyline class="cls-9" points="427.222 203.955 393.268 145.144 358.219 84.437"/><polyline class="cls-8" points="354.873 143.196 355.998 145.144 357.123 143.196"/><polyline class="cls-9" points="359.314 139.402 393.268 80.591 428.318 19.883"/><polyline class="cls-8" points="429.413 17.986 430.538 16.038 428.288 16.038"/><polyline class="cls-9" points="423.907 16.038 355.998 16.038 285.899 16.038"/><polyline class="cls-8" points="283.709 16.038 281.459 16.038 282.584 17.986"/><polyline class="cls-9" points="284.774 21.781 318.728 80.591 353.778 141.299"/><path d="M257.07256,253.06459a20.655,20.655,0,0,0,.168,2.918,47.14058,47.14058,0,0,0,5.92188-.46093l.041.084c-.02051.168-.041.52441-.041.73437s.0205.62989.041.92383l-.041.0625a11.46032,11.46032,0,0,0-1.25977-.0625h-5.73242a7.44908,7.44908,0,0,0-1.0918.0625l-.02148-.0625a30.89,30.89,0,0,0,.21093-4.19922v-5.14453a31.46657,31.46657,0,0,0-.21093-4.19922l.043-.0625a9.14615,9.14615,0,0,0,1.07031.0625,9.515,9.515,0,0,0,1.0918-.0625l.02148.0625a30.70607,30.70607,0,0,0-.21094,4.19922Z" transform="translate(-3.79198 -8.96389)"/><path d="M270.303,256.256a3.77169,3.77169,0,0,1-2.85547,1.21777c-1.55371,0-2.625-.71386-2.625-2.26757,0-1.42774,1.34375-2.56153,3.48633-3.04395l1.95215-.44141a.25544.25544,0,0,0,.14746-.252c0-2.373-1.25977-2.47754-2.01563-2.47754-1.00781,0-1.72265.83985-2.31054,1.78418l-.27246-.02051-.35645-1.40722.0625-.084a4.57,4.57,0,0,1,3.08594-1.21679c1.5957,0,3.46484.5664,3.46484,3.40039,0,.23144-.05859,2.5625-.05859,3.17089,0,.93458.13672,1.44239.35059,1.6377a1.02964,1.02964,0,0,0,.61523.15723,1.68679,1.68679,0,0,0,.56641-.10938l.15527.51856a2.22136,2.22136,0,0,1-1.6709.65136A1.60411,1.60411,0,0,1,270.389,256.256Zm-1.70117-3.2334c-1.63672.44043-2.07813,1.15528-2.07813,2.09961a1.41958,1.41958,0,0,0,1.55372,1.28027,3.54131,3.54131,0,0,0,1.93164-.81835.62851.62851,0,0,0,.29394-.5459l.084-2.499Z" transform="translate(-3.79198 -8.96389)"/><path d="M278.68194,254.40834a3.8848,3.8848,0,0,1-1.55371-.29394,1.40368,1.40368,0,0,0-.56739,1.17578c0,.90332.63086.9873,1.21875.9873.1045,0,.31446-.02148.6084-.043.4834-.0625,1.32324-.1045,1.67969-.1045a4.90366,4.90366,0,0,1,2.96.69239,2.53264,2.53264,0,0,1,.88281,2.0791c0,1.96777-1.95117,3.33887-5.22851,3.33887-2.22559,0-4.03125-.72071-4.03125-2.37305a2.96973,2.96973,0,0,1,.48242-1.38574,8.16757,8.16757,0,0,1,1.7832-1.06446,1.77806,1.77806,0,0,1-1.63574-1.81152c0-.71484.73535-1.32324,1.34375-1.74316a2.82678,2.82678,0,0,1-1.49121-2.624,3.37376,3.37376,0,0,1,3.57031-3.1914,4.45915,4.45915,0,0,1,1.28613.17968c1.56641-.08105,2.30762-.30371,3.31153-.39062l.0625.06347a2.4153,2.4153,0,0,0,0,1.0918l-.0625.06348c-.86524-.08887-1.55957-.168-2.19238-.21875a2.67269,2.67269,0,0,1,1.05859,2.44336A3.20956,3.20956,0,0,1,278.68194,254.40834Zm.168,6.92871c1.80566,0,3.52734-.67187,3.52734-1.95214a1.68772,1.68772,0,0,0-.81836-1.51172,4.21955,4.21955,0,0,0-2.22656-.35742c-.28906,0-1.249.0625-1.86817.0625a2.45882,2.45882,0,0,0-1.36425,1.86914C276.09991,260.87514,277.48467,261.337,278.84991,261.337Zm-.23047-12.49316c-1.21875,0-1.84766.90332-1.84766,2.28906,0,1.44922.46094,2.43555,1.97266,2.43555,1.25976,0,1.78515-.99316,1.78515-2.26758C280.52959,249.81069,279.9837,248.84389,278.61944,248.84389Z" transform="translate(-3.79198 -8.96389)"/><path d="M288.02666,250.29311c.92383-1.5957,1.53223-2.24609,2.667-2.24609a1.86235,1.86235,0,0,1,.75586.14648l.084.084-.41992,1.55372-.168.042a1.56367,1.56367,0,0,0-1.0918-.29395,1.504,1.504,0,0,0-1.17578.73535,3.38228,3.38228,0,0,0-.71484,2.07813v1.0918a26.84125,26.84125,0,0,0,.18945,3.77929l-.042.0625a7.82168,7.82168,0,0,0-1.97363,0l-.042-.0625a25.50484,25.50484,0,0,0,.18848-3.77929v-1.1543a30.715,30.715,0,0,0-.18848-4.07422l.042-.0625a6.846,6.846,0,0,0,1.70117-.0625c.09863,0,.125.04785.125.209v1.91114Z" transform="translate(-3.79198 -8.96389)"/><path d="M298.33721,256.256a3.76894,3.76894,0,0,1-2.85547,1.21777c-1.55371,0-2.624-.71386-2.624-2.26757,0-1.42774,1.34375-2.56153,3.48437-3.04395l1.95313-.44141a.25636.25636,0,0,0,.14648-.252c0-2.373-1.25976-2.47754-2.01562-2.47754-1.00781,0-1.72071.83985-2.3086,1.78418l-.27343-.02051-.35743-1.40722.06348-.084A4.57076,4.57076,0,0,1,296.637,248.047c1.5957,0,3.46386.5664,3.46386,3.40039,0,.23144-.05859,2.5625-.05859,3.17089,0,.93458.13672,1.44239.35058,1.6377a1.02969,1.02969,0,0,0,.61524.15723,1.68679,1.68679,0,0,0,.56641-.10938l.15527.51856a2.22136,2.22136,0,0,1-1.6709.65136,1.60411,1.60411,0,0,1-1.63574-1.21777Zm-1.70019-3.2334c-1.63868.44043-2.07911,1.15528-2.07911,2.09961a1.419,1.419,0,0,0,1.55371,1.28027,3.54134,3.54134,0,0,0,1.93165-.81835.62851.62851,0,0,0,.29394-.5459l.084-2.499Z" transform="translate(-3.79198 -8.96389)"/><path d="M311.85967,257.26381l-.041.0625a7.82942,7.82942,0,0,0-1.97461,0l-.041-.0625a27.52085,27.52085,0,0,0,.18848-3.77929V251.4269c0-1.7002-.44043-2.12012-1.51172-2.12012a4.3573,4.3573,0,0,0-3.04395,1.7207v2.457a25.32451,25.32451,0,0,0,.18848,3.77929l-.042.0625a7.82168,7.82168,0,0,0-1.97363,0l-.042-.0625a24.99824,24.99824,0,0,0,.18946-3.77929v-1.1543a30.8559,30.8559,0,0,0-.18946-4.07422l.042-.0625a6.83646,6.83646,0,0,0,1.70019-.0625c.09961,0,.12207.04785.12695.209v1.53321l.041.0625a4.87666,4.87666,0,0,1,3.63281-1.88867c1.88965,0,2.60352,1.13281,2.60352,3.3164,0,.67188-.042,1.44922-.042,2.1211A25.99946,25.99946,0,0,0,311.85967,257.26381Z" transform="translate(-3.79198 -8.96389)"/><path d="M318.03448,254.40834a3.88858,3.88858,0,0,1-1.55371-.29394,1.40249,1.40249,0,0,0-.56641,1.17578c0,.90332.62891.9873,1.2168.9873.10546,0,.31543-.02148.60937-.043.48242-.0625,1.32227-.1045,1.67969-.1045a4.9096,4.9096,0,0,1,2.96094.69239,2.53139,2.53139,0,0,1,.88086,2.0791c0,1.96777-1.9502,3.33887-5.22754,3.33887-2.22559,0-4.03125-.72071-4.03125-2.37305a2.96089,2.96089,0,0,1,.48339-1.38574,8.139,8.139,0,0,1,1.78223-1.06446,1.77806,1.77806,0,0,1-1.63574-1.81152c0-.71484.73437-1.32324,1.34375-1.74316a2.82633,2.82633,0,0,1-1.49024-2.624,3.37261,3.37261,0,0,1,3.56836-3.1914,4.46111,4.46111,0,0,1,1.28711.17968c1.56641-.08105,2.30762-.30371,3.31153-.39062l.06347.06347a2.37935,2.37935,0,0,0,0,1.0918l-.06347.06348c-.86524-.08887-1.55957-.168-2.19239-.21875a2.67051,2.67051,0,0,1,1.0586,2.44336A3.20956,3.20956,0,0,1,318.03448,254.40834Zm.168,6.92871c1.80566,0,3.52734-.67187,3.52734-1.95214a1.68667,1.68667,0,0,0-.81934-1.51172,4.21,4.21,0,0,0-2.22461-.35742c-.29,0-1.25.0625-1.86914.0625a2.46243,2.46243,0,0,0-1.36523,1.86914C315.45147,260.87514,316.83819,261.337,318.20245,261.337Zm-.23145-12.49316c-1.2168,0-1.84766.90332-1.84766,2.28906,0,1.44922.46289,2.43555,1.97461,2.43555,1.25977,0,1.78418-.99316,1.78418-2.26758C319.88213,249.81069,319.33623,248.84389,317.971,248.84389Z" transform="translate(-3.79198 -8.96389)"/><path d="M326.56084,243.65834a1.07081,1.07081,0,1,1-1.07031,1.07032A1.10379,1.10379,0,0,1,326.56084,243.65834ZM325.512,248.256l.041-.0625a13.173,13.173,0,0,0,1.82715-.02148c.16406,0,.18848.02148.18848.21093a28.80611,28.80611,0,0,0-.18848,3.61133v1.49024a27.8876,27.8876,0,0,0,.18848,3.77929l-.041.0625a7.82942,7.82942,0,0,0-1.97461,0l-.041-.0625a27.55577,27.55577,0,0,0,.18847-3.77929v-1.1543A33.55168,33.55168,0,0,0,325.512,248.256Z" transform="translate(-3.79198 -8.96389)"/><path d="M335.69561,256.256a3.77169,3.77169,0,0,1-2.85547,1.21777c-1.55371,0-2.625-.71386-2.625-2.26757,0-1.42774,1.34375-2.56153,3.48633-3.04395l1.95215-.44141a.25546.25546,0,0,0,.14746-.252c0-2.373-1.25977-2.47754-2.01563-2.47754-1.00781,0-1.72265.83985-2.31054,1.78418l-.27246-.02051-.35645-1.40722.0625-.084a4.57,4.57,0,0,1,3.08594-1.21679c1.5957,0,3.46484.5664,3.46484,3.40039,0,.23144-.05859,2.5625-.05859,3.17089,0,.93458.13672,1.44239.35058,1.6377a1.02969,1.02969,0,0,0,.61524.15723,1.6867,1.6867,0,0,0,.5664-.10938l.15528.51856a2.22136,2.22136,0,0,1-1.6709.65136,1.6041,1.6041,0,0,1-1.63574-1.21777Zm-1.70117-3.2334c-1.63672.44043-2.07813,1.15528-2.07813,2.09961a1.41958,1.41958,0,0,0,1.55371,1.28027,3.54128,3.54128,0,0,0,1.93164-.81835.6285.6285,0,0,0,.29395-.5459l.084-2.499Z" transform="translate(-3.79198 -8.96389)"/><path d="M349.21905,257.26381l-.043.0625a7.814,7.814,0,0,0-1.97266,0l-.043-.0625a27.34883,27.34883,0,0,0,.18946-3.77929V251.4269c0-1.7002-.44141-2.12012-1.51172-2.12012a4.36064,4.36064,0,0,0-3.04492,1.7207v2.457a25.31178,25.31178,0,0,0,.18945,3.77929l-.042.0625a7.82176,7.82176,0,0,0-1.97364,0l-.042-.0625a25.01222,25.01222,0,0,0,.18848-3.77929v-1.1543a30.715,30.715,0,0,0-.18848-4.07422l.042-.0625a6.84609,6.84609,0,0,0,1.70118-.0625c.09863,0,.12109.04785.125.209v1.53321l.043.0625a4.87508,4.87508,0,0,1,3.63184-1.88867c1.88965,0,2.60352,1.13281,2.60352,3.3164,0,.67188-.042,1.44922-.042,2.1211A25.84636,25.84636,0,0,0,349.21905,257.26381Z" transform="translate(-3.79198 -8.96389)"/><path d="M357.305,255.12221a3.22774,3.22774,0,0,0,2.47657,1.51172,1.72949,1.72949,0,0,0,1.93164-1.74316c0-1.02832-.90235-1.36426-2.12012-1.7002-1.26562-.34863-2.51953-.90332-2.51953-2.583,0-1.74218,1.61621-2.56054,3.1709-2.56054a6.91493,6.91493,0,0,1,2.834.6289l.042.06348-.41992,1.55371-.29394.02148a3.07226,3.07226,0,0,0-2.2461-1.42773c-.90332,0-1.5957.46094-1.5957,1.32227,0,1.0498,1.1582,1.44628,1.95215,1.63769,1.49121.35645,2.85547,1.02832,2.85547,2.751,0,1.15429-.67188,2.876-3.56934,2.876a10.02075,10.02075,0,0,1-3.16992-.56738l.35644-1.76367Z" transform="translate(-3.79198 -8.96389)"/><path d="M366.33428,245.5685l.043-.0625a5.03267,5.03267,0,0,0,1.46875-.52539c.13281,0,.18945.05762.18945.21094A29.14317,29.14317,0,0,0,367.93,248.256h.98731c.4834,0,1.0918-.02637,1.46973-.041l.10546.14649a3.87352,3.87352,0,0,0-.252.86133c-.2793-.02735-1.00781-.043-1.51172-.043H367.93v2.64648c0,1.25977-.0625,2.16211-.0625,2.792,0,1.13575.19532,1.64161.69336,1.72168a3.1523,3.1523,0,0,0,1.65235-.1621l.25781.51953a4.12778,4.12778,0,0,1-2.43555.77636,1.82222,1.82222,0,0,1-1.84765-2.01562c0-.62988.0625-2.1416.0625-3.40137v-2.87695c-.47852.00293-1.12891.01562-1.49024.043l-.10547-.14746a4.7231,4.7231,0,0,0,.46289-.86036,11.3205,11.3205,0,0,0,1.13282.041C366.2503,247.0392,366.29327,246.298,366.33428,245.5685Z" transform="translate(-3.79198 -8.96389)"/><path d="M374.96514,250.29311c.92383-1.5957,1.5332-2.24609,2.666-2.24609a1.85292,1.85292,0,0,1,.75586.14648l.084.084-.41992,1.55372-.168.042a1.56226,1.56226,0,0,0-1.0918-.29395,1.5069,1.5069,0,0,0-1.17578.73535,3.38661,3.38661,0,0,0-.71289,2.07813v1.0918a26.85563,26.85563,0,0,0,.18848,3.77929l-.042.0625a7.82168,7.82168,0,0,0-1.97363,0l-.042-.0625a25.49166,25.49166,0,0,0,.18945-3.77929v-1.1543a30.8579,30.8579,0,0,0-.18945-4.07422l.042-.0625a6.83654,6.83654,0,0,0,1.7002-.0625c.09961,0,.127.04785.127.209v1.91114Z" transform="translate(-3.79198 -8.96389)"/><path d="M385.27569,256.256a3.77169,3.77169,0,0,1-2.85547,1.21777c-1.55371,0-2.625-.71386-2.625-2.26757,0-1.42774,1.34375-2.56153,3.48633-3.04395l1.95215-.44141a.25546.25546,0,0,0,.14746-.252c0-2.373-1.25977-2.47754-2.01563-2.47754-1.00781,0-1.72266.83985-2.31055,1.78418l-.27246-.02051-.35644-1.40722.0625-.084a4.57,4.57,0,0,1,3.08594-1.21679c1.5957,0,3.46484.5664,3.46484,3.40039,0,.23144-.05859,2.5625-.05859,3.17089,0,.93458.13671,1.44239.35058,1.6377a1.02969,1.02969,0,0,0,.61524.15723,1.6867,1.6867,0,0,0,.5664-.10938l.15528.51856a2.22138,2.22138,0,0,1-1.6709.65136,1.60411,1.60411,0,0,1-1.63575-1.21777Zm-1.70117-3.2334c-1.63672.44043-2.07813,1.15528-2.07813,2.09961a1.41958,1.41958,0,0,0,1.55371,1.28027,3.54131,3.54131,0,0,0,1.93164-.81835.6285.6285,0,0,0,.29395-.5459l.084-2.499Z" transform="translate(-3.79198 -8.96389)"/><path d="M391.70147,243.65834a1.07081,1.07081,0,1,1-1.07031,1.07032A1.1038,1.1038,0,0,1,391.70147,243.65834Zm-1.04883,4.59766.041-.0625a13.17281,13.17281,0,0,0,1.82714-.02148c.16407,0,.18848.02148.18848.21093a28.808,28.808,0,0,0-.18848,3.61133v1.49024a27.8876,27.8876,0,0,0,.18848,3.77929l-.041.0625a7.82942,7.82942,0,0,0-1.97461,0l-.041-.0625a27.5556,27.5556,0,0,0,.18848-3.77929v-1.1543A33.5493,33.5493,0,0,0,390.65264,248.256Z" transform="translate(-3.79198 -8.96389)"/><path d="M399.11455,254.40834a3.88865,3.88865,0,0,1-1.55371-.29394,1.40251,1.40251,0,0,0-.5664,1.17578c0,.90332.6289.9873,1.21679.9873.10547,0,.31543-.02148.60938-.043.48242-.0625,1.32226-.1045,1.67969-.1045a4.90955,4.90955,0,0,1,2.96093.69239,2.53139,2.53139,0,0,1,.88086,2.0791c0,1.96777-1.95019,3.33887-5.22754,3.33887-2.22558,0-4.03125-.72071-4.03125-2.37305a2.96091,2.96091,0,0,1,.4834-1.38574,8.139,8.139,0,0,1,1.78223-1.06446,1.77805,1.77805,0,0,1-1.63574-1.81152c0-.71484.73437-1.32324,1.34375-1.74316a2.82633,2.82633,0,0,1-1.49024-2.624,3.37261,3.37261,0,0,1,3.56836-3.1914,4.46111,4.46111,0,0,1,1.28711.17968c1.56641-.08105,2.30762-.30371,3.31153-.39062l.06347.06347a2.37935,2.37935,0,0,0,0,1.0918l-.06347.06348c-.86524-.08887-1.55958-.168-2.19239-.21875a2.67051,2.67051,0,0,1,1.0586,2.44336A3.20956,3.20956,0,0,1,399.11455,254.40834Zm.168,6.92871c1.80567,0,3.52735-.67187,3.52735-1.95214a1.68667,1.68667,0,0,0-.81934-1.51172,4.21,4.21,0,0,0-2.22461-.35742c-.29,0-1.25.0625-1.86914.0625a2.46243,2.46243,0,0,0-1.36523,1.86914C396.53155,260.87514,397.91827,261.337,399.28252,261.337Zm-.23144-12.49316c-1.2168,0-1.84766.90332-1.84766,2.28906,0,1.44922.46289,2.43555,1.97461,2.43555,1.25977,0,1.78418-.99316,1.78418-2.26758C400.96221,249.81069,400.41631,248.84389,399.05108,248.84389Z" transform="translate(-3.79198 -8.96389)"/><path d="M408.50127,249.93569a4.87649,4.87649,0,0,1,3.63184-1.88867c1.89062,0,2.60351,1.13281,2.60351,3.3164,0,.67188-.041,1.44922-.041,2.1211a25.35377,25.35377,0,0,0,.18848,3.77929l-.042.0625a7.82168,7.82168,0,0,0-1.97363,0l-.042-.0625a24.96938,24.96938,0,0,0,.18945-3.77929V251.4269c0-1.7002-.4414-2.12012-1.51172-2.12012a4.37652,4.37652,0,0,0-3.04492,1.7207v2.457a26.728,26.728,0,0,0,.18945,3.77929l-.043.0625a7.814,7.814,0,0,0-1.97266,0l-.043-.0625a25.92435,25.92435,0,0,0,.18945-3.77929V247.1642a28.0696,28.0696,0,0,0-.18945-4.07226l.043-.06348a5.41676,5.41676,0,0,0,1.82617-.41992c.13184,0,.18945.06348.18945.21-.10156,1.291-.18945,2.37305-.18945,3.92578v3.12891Z" transform="translate(-3.79198 -8.96389)"/><path d="M418.49834,245.5685l.041-.0625a5.04575,5.04575,0,0,0,1.4707-.52539c.13184,0,.18848.05762.18848.21094a29.17025,29.17025,0,0,0-.10449,3.06445h.98632c.48243,0,1.0918-.02637,1.46973-.041l.10449.14649a4.03565,4.03565,0,0,0-.25195.86133c-.27832-.02735-1.00781-.043-1.51172-.043h-.79687v2.64648c0,1.25977-.06348,2.16211-.06348,2.792,0,1.13575.19531,1.64161.69238,1.72168a3.15583,3.15583,0,0,0,1.65332-.1621l.25782.51953a4.1278,4.1278,0,0,1-2.43555.77636,1.82223,1.82223,0,0,1-1.84766-2.01562c0-.62988.06348-2.1416.06348-3.40137v-2.87695c-.47949.00293-1.12988.01562-1.49121.043l-.10449-.14746a4.714,4.714,0,0,0,.46093-.86036c.26075.03321.70411.03907,1.13477.041C418.41436,247.0392,418.45537,246.298,418.49834,245.5685Z" transform="translate(-3.79198 -8.96389)"/><path d="M432.20928,255.60561a4.56752,4.56752,0,0,1-3.65332,1.86816,4.27,4.27,0,0,1-3.33887-1.38574,4.97893,4.97893,0,0,1-.94433-3.21289c0-3.08594,2.1416-4.82812,4.30371-4.82812,2.77148,0,3.63281,2.2041,3.63281,3.96777a.33627.33627,0,0,1-.37793.35644h-5.71094a5.09286,5.09286,0,0,0,.50391,2.667,2.66284,2.66284,0,0,0,2.28809,1.19629,3.73665,3.73665,0,0,0,2.87695-1.1543Zm-2.16211-4.07422a.25621.25621,0,0,0,.293-.293c0-1.57519-.93359-2.35156-1.76367-2.35156-.66113,0-2.03613.46094-2.39258,2.64453Z" transform="translate(-3.79198 -8.96389)"/><path d="M442.91827,257.26381l-.041.0625a7.82942,7.82942,0,0,0-1.97461,0l-.041-.0625a27.51926,27.51926,0,0,0,.18848-3.77929V251.4269c0-1.7002-.44043-2.12012-1.51172-2.12012a4.35727,4.35727,0,0,0-3.04394,1.7207v2.457a25.326,25.326,0,0,0,.18847,3.77929l-.042.0625a7.82168,7.82168,0,0,0-1.97363,0l-.042-.0625a24.99839,24.99839,0,0,0,.18945-3.77929v-1.1543a30.8579,30.8579,0,0,0-.18945-4.07422l.042-.0625a6.83646,6.83646,0,0,0,1.70019-.0625c.09961,0,.12207.04785.127.209v1.53321l.041.0625a4.87666,4.87666,0,0,1,3.63282-1.88867c1.88964,0,2.60351,1.13281,2.60351,3.3164,0,.67188-.042,1.44922-.042,2.1211A25.9979,25.9979,0,0,0,442.91827,257.26381Z" transform="translate(-3.79198 -8.96389)"/><path d="M447.14092,243.65834a1.07081,1.07081,0,1,1-1.07031,1.07032A1.1038,1.1038,0,0,1,447.14092,243.65834Zm-1.04883,4.59766.041-.0625a13.173,13.173,0,0,0,1.82715-.02148c.16406,0,.18847.02148.18847.21093a28.80815,28.80815,0,0,0-.18847,3.61133v1.49024a27.88776,27.88776,0,0,0,.18847,3.77929l-.041.0625a7.82942,7.82942,0,0,0-1.97461,0l-.041-.0625a27.5556,27.5556,0,0,0,.18848-3.77929v-1.1543A33.5493,33.5493,0,0,0,446.09209,248.256Z" transform="translate(-3.79198 -8.96389)"/><path d="M459.69756,257.26381l-.043.0625a7.81395,7.81395,0,0,0-1.97265,0l-.043-.0625a27.349,27.349,0,0,0,.18945-3.77929V251.4269c0-1.7002-.4414-2.12012-1.51172-2.12012a4.36066,4.36066,0,0,0-3.04492,1.7207v2.457a25.31312,25.31312,0,0,0,.18945,3.77929l-.042.0625a7.82168,7.82168,0,0,0-1.97363,0l-.042-.0625a25.01236,25.01236,0,0,0,.18847-3.77929v-1.1543a30.71528,30.71528,0,0,0-.18847-4.07422l.042-.0625a6.846,6.846,0,0,0,1.70117-.0625c.09863,0,.12109.04785.125.209v1.53321l.043.0625a4.87507,4.87507,0,0,1,3.63184-1.88867c1.88964,0,2.60351,1.13281,2.60351,3.3164,0,.67188-.042,1.44922-.042,2.1211A25.8479,25.8479,0,0,0,459.69756,257.26381Z" transform="translate(-3.79198 -8.96389)"/><path d="M465.87237,254.40834a3.88858,3.88858,0,0,1-1.55371-.29394,1.40249,1.40249,0,0,0-.56641,1.17578c0,.90332.62891.9873,1.2168.9873.10547,0,.31543-.02148.60937-.043.48242-.0625,1.32227-.1045,1.67969-.1045a4.9096,4.9096,0,0,1,2.96094.69239,2.53139,2.53139,0,0,1,.88086,2.0791c0,1.96777-1.9502,3.33887-5.22754,3.33887-2.22559,0-4.03125-.72071-4.03125-2.37305a2.9608,2.9608,0,0,1,.4834-1.38574,8.13874,8.13874,0,0,1,1.78222-1.06446,1.77806,1.77806,0,0,1-1.63574-1.81152c0-.71484.73437-1.32324,1.34375-1.74316a2.82632,2.82632,0,0,1-1.49023-2.624,3.3726,3.3726,0,0,1,3.56835-3.1914,4.46111,4.46111,0,0,1,1.28711.17968c1.56641-.08105,2.30762-.30371,3.31153-.39062l.06347.06347a2.37935,2.37935,0,0,0,0,1.0918l-.06347.06348c-.86524-.08887-1.55957-.168-2.19239-.21875a2.67051,2.67051,0,0,1,1.0586,2.44336A3.20956,3.20956,0,0,1,465.87237,254.40834Zm.168,6.92871c1.80566,0,3.52734-.67187,3.52734-1.95214a1.68667,1.68667,0,0,0-.81934-1.51172,4.21,4.21,0,0,0-2.22461-.35742c-.29,0-1.25.0625-1.86914.0625a2.46243,2.46243,0,0,0-1.36523,1.86914C463.28936,260.87514,464.67608,261.337,466.04034,261.337Zm-.23145-12.49316c-1.2168,0-1.84766.90332-1.84766,2.28906,0,1.44922.46289,2.43555,1.97461,2.43555,1.25977,0,1.78418-.99316,1.78418-2.26758C467.72,249.81069,467.17412,248.84389,465.80889,248.84389Z" transform="translate(-3.79198 -8.96389)"/><path d="M256.82159,267.61928l.48339.37891a13.24208,13.24208,0,0,0-3.1914,9.1748,13.39071,13.39071,0,0,0,3.1914,9.21778l-.48339.35644a12.50032,12.50032,0,0,1,0-19.12793Z" transform="translate(-3.79198 -8.96389)"/><path d="M261.31573,275.4933c.92382-1.5957,1.53222-2.24707,2.667-2.24707a1.87957,1.87957,0,0,1,.75586.14747l.084.084-.41992,1.55371-.168.042a1.5637,1.5637,0,0,0-1.0918-.29394,1.50523,1.50523,0,0,0-1.17578.73437,3.38722,3.38722,0,0,0-.71484,2.0791v1.0918a26.83476,26.83476,0,0,0,.18945,3.7793l-.042.06347a7.7031,7.7031,0,0,0-1.97363,0l-.042-.06347a25.49889,25.49889,0,0,0,.18847-3.7793v-1.15527a30.68315,30.68315,0,0,0-.18847-4.07227l.042-.06347a6.79971,6.79971,0,0,0,1.70117-.06348c.09863,0,.125.04883.125.21094v1.91015Z" transform="translate(-3.79198 -8.96389)"/><path d="M273.68389,280.80483a4.56838,4.56838,0,0,1-3.65332,1.86914,4.27,4.27,0,0,1-3.33887-1.38574,4.97792,4.97792,0,0,1-.94433-3.21192c0-3.08691,2.1416-4.83008,4.30371-4.83008,2.77148,0,3.63281,2.20508,3.63281,3.96875a.33745.33745,0,0,1-.37793.35743H267.595a5.09109,5.09109,0,0,0,.50391,2.666,2.66394,2.66394,0,0,0,2.28809,1.19727,3.73737,3.73737,0,0,0,2.87695-1.15528Zm-2.16211-4.07227a.25719.25719,0,0,0,.293-.29492c0-1.57422-.93359-2.35156-1.76367-2.35156-.66113,0-2.03613.46289-2.39258,2.64648Z" transform="translate(-3.79198 -8.96389)"/><path d="M279.24932,279.60854a3.90571,3.90571,0,0,1-1.55371-.29395,1.40142,1.40142,0,0,0-.56641,1.17579c0,.90234.62891.98632,1.2168.98632.10547,0,.31543-.0205.60937-.041.48243-.06348,1.32227-.10547,1.67969-.10547a4.91072,4.91072,0,0,1,2.96094.69336,2.5281,2.5281,0,0,1,.88086,2.07812c0,1.96778-1.9502,3.33789-5.22754,3.33789-2.22559,0-4.03125-.71972-4.03125-2.37207a2.95724,2.95724,0,0,1,.4834-1.38574,8.13937,8.13937,0,0,1,1.78223-1.06445,1.77831,1.77831,0,0,1-1.63575-1.8125c0-.71289.73438-1.32227,1.34375-1.74219a2.82684,2.82684,0,0,1-1.49023-2.625,3.37327,3.37327,0,0,1,3.56836-3.19141,4.46014,4.46014,0,0,1,1.28711.18067c1.5664-.08106,2.30761-.30371,3.31152-.38965l.06348.0625a2.379,2.379,0,0,0,0,1.0918l-.06348.0625c-.86523-.08789-1.55957-.168-2.19238-.21778a2.67129,2.67129,0,0,1,1.05859,2.44434A3.20941,3.20941,0,0,1,279.24932,279.60854Zm.168,6.92871c1.80566,0,3.52734-.67187,3.52734-1.95312a1.68976,1.68976,0,0,0-.81933-1.51172,4.22068,4.22068,0,0,0-2.22461-.35645c-.29,0-1.25.06348-1.86914.06348a2.45942,2.45942,0,0,0-1.36524,1.86816C276.66631,286.07534,278.053,286.53725,279.41729,286.53725Zm-.23145-12.49219c-1.21679,0-1.84765.90235-1.84765,2.28809,0,1.44824.46289,2.43555,1.97461,2.43555,1.25976,0,1.78418-.99317,1.78418-2.26758C281.097,275.00991,280.55108,274.04506,279.18584,274.04506Z" transform="translate(-3.79198 -8.96389)"/><path d="M287.77569,268.85854a1.0708,1.0708,0,1,1-1.07129,1.07129A1.1038,1.1038,0,0,1,287.77569,268.85854Zm-1.05078,4.59863.043-.06347a13.31,13.31,0,0,0,1.82618-.02051c.16406,0,.18945.02051.18945.209a28.62965,28.62965,0,0,0-.18945,3.61133v1.49121a27.71321,27.71321,0,0,0,.18945,3.7793l-.043.06347a7.69557,7.69557,0,0,0-1.97266,0l-.043-.06347a27.37649,27.37649,0,0,0,.18945-3.7793v-1.15527A33.28479,33.28479,0,0,0,286.72491,273.45717Z" transform="translate(-3.79198 -8.96389)"/><path d="M295.81768,273.24623c2.835,0,4.36719,1.86915,4.36719,4.72461,0,2.75-1.67969,4.70313-4.45117,4.70313a4.26891,4.26891,0,0,1-4.45118-4.51367C291.28252,275.17788,293.0667,273.24623,295.81768,273.24623Zm-2.6875,4.55665c0,1.61718.56738,4.03125,2.792,4.03125,1.40723,0,2.415-1.48829,2.415-3.48536,0-2.54-.44043-4.26269-2.667-4.26269C293.69756,274.08608,293.13018,275.9767,293.13018,277.80288Z" transform="translate(-3.79198 -8.96389)"/><path d="M310.83233,282.464l-.043.06347a7.69557,7.69557,0,0,0-1.97266,0l-.043-.06347a27.34026,27.34026,0,0,0,.18946-3.7793v-2.05762c0-1.70117-.44141-2.12109-1.51172-2.12109a4.3647,4.3647,0,0,0-3.04492,1.72266v2.45605a25.30464,25.30464,0,0,0,.18945,3.7793l-.042.06347a7.70318,7.70318,0,0,0-1.97364,0l-.042-.06347a25.005,25.005,0,0,0,.18848-3.7793v-1.15527a30.68288,30.68288,0,0,0-.18848-4.07227l.042-.06347a6.79977,6.79977,0,0,0,1.70118-.06348c.09863,0,.12109.04883.125.21094v1.53222l.043.06348a4.87551,4.87551,0,0,1,3.63183-1.89063c1.88965,0,2.60352,1.13477,2.60352,3.31836,0,.67188-.042,1.44825-.042,2.12012A25.84033,25.84033,0,0,0,310.83233,282.464Z" transform="translate(-3.79198 -8.96389)"/><path d="M313.66827,280.32241a3.23038,3.23038,0,0,0,2.47656,1.51172,1.7293,1.7293,0,0,0,1.93164-1.74219c0-1.0293-.90235-1.36524-2.12012-1.70117-1.26562-.34864-2.51953-.90235-2.51953-2.582,0-1.74316,1.61621-2.5625,3.1709-2.5625a6.8971,6.8971,0,0,1,2.834.63086l.042.0625-.41993,1.55371-.29394.02051a3.075,3.075,0,0,0-2.2461-1.42773c-.90332,0-1.5957.46289-1.5957,1.32324,0,1.04981,1.1582,1.44629,1.95215,1.6377,1.49121.35742,2.85547,1.02929,2.85547,2.75,0,1.15527-.67188,2.877-3.56934,2.877a10.01575,10.01575,0,0,1-3.16992-.56641l.35645-1.76367Z" transform="translate(-3.79198 -8.96389)"/><path d="M335.71709,282.464l-.043.06347a7.69549,7.69549,0,0,0-1.97265,0l-.043-.06347a27.34044,27.34044,0,0,0,.18945-3.7793v-2.05762c0-1.70117-.4414-2.12109-1.51172-2.12109a4.3647,4.3647,0,0,0-3.04492,1.72266v2.45605a25.30451,25.30451,0,0,0,.18946,3.7793l-.042.06347a7.7031,7.7031,0,0,0-1.97363,0l-.042-.06347a25.00518,25.00518,0,0,0,.18847-3.7793v-1.15527a30.68315,30.68315,0,0,0-.18847-4.07227l.042-.06347a6.79969,6.79969,0,0,0,1.70117-.06348c.09864,0,.1211.04883.125.21094v1.53222l.043.06348a4.87552,4.87552,0,0,1,3.63184-1.89063c1.88965,0,2.60351,1.13477,2.60351,3.31836,0,.67188-.042,1.44825-.042,2.12012A25.84047,25.84047,0,0,0,335.71709,282.464Z" transform="translate(-3.79198 -8.96389)"/><path d="M342.5208,273.24623c2.835,0,4.36719,1.86915,4.36719,4.72461,0,2.75-1.67969,4.70313-4.45117,4.70313a4.26891,4.26891,0,0,1-4.45117-4.51367C337.98565,275.17788,339.76983,273.24623,342.5208,273.24623Zm-2.6875,4.55665c0,1.61718.56739,4.03125,2.792,4.03125,1.40722,0,2.415-1.48829,2.415-3.48536,0-2.54-.44043-4.26269-2.667-4.26269C340.40069,274.08608,339.8333,275.9767,339.8333,277.80288Z" transform="translate(-3.79198 -8.96389)"/><path d="M349.76592,270.76967l.043-.06347a5.08944,5.08944,0,0,0,1.46875-.52442c.13281,0,.18945.05664.18945.209a29.193,29.193,0,0,0-.10547,3.0664h.98731c.4834,0,1.0918-.02734,1.46973-.043l.10546.14746a3.86553,3.86553,0,0,0-.252.86036c-.2793-.02637-1.00781-.041-1.51172-.041h-.79883v2.64453c0,1.25977-.0625,2.16309-.0625,2.793,0,1.13574.19532,1.6416.69336,1.72168a3.14229,3.14229,0,0,0,1.65235-.16211l.25781.51856a4.12234,4.12234,0,0,1-2.43555.77734,1.8217,1.8217,0,0,1-1.84765-2.01563c0-.62988.0625-2.1416.0625-3.40136v-2.876c-.47852.002-1.12891.01465-1.49024.041l-.10547-.14649a4.66743,4.66743,0,0,0,.46289-.86133,11.238,11.238,0,0,0,1.13282.043C349.68194,272.23842,349.72491,271.49819,349.76592,270.76967Z" transform="translate(-3.79198 -8.96389)"/><path d="M360.49834,273.4142a7.83078,7.83078,0,0,0,1.21778.06348,5.71865,5.71865,0,0,0,1.0498-.06348,70.01481,70.01481,0,0,0,2.51563,7.17871h.126c.6084-1.2998,1.17969-2.874,1.74219-4.45507-.36133-.96-.69434-1.88379-.98242-2.74414a7.83188,7.83188,0,0,0,1.21777.06347,5.71429,5.71429,0,0,0,1.04981-.06347,51.83548,51.83548,0,0,0,2.01172,7.17871h.168c.86426-2.01368,1.80957-4.70118,2.58692-7.17871a2.63688,2.63688,0,0,0,.71289.06347,4.2237,4.2237,0,0,0,.90332-.06347c-1.19629,2.624-2.876,6.65527-3.90527,9.13378a3.13057,3.13057,0,0,0-.77735-.06347,1.603,1.603,0,0,0-.54492.06347c-.59863-1.62988-1.26855-3.33007-1.89844-4.9707-.67578,1.64844-1.28515,3.377-1.86035,4.99121a2.96,2.96,0,0,0-.75586-.06347,2.55767,2.55767,0,0,0-.69238.06347C363.20733,279.48256,361.90459,276.50112,360.49834,273.4142Z" transform="translate(-3.79198 -8.96389)"/><path d="M383.722,280.80483a4.56841,4.56841,0,0,1-3.65332,1.86914,4.26639,4.26639,0,0,1-3.33789-1.38574,4.97277,4.97277,0,0,1-.94532-3.21192c0-3.08691,2.1416-4.83008,4.30469-4.83008,2.77148,0,3.63184,2.20508,3.63184,3.96875a.3379.3379,0,0,1-.37793.35743h-5.71094a5.091,5.091,0,0,0,.50391,2.666,2.66439,2.66439,0,0,0,2.28906,1.19727,3.73805,3.73805,0,0,0,2.876-1.15528Zm-2.16309-4.07227a.2578.2578,0,0,0,.29492-.29492c0-1.57422-.93457-2.35156-1.76367-2.35156-.66211,0-2.03711.46289-2.39453,2.64648Z" transform="translate(-3.79198 -8.96389)"/><path d="M386.47393,272.34389a27.94509,27.94509,0,0,0-.18848-4.05273l.041-.0625a5.39359,5.39359,0,0,0,1.82715-.41993c.13183,0,.18847.0625.18847.21-.09863,1.3291-.18847,2.37207-.18847,3.94726v6.29883a32.59333,32.59333,0,0,0,.18847,4.19922l-.041.06347a7.71073,7.71073,0,0,0-1.97461,0l-.041-.06347a33.13446,33.13446,0,0,0,.18848-4.19922Z" transform="translate(-3.79198 -8.96389)"/><path d="M391.76592,272.34389a27.78342,27.78342,0,0,0-.18945-4.05273l.043-.0625a5.393,5.393,0,0,0,1.82617-.41993c.13184,0,.18945.0625.18945.21-.09961,1.3291-.18945,2.37207-.18945,3.94726v6.29883a32.40261,32.40261,0,0,0,.18945,4.19922l-.043.06347a7.69549,7.69549,0,0,0-1.97265,0l-.043-.06347a32.93656,32.93656,0,0,0,.18945-4.19922Z" transform="translate(-3.79198 -8.96389)"/><path d="M396.17608,277.50893a.33222.33222,0,0,1-.31446-.35645c0-.33593.27247-.77734.52442-.77734h4.80762c.21093,0,.29492.18945.29492.37793,0,.23145-.29492.75586-.56738.75586Z" transform="translate(-3.79198 -8.96389)"/><path d="M407.03252,282.674c-2.26757,0-3.7998-2.09961-3.7998-4.68164a4.5391,4.5391,0,0,1,4.74414-4.7461,4.49193,4.49193,0,0,1,1.76367.4629v-1.36524a27.80622,27.80622,0,0,0-.18848-4.05273l.042-.0625a5.38143,5.38143,0,0,0,1.82617-.41993c.13281,0,.18945.0625.18945.21-.10547,1.29589-.18945,2.39355-.18945,3.94726v6.4668a23.77757,23.77757,0,0,0,.35742,4.03125l-.042.06347a6.91669,6.91669,0,0,0-.93457-.06347,4.62066,4.62066,0,0,0-.72461.06347c-.125,0-.18848-.02148-.18848-.06347l-.10449-1.21778h-.043A3.358,3.358,0,0,1,407.03252,282.674Zm2.708-7.36914a2.126,2.126,0,0,0-1.99414-1.21875c-1.0166,0-2.6875.58789-2.6875,3.73828,0,2.624.96582,3.75781,2.09961,3.75781a3.472,3.472,0,0,0,2.582-1.49023Z" transform="translate(-3.79198 -8.96389)"/><path d="M421.9417,280.80483a4.56838,4.56838,0,0,1-3.65332,1.86914,4.27,4.27,0,0,1-3.33886-1.38574,4.97787,4.97787,0,0,1-.94434-3.21192c0-3.08691,2.1416-4.83008,4.30371-4.83008,2.77148,0,3.63281,2.20508,3.63281,3.96875a.33745.33745,0,0,1-.37793.35743h-5.71093a5.0911,5.0911,0,0,0,.5039,2.666,2.66394,2.66394,0,0,0,2.28809,1.19727,3.73735,3.73735,0,0,0,2.87695-1.15528Zm-2.16211-4.07227a.25719.25719,0,0,0,.293-.29492c0-1.57422-.93359-2.35156-1.76367-2.35156-.66113,0-2.03613.46289-2.39258,2.64648Z" transform="translate(-3.79198 -8.96389)"/><path d="M424.88311,272.63784a4.87758,4.87758,0,0,1,1.1543-3.21192,4.47211,4.47211,0,0,1,3.44336-1.61719,2.036,2.036,0,0,1,.94531.21l.02051.06347a10.6506,10.6506,0,0,0-.58789,1.72071l-.23145.02148a1.394,1.394,0,0,0-1.2168-.73438,1.83484,1.83484,0,0,0-1.95312,1.95215c0,.37793.10547,1.46973.10547,2.22559v.18945h.90234c.48242,0,1.11719-.02539,1.46973-.043l.10449.14746a4.02674,4.02674,0,0,0-.25195.86036c-.27832-.02637-1.00782-.041-1.51172-.041h-.71289v3.9043a29.612,29.612,0,0,0,.209,4.17871l-.041.06347a8.03308,8.03308,0,0,0-2.01563,0l-.043-.06347a28.84742,28.84742,0,0,0,.21094-4.17871V274.381h-.02149c-.48242,0-1.17578.01465-1.55371.041l-.10449-.14649a4.65871,4.65871,0,0,0,.46094-.86133,11.05,11.05,0,0,0,1.21875.043Z" transform="translate(-3.79198 -8.96389)"/><path d="M432.14873,268.85854a1.0708,1.0708,0,1,1-1.07128,1.07129A1.1038,1.1038,0,0,1,432.14873,268.85854Zm-1.05078,4.59863.043-.06347a13.30989,13.30989,0,0,0,1.82617-.02051c.16407,0,.18946.02051.18946.209a28.62951,28.62951,0,0,0-.18946,3.61133v1.49121a27.71305,27.71305,0,0,0,.18946,3.7793l-.043.06347a7.69557,7.69557,0,0,0-1.97266,0l-.043-.06347a27.37475,27.37475,0,0,0,.18946-3.7793v-1.15527A33.28244,33.28244,0,0,0,431.098,273.45717Z" transform="translate(-3.79198 -8.96389)"/><path d="M444.70537,282.464l-.043.06347a7.69557,7.69557,0,0,0-1.97266,0l-.043-.06347a27.34044,27.34044,0,0,0,.18945-3.7793v-2.05762c0-1.70117-.4414-2.12109-1.51171-2.12109a4.36472,4.36472,0,0,0-3.04493,1.72266v2.45605a25.30451,25.30451,0,0,0,.18946,3.7793l-.042.06347a7.7031,7.7031,0,0,0-1.97363,0l-.042-.06347a25.005,25.005,0,0,0,.18848-3.7793v-1.15527a30.68288,30.68288,0,0,0-.18848-4.07227l.042-.06347a6.79969,6.79969,0,0,0,1.70117-.06348c.09864,0,.1211.04883.125.21094v1.53222l.043.06348a4.87552,4.87552,0,0,1,3.63184-1.89063c1.88965,0,2.60351,1.13477,2.60351,3.31836,0,.67188-.042,1.44825-.042,2.12012A25.84047,25.84047,0,0,0,444.70537,282.464Z" transform="translate(-3.79198 -8.96389)"/><path d="M454.82745,280.80483a4.56841,4.56841,0,0,1-3.65333,1.86914,4.2664,4.2664,0,0,1-3.33789-1.38574,4.97282,4.97282,0,0,1-.94531-3.21192c0-3.08691,2.1416-4.83008,4.30469-4.83008,2.77148,0,3.63184,2.20508,3.63184,3.96875a.3379.3379,0,0,1-.37793.35743h-5.71094a5.0911,5.0911,0,0,0,.5039,2.666,2.66442,2.66442,0,0,0,2.28907,1.19727,3.73805,3.73805,0,0,0,2.876-1.15528Zm-2.16309-4.07227a.2578.2578,0,0,0,.29492-.29492c0-1.57422-.93457-2.35156-1.76367-2.35156-.66211,0-2.03711.46289-2.39453,2.64648Z" transform="translate(-3.79198 -8.96389)"/><path d="M460.70733,282.674c-2.26758,0-3.80078-2.09961-3.80078-4.68164a4.5124,4.5124,0,0,1,6.50976-4.2832v-1.36524a27.78342,27.78342,0,0,0-.18945-4.05273l.042-.0625a5.39348,5.39348,0,0,0,1.82715-.41993c.13184,0,.18848.0625.18848.21-.1045,1.29589-.18848,2.39355-.18848,3.94726v6.4668a23.79283,23.79283,0,0,0,.35645,4.03125l-.042.06347a6.92732,6.92732,0,0,0-.93457-.06347,4.608,4.608,0,0,0-.72363.06347c-.127,0-.18945-.02148-.18945-.06347l-.10547-1.21778h-.041A3.35974,3.35974,0,0,1,460.70733,282.674Zm2.709-7.36914a2.12638,2.12638,0,0,0-1.99511-1.21875c-1.01661,0-2.6875.58789-2.6875,3.73828,0,2.624.96582,3.75781,2.0996,3.75781a3.4753,3.4753,0,0,0,2.583-1.49023Z" transform="translate(-3.79198 -8.96389)"/><path d="M467.89,286.7267l-.4834-.3789a13.24211,13.24211,0,0,0,3.1914-9.17481,13.39068,13.39068,0,0,0-3.1914-9.21777l.4834-.35645a12.50034,12.50034,0,0,1,0,19.12793Z" transform="translate(-3.79198 -8.96389)"/><rect class="cls-1" x="0.51354" y="0.51668" width="227.09802" height="227.09802"/><g class="cls-5"><line class="cls-6" x1="111.77405" y1="39.74861" x2="114.06255" y2="80.59111"/><line class="cls-6" x1="179.12386" y1="74.88178" x2="188.60234" y2="16.03775"/><line class="cls-6" x1="111.77405" y1="39.74861" x2="179.12386" y2="74.88178"/><line class="cls-6" x1="114.06255" y1="80.59111" x2="179.12386" y2="74.88178"/><line class="cls-6" x1="160.63022" y1="145.14447" x2="179.12386" y2="74.88178"/><line class="cls-6" x1="207.95638" y1="145.14447" x2="160.63022" y2="145.14447"/><line class="cls-6" x1="179.12386" y1="74.88178" x2="207.95638" y2="145.14447"/><line class="cls-6" x1="227.61155" y1="0.51668" x2="188.60234" y2="16.03775"/><line class="cls-6" x1="227.61155" y1="60.89178" x2="188.60234" y2="16.03775"/><line class="cls-6" x1="179.12386" y1="74.88178" x2="227.61155" y2="60.89178"/><line class="cls-6" x1="207.95638" y1="145.14447" x2="227.61155" y2="60.89178"/><line class="cls-6" x1="160.63022" y1="145.14447" x2="227.61155" y2="201.94035"/><line class="cls-6" x1="207.95638" y1="145.14447" x2="227.61155" y2="154.04904"/><line class="cls-6" x1="227.61155" y1="201.94035" x2="207.95638" y2="145.14447"/><line class="cls-6" x1="188.60234" y1="209.69783" x2="227.61155" y2="201.94035"/><line class="cls-6" x1="227.61155" y1="227.61469" x2="188.60234" y2="209.69783"/><line class="cls-6" x1="114.06255" y1="215.89634" x2="114.06255" y2="227.61469"/><line class="cls-6" x1="188.60234" y1="209.69783" x2="114.06255" y2="227.61469"/><line class="cls-6" x1="39.52275" y1="209.69783" x2="114.06255" y2="227.61469"/><line class="cls-6" x1="0.51354" y1="227.61469" x2="39.52275" y2="209.69783"/><line class="cls-6" x1="114.06255" y1="145.14447" x2="116.35104" y2="185.98696"/><line class="cls-6" x1="131.19418" y1="162.2761" x2="114.06255" y2="145.14447"/><line class="cls-6" x1="128.82688" y1="121.43361" x2="114.06255" y2="145.14447"/><line class="cls-6" x1="99.29821" y1="104.30197" x2="114.06255" y2="80.59111"/><line class="cls-6" x1="128.82688" y1="121.43361" x2="99.29821" y2="104.30197"/><line class="cls-6" x1="96.93091" y1="63.45947" x2="114.06255" y2="80.59111"/><line class="cls-6" x1="131.19418" y1="162.2761" x2="160.63022" y2="145.14447"/><line class="cls-6" x1="128.82688" y1="121.43361" x2="160.63022" y2="145.14447"/><line class="cls-6" x1="131.19418" y1="162.2761" x2="188.60234" y2="209.69783"/><line class="cls-6" x1="116.35104" y1="185.98696" x2="114.06255" y2="215.89634"/><line class="cls-6" x1="188.60234" y1="209.69783" x2="116.35104" y2="185.98696"/><line class="cls-6" x1="39.52275" y1="209.69783" x2="114.06255" y2="145.14447"/><line class="cls-6" x1="67.49487" y1="80.59111" x2="29.5857" y2="130.10339"/><line class="cls-6" x1="29.5857" y1="130.10339" x2="39.52275" y2="209.69783"/><line class="cls-6" x1="29.5857" y1="130.10339" x2="114.06255" y2="145.14447"/><line class="cls-6" x1="29.5857" y1="130.10339" x2="0.51354" y2="227.61469"/><line class="cls-6" x1="29.5857" y1="130.10339" x2="0.51354" y2="93.94057"/><line class="cls-6" x1="0.51354" y1="93.94057" x2="67.49487" y2="80.59111"/><line class="cls-6" x1="39.52275" y1="16.03775" x2="0.51354" y2="93.94057"/><line class="cls-6" x1="39.52275" y1="16.03775" x2="0.51354" y2="0.51668"/><line class="cls-6" x1="114.06255" y1="9.83923" x2="62.32772" y2="0.51668"/><line class="cls-6" x1="62.32772" y1="0.51668" x2="39.52275" y2="16.03775"/><line class="cls-6" x1="114.06255" y1="9.83923" x2="163.19791" y2="0.51668"/><line class="cls-6" x1="163.19791" y1="0.51668" x2="188.60234" y2="16.03775"/><line class="cls-6" x1="67.49487" y1="80.59111" x2="96.93091" y2="63.45947"/><line class="cls-6" x1="111.77405" y1="39.74861" x2="39.52275" y2="16.03775"/><line class="cls-6" x1="114.06255" y1="9.83923" x2="111.77405" y2="39.74861"/><line class="cls-6" x1="39.52275" y1="16.03775" x2="96.93091" y2="63.45947"/><line class="cls-6" x1="67.49487" y1="80.59111" x2="99.29821" y2="104.30197"/></g><polygon class="cls-10" points="114.063 80.591 128.827 121.434 131.194 162.276 116.351 185.987 39.523 209.698 114.063 215.896 188.602 209.698 160.63 145.144 114.063 80.591"/><polygon class="cls-11" points="114.063 145.144 99.298 104.302 96.931 63.459 111.774 39.749 188.602 16.038 114.063 9.839 39.523 16.038 67.495 80.591 114.063 145.144"/><circle class="cls-2" cx="114.06255" cy="80.59111" r="2.56769"/><circle class="cls-2" cx="188.60234" cy="209.69783" r="2.56769"/><circle class="cls-2" cx="39.52275" cy="209.69783" r="2.56769"/><circle class="cls-2" cx="114.06255" cy="145.14447" r="2.56769"/><circle class="cls-2" cx="188.60234" cy="16.03775" r="2.56769"/><circle class="cls-2" cx="39.52275" cy="16.03775" r="2.56769"/><circle class="cls-12" cx="111.77405" cy="39.74861" r="2.56769"/><circle class="cls-12" cx="96.93091" cy="63.45947" r="2.56769"/><circle class="cls-12" cx="99.29821" cy="104.30197" r="2.56769"/><circle class="cls-12" cx="67.49487" cy="80.59111" r="2.56769"/><circle class="cls-12" cx="114.06255" cy="9.83923" r="2.56769"/><circle class="cls-12" cx="160.63022" cy="145.14447" r="2.56769"/><circle class="cls-12" cx="128.82688" cy="121.43361" r="2.56769"/><circle class="cls-12" cx="131.19418" cy="162.2761" r="2.56769"/><circle class="cls-12" cx="116.35104" cy="185.98696" r="2.56769"/><circle class="cls-12" cx="114.06255" cy="215.89634" r="2.56769"/><path d="M57.46709,243.65834a1.07081,1.07081,0,1,1-1.07031,1.07032A1.10379,1.10379,0,0,1,57.46709,243.65834ZM56.41827,248.256l.041-.0625a13.173,13.173,0,0,0,1.82715-.02148c.16406,0,.18848.02148.18848.21093a28.80611,28.80611,0,0,0-.18848,3.61133v1.49024a27.8876,27.8876,0,0,0,.18848,3.77929l-.041.0625a7.82942,7.82942,0,0,0-1.97461,0l-.041-.0625a27.55577,27.55577,0,0,0,.18847-3.77929v-1.1543A33.55168,33.55168,0,0,0,56.41827,248.256Z" transform="translate(-3.79198 -8.96389)"/><path d="M70.02373,257.26381l-.041.0625a7.82942,7.82942,0,0,0-1.97461,0l-.041-.0625a27.52085,27.52085,0,0,0,.18848-3.77929V251.4269c0-1.7002-.44043-2.12012-1.51172-2.12012a4.35727,4.35727,0,0,0-3.04394,1.7207v2.457a25.32464,25.32464,0,0,0,.18847,3.77929l-.042.0625a7.82168,7.82168,0,0,0-1.97363,0l-.042-.0625a24.9997,24.9997,0,0,0,.18945-3.77929v-1.1543a30.8579,30.8579,0,0,0-.18945-4.07422l.042-.0625a6.83646,6.83646,0,0,0,1.70019-.0625c.09961,0,.12207.04785.127.209v1.53321l.041.0625a4.87666,4.87666,0,0,1,3.63281-1.88867c1.88965,0,2.60352,1.13281,2.60352,3.3164,0,.67188-.042,1.44922-.042,2.1211A25.99946,25.99946,0,0,0,70.02373,257.26381Z" transform="translate(-3.79198 -8.96389)"/><path d="M74.93877,249.93569a3.47739,3.47739,0,0,1,2.835-1.88867c2.35157,0,3.65235,2.14062,3.65235,4.36718,0,2.958-1.67969,5.05957-4.45117,5.05957a4.59484,4.59484,0,0,1-2.07813-.46191v.92383a34.84741,34.84741,0,0,0,.18945,4.19922l-.043.0625a7.814,7.814,0,0,0-1.97266,0l-.043-.0625a34.31512,34.31512,0,0,0,.18945-4.19922v-5.60547a30.68886,30.68886,0,0,0-.18945-4.07422l.043-.0625a6.83816,6.83816,0,0,0,1.70019-.0625c.09864,0,.126.04785.126.209v1.53321Zm-.042,5.7539a2.56956,2.56956,0,0,0,1.95313.94434c2.24609,0,2.72851-2.22559,2.72851-3.94727,0-2.37207-.73437-3.6748-2.16211-3.6748a3.45371,3.45371,0,0,0-2.51953,2.0791Z" transform="translate(-3.79198 -8.96389)"/><path d="M86.972,257.47377a2.60257,2.60257,0,0,1-2.751-2.91894V252.0353a25.32465,25.32465,0,0,0-.18848-3.7793l.042-.0625a7.82168,7.82168,0,0,0,1.97363,0l.042.0625a24.8466,24.8466,0,0,0-.18945,3.7793v2.0791c0,1.95215.68261,2.18359,1.40722,2.18359,1.02832,0,2.23633-1.123,2.876-2.2041V252.0353a25.89032,25.89032,0,0,0-.18848-3.7793l.042-.0625a7.82168,7.82168,0,0,0,1.97363,0l.042.0625a24.8466,24.8466,0,0,0-.18945,3.7793v1.19726a23.77747,23.77747,0,0,0,.35742,4.03125l-.042.0625a7.24619,7.24619,0,0,0-.93457-.0625,6.23913,6.23913,0,0,0-.8291.0625c-.0586,0-.084-.02051-.084-.0625l-.10449-1.86914-.084-.0625A4.20481,4.20481,0,0,1,86.972,257.47377Z" transform="translate(-3.79198 -8.96389)"/><path d="M95.83428,245.5685l.041-.0625a5.04586,5.04586,0,0,0,1.4707-.52539c.13184,0,.18848.05762.18848.21094A29.17,29.17,0,0,0,97.43,248.256h.98633c.48242,0,1.0918-.02637,1.46973-.041l.10449.14649a4.03508,4.03508,0,0,0-.252.86133c-.27832-.02735-1.00781-.043-1.51172-.043H97.43v2.64648c0,1.25977-.06347,2.16211-.06347,2.792,0,1.13575.19531,1.64161.69238,1.72168a3.15584,3.15584,0,0,0,1.65332-.1621l.25781.51953a4.12775,4.12775,0,0,1-2.43554.77636,1.82223,1.82223,0,0,1-1.84766-2.01562c0-.62988.06348-2.1416.06348-3.40137v-2.87695c-.4795.00293-1.12989.01562-1.49121.043l-.1045-.14746a4.71344,4.71344,0,0,0,.46094-.86036c.26074.03321.7041.03907,1.13477.041C95.7503,247.0392,95.79131,246.298,95.83428,245.5685Z" transform="translate(-3.79198 -8.96389)"/><path d="M109.71416,250.29311c.92383-1.5957,1.53223-2.24609,2.667-2.24609a1.86235,1.86235,0,0,1,.75586.14648l.084.084-.41992,1.55372-.168.042a1.56367,1.56367,0,0,0-1.0918-.29395,1.504,1.504,0,0,0-1.17578.73535,3.38228,3.38228,0,0,0-.71484,2.07813v1.0918a26.84125,26.84125,0,0,0,.18945,3.77929l-.042.0625a7.82168,7.82168,0,0,0-1.97363,0l-.042-.0625a25.50484,25.50484,0,0,0,.18848-3.77929v-1.1543a30.715,30.715,0,0,0-.18848-4.07422l.042-.0625a6.846,6.846,0,0,0,1.70117-.0625c.09863,0,.125.04785.125.209v1.91114Z" transform="translate(-3.79198 -8.96389)"/><path d="M122.08233,255.60561a4.56752,4.56752,0,0,1-3.65332,1.86816,4.27,4.27,0,0,1-3.33887-1.38574,4.97894,4.97894,0,0,1-.94434-3.21289c0-3.08594,2.14161-4.82812,4.30372-4.82812,2.77148,0,3.63281,2.2041,3.63281,3.96777a.33628.33628,0,0,1-.37793.35644h-5.71094a5.09286,5.09286,0,0,0,.50391,2.667,2.66284,2.66284,0,0,0,2.28808,1.19629,3.73666,3.73666,0,0,0,2.877-1.1543Zm-2.16211-4.07422a.25621.25621,0,0,0,.293-.293c0-1.57519-.9336-2.35156-1.76367-2.35156-.66114,0-2.03614.46094-2.39258,2.64453Z" transform="translate(-3.79198 -8.96389)"/><path d="M127.64776,254.40834a3.88858,3.88858,0,0,1-1.55371-.29394,1.40249,1.40249,0,0,0-.56641,1.17578c0,.90332.62891.9873,1.2168.9873.10547,0,.31543-.02148.60937-.043.48242-.0625,1.32227-.1045,1.67969-.1045a4.9096,4.9096,0,0,1,2.96094.69239,2.53139,2.53139,0,0,1,.88086,2.0791c0,1.96777-1.9502,3.33887-5.22754,3.33887-2.22559,0-4.03125-.72071-4.03125-2.37305a2.9608,2.9608,0,0,1,.4834-1.38574,8.139,8.139,0,0,1,1.78222-1.06446,1.77806,1.77806,0,0,1-1.63574-1.81152c0-.71484.73438-1.32324,1.34375-1.74316a2.82632,2.82632,0,0,1-1.49023-2.624,3.37261,3.37261,0,0,1,3.56836-3.1914,4.46109,4.46109,0,0,1,1.2871.17968c1.56641-.08105,2.30762-.30371,3.31153-.39062l.06347.06347a2.37935,2.37935,0,0,0,0,1.0918l-.06347.06348c-.86524-.08887-1.55957-.168-2.19238-.21875a2.67053,2.67053,0,0,1,1.05859,2.44336A3.20956,3.20956,0,0,1,127.64776,254.40834Zm.168,6.92871c1.80566,0,3.52734-.67187,3.52734-1.95214a1.68667,1.68667,0,0,0-.81934-1.51172,4.21,4.21,0,0,0-2.22461-.35742c-.29,0-1.25.0625-1.86914.0625a2.46243,2.46243,0,0,0-1.36523,1.86914C125.06475,260.87514,126.45147,261.337,127.81573,261.337Zm-.23145-12.49316c-1.2168,0-1.84766.90332-1.84766,2.28906,0,1.44922.4629,2.43555,1.97461,2.43555,1.25977,0,1.78418-.99316,1.78418-2.26758C129.49541,249.81069,128.94952,248.84389,127.58428,248.84389Z" transform="translate(-3.79198 -8.96389)"/><path d="M136.17412,243.65834a1.07081,1.07081,0,1,1-1.07031,1.07032A1.10379,1.10379,0,0,1,136.17412,243.65834ZM135.1253,248.256l.041-.0625a13.173,13.173,0,0,0,1.82715-.02148c.16406,0,.18848.02148.18848.21093a28.808,28.808,0,0,0-.18848,3.61133v1.49024a27.8876,27.8876,0,0,0,.18848,3.77929l-.041.0625a7.82942,7.82942,0,0,0-1.97461,0l-.041-.0625a27.55577,27.55577,0,0,0,.18847-3.77929v-1.1543A33.55168,33.55168,0,0,0,135.1253,248.256Z" transform="translate(-3.79198 -8.96389)"/><path d="M144.21709,248.047c2.834,0,4.36719,1.86816,4.36719,4.72363,0,2.751-1.67969,4.70312-4.45117,4.70312a4.26914,4.26914,0,0,1-4.45117-4.51464C139.68194,249.97866,141.46709,248.047,144.21709,248.047Zm-2.6875,4.55566c0,1.61621.56641,4.03125,2.793,4.03125,1.40625,0,2.41406-1.48828,2.41406-3.48535,0-2.541-.4414-4.26172-2.666-4.26172C142.096,248.88686,141.52959,250.77553,141.52959,252.60268Z" transform="translate(-3.79198 -8.96389)"/><path d="M159.23077,257.26381l-.041.0625a7.82942,7.82942,0,0,0-1.97461,0l-.041-.0625a27.51926,27.51926,0,0,0,.18848-3.77929V251.4269c0-1.7002-.44043-2.12012-1.51172-2.12012a4.35727,4.35727,0,0,0-3.04394,1.7207v2.457a25.326,25.326,0,0,0,.18847,3.77929l-.042.0625a7.82168,7.82168,0,0,0-1.97363,0l-.042-.0625a24.99839,24.99839,0,0,0,.18945-3.77929v-1.1543a30.8579,30.8579,0,0,0-.18945-4.07422l.042-.0625a6.83646,6.83646,0,0,0,1.70019-.0625c.09961,0,.12207.04785.127.209v1.53321l.041.0625a4.87666,4.87666,0,0,1,3.63282-1.88867c1.88964,0,2.60351,1.13281,2.60351,3.3164,0,.67188-.042,1.44922-.042,2.1211A25.9979,25.9979,0,0,0,159.23077,257.26381Z" transform="translate(-3.79198 -8.96389)"/><path d="M162.0667,255.12221a3.2312,3.2312,0,0,0,2.47852,1.51172,1.73,1.73,0,0,0,1.93164-1.74316c0-1.02832-.90332-1.36426-2.12109-1.7002-1.26563-.34863-2.51954-.90332-2.51954-2.583,0-1.74218,1.61719-2.56054,3.16993-2.56054a6.91226,6.91226,0,0,1,2.835.6289l.042.06348-.41992,1.55371-.29395.02148a3.07606,3.07606,0,0,0-2.24707-1.42773c-.90234,0-1.5957.46094-1.5957,1.32227,0,1.0498,1.15918,1.44628,1.95312,1.63769,1.49024.35645,2.85547,1.02832,2.85547,2.751,0,1.15429-.67187,2.876-3.56933,2.876a10.03047,10.03047,0,0,1-3.1709-.56738l.35742-1.76367Z" transform="translate(-3.79198 -8.96389)"/><rect class="cls-1" x="484.88751" y="0.51668" width="227.09802" height="227.09802"/><g class="cls-5"><line class="cls-6" x1="596.14803" y1="39.74861" x2="581.30489" y2="63.45947"/><line class="cls-6" x1="663.49784" y1="74.88178" x2="672.97632" y2="16.03775"/><line class="cls-6" x1="581.30489" y1="63.45947" x2="672.97632" y2="16.03775"/><line class="cls-6" x1="598.43652" y1="80.59111" x2="663.49784" y2="74.88178"/><line class="cls-6" x1="645.0042" y1="145.14447" x2="663.49784" y2="74.88178"/><line class="cls-6" x1="692.33036" y1="145.14447" x2="645.0042" y2="145.14447"/><line class="cls-6" x1="663.49784" y1="74.88178" x2="692.33036" y2="145.14447"/><line class="cls-6" x1="711.98553" y1="0.51668" x2="672.97632" y2="16.03775"/><line class="cls-6" x1="711.98553" y1="60.89178" x2="672.97632" y2="16.03775"/><line class="cls-6" x1="663.49784" y1="74.88178" x2="711.98553" y2="60.89178"/><line class="cls-6" x1="692.33036" y1="145.14447" x2="711.98553" y2="60.89178"/><line class="cls-6" x1="645.0042" y1="145.14447" x2="711.98553" y2="201.94035"/><line class="cls-6" x1="692.33036" y1="145.14447" x2="711.98553" y2="154.04904"/><line class="cls-6" x1="711.98553" y1="201.94035" x2="692.33036" y2="145.14447"/><line class="cls-6" x1="672.97632" y1="209.69783" x2="711.98553" y2="201.94035"/><line class="cls-6" x1="711.98553" y1="227.61469" x2="672.97632" y2="209.69783"/><line class="cls-6" x1="598.43652" y1="215.89634" x2="598.43652" y2="227.61469"/><line class="cls-6" x1="672.97632" y1="209.69783" x2="598.43652" y2="227.61469"/><line class="cls-6" x1="523.89672" y1="209.69783" x2="598.43652" y2="227.61469"/><line class="cls-6" x1="484.88752" y1="227.61469" x2="523.89672" y2="209.69783"/><line class="cls-6" x1="615.56816" y1="162.2761" x2="600.72502" y2="185.98696"/><line class="cls-6" x1="615.56816" y1="162.2761" x2="598.43652" y2="145.14447"/><line class="cls-6" x1="613.20086" y1="121.43361" x2="598.43652" y2="145.14447"/><line class="cls-6" x1="583.67219" y1="104.30197" x2="598.43652" y2="80.59111"/><line class="cls-6" x1="598.43652" y1="145.14447" x2="583.67219" y2="104.30197"/><line class="cls-6" x1="581.30489" y1="63.45947" x2="598.43652" y2="80.59111"/><line class="cls-6" x1="615.56816" y1="162.2761" x2="613.20086" y2="121.43361"/><line class="cls-6" x1="613.20086" y1="121.43361" x2="672.97632" y2="209.69783"/><line class="cls-6" x1="615.56816" y1="162.2761" x2="672.97632" y2="209.69783"/><line class="cls-6" x1="672.97632" y1="209.69783" x2="598.43652" y2="215.89634"/><line class="cls-6" x1="672.97632" y1="209.69783" x2="600.72502" y2="185.98696"/><line class="cls-6" x1="523.89672" y1="209.69783" x2="598.43652" y2="145.14447"/><line class="cls-6" x1="551.86885" y1="80.59111" x2="513.95968" y2="130.10339"/><line class="cls-6" x1="513.95968" y1="130.10339" x2="523.89672" y2="209.69783"/><line class="cls-6" x1="513.95968" y1="130.10339" x2="598.43652" y2="145.14447"/><line class="cls-6" x1="513.95968" y1="130.10339" x2="484.88752" y2="227.61469"/><line class="cls-6" x1="513.95968" y1="130.10339" x2="484.88752" y2="93.94057"/><line class="cls-6" x1="484.88752" y1="93.94057" x2="551.86885" y2="80.59111"/><line class="cls-6" x1="523.89672" y1="16.03775" x2="484.88752" y2="93.94057"/><line class="cls-6" x1="523.89672" y1="16.03775" x2="484.88752" y2="0.51668"/><line class="cls-6" x1="598.43652" y1="9.83923" x2="546.70169" y2="0.51668"/><line class="cls-6" x1="546.70169" y1="0.51668" x2="523.89672" y2="16.03775"/><line class="cls-6" x1="598.43652" y1="9.83923" x2="647.57189" y2="0.51668"/><line class="cls-6" x1="647.57189" y1="0.51668" x2="672.97632" y2="16.03775"/><line class="cls-6" x1="583.67219" y1="104.30197" x2="581.30489" y2="63.45947"/><line class="cls-6" x1="596.14803" y1="39.74861" x2="523.89672" y2="16.03775"/><line class="cls-6" x1="672.97632" y1="16.03775" x2="596.14803" y2="39.74861"/><line class="cls-6" x1="523.89672" y1="16.03775" x2="581.30489" y2="63.45947"/><line class="cls-6" x1="523.89672" y1="16.03775" x2="583.67219" y2="104.30197"/><line class="cls-6" x1="672.97632" y1="16.03775" x2="598.43652" y2="9.83923"/><line class="cls-6" x1="598.43652" y1="9.83923" x2="523.89672" y2="16.03775"/><line class="cls-6" x1="551.86885" y1="80.59111" x2="523.89672" y2="16.03775"/><line class="cls-6" x1="551.86885" y1="80.59111" x2="598.43652" y2="145.14447"/><line class="cls-6" x1="598.43652" y1="80.59111" x2="613.20086" y2="121.43361"/><line class="cls-6" x1="598.43652" y1="80.59111" x2="644.6239" y2="144.822"/><line class="cls-6" x1="645.0042" y1="145.14447" x2="672.97632" y2="209.69783"/><line class="cls-6" x1="615.56816" y1="162.2761" x2="523.89672" y2="209.69783"/><line class="cls-6" x1="600.72502" y1="185.98696" x2="523.89672" y2="209.69783"/><line class="cls-6" x1="598.43652" y1="215.89634" x2="523.89672" y2="209.69783"/></g><polygon class="cls-10" points="598.437 80.591 598.437 112.868 598.437 145.144 561.167 177.421 523.897 209.698 598.437 209.698 672.976 209.698 635.706 145.144 598.437 80.591"/><polygon class="cls-13" points="598.437 145.144 598.437 112.868 598.437 80.591 635.706 48.314 672.976 16.038 598.437 16.038 523.897 16.038 561.167 80.591 598.437 145.144"/><circle class="cls-12" cx="598.43652" cy="80.59111" r="4.21642"/><circle class="cls-2" cx="598.43652" cy="80.59111" r="2.56769"/><circle class="cls-2" cx="672.97632" cy="209.69783" r="2.56769"/><circle class="cls-2" cx="523.89672" cy="209.69783" r="2.56769"/><circle class="cls-12" cx="598.43652" cy="145.14447" r="4.21641"/><circle class="cls-2" cx="598.43652" cy="145.14447" r="2.56769"/><circle class="cls-2" cx="672.97632" cy="16.03775" r="2.56769"/><circle class="cls-2" cx="523.89672" cy="16.03775" r="2.56769"/><path d="M500.85186,247.43764a4.88115,4.88115,0,0,1,1.15527-3.21289,4.47286,4.47286,0,0,1,3.44336-1.61621,2.0161,2.0161,0,0,1,.94434.21l.02148.0625a10.58205,10.58205,0,0,0-.58789,1.72266l-.23047.0205a1.398,1.398,0,0,0-1.21875-.73535,1.83534,1.83534,0,0,0-1.95215,1.95313c0,.37793.1045,1.46972.1045,2.22558v.18848h.90332c.4834,0,1.11718-.02441,1.46972-.041l.10547.14649a3.87352,3.87352,0,0,0-.252.86133c-.2793-.02735-1.00781-.043-1.51172-.043h-.71484v3.90625a29.44287,29.44287,0,0,0,.21093,4.17773l-.043.0625a8.15678,8.15678,0,0,0-2.01563,0l-.041-.0625a29.0082,29.0082,0,0,0,.209-4.17773v-3.90625h-.02051c-.4834,0-1.17578.01562-1.55371.043l-.10547-.14746a4.72371,4.72371,0,0,0,.46289-.86036,11.33271,11.33271,0,0,0,1.2168.041Z" transform="translate(-3.79198 -8.96389)"/><path d="M508.097,247.1437a27.92394,27.92394,0,0,0-.18848-4.05176l.041-.06348a5.4172,5.4172,0,0,0,1.82714-.41992c.13184,0,.18848.06348.18848.21-.09863,1.3291-.18848,2.37305-.18848,3.94727v6.29882a32.5999,32.5999,0,0,0,.18848,4.19922l-.041.0625a7.82934,7.82934,0,0,0-1.9746,0l-.041-.0625a33.13428,33.13428,0,0,0,.18848-4.19922Z" transform="translate(-3.79198 -8.96389)"/><path d="M514.2503,243.65834a1.07081,1.07081,0,1,1-1.07129,1.07032A1.10362,1.10362,0,0,1,514.2503,243.65834Zm-1.05078,4.59766.043-.0625a13.16067,13.16067,0,0,0,1.82618-.02148c.16406,0,.18945.02148.18945.21093a28.60918,28.60918,0,0,0-.18945,3.61133v1.49024a27.71306,27.71306,0,0,0,.18945,3.77929l-.043.0625a7.814,7.814,0,0,0-1.97266,0l-.043-.0625a27.38508,27.38508,0,0,0,.18945-3.77929v-1.1543A33.32,33.32,0,0,0,513.19952,248.256Z" transform="translate(-3.79198 -8.96389)"/><path d="M520.40264,249.93569a3.47734,3.47734,0,0,1,2.834-1.88867c2.35157,0,3.6543,2.14062,3.6543,4.36718,0,2.958-1.67969,5.05957-4.45117,5.05957a4.59906,4.59906,0,0,1-2.0791-.46191v.92383a35.06614,35.06614,0,0,0,.18847,4.19922l-.041.0625a7.82942,7.82942,0,0,0-1.97461,0l-.041-.0625a34.53177,34.53177,0,0,0,.18848-4.19922v-5.60547a30.88262,30.88262,0,0,0-.18848-4.07422l.041-.0625a6.84428,6.84428,0,0,0,1.70117-.0625c.09863,0,.126.04785.126.209v1.53321Zm-.042,5.7539a2.56922,2.56922,0,0,0,1.95215.94434c2.24707,0,2.73047-2.22559,2.73047-3.94727,0-2.37207-.73536-3.6748-2.16309-3.6748a3.452,3.452,0,0,0-2.51953,2.0791Z" transform="translate(-3.79198 -8.96389)"/><path d="M528.95049,252.30873a.3339.3339,0,0,1-.31543-.35742c0-.33593.27344-.77636.52539-.77636h4.8086c.209,0,.293.18847.293.37793,0,.23046-.293.75585-.56641.75585Z" transform="translate(-3.79198 -8.96389)"/><path d="M538.33623,249.09584a3.36466,3.36466,0,0,1,2.625-1.04882,4.08757,4.08757,0,0,1,3.86329,4.3457c0,3.56933-2.37305,5.08105-4.51465,5.08105a4.12786,4.12786,0,0,1-2.47754-1.02832,4.97446,4.97446,0,0,1-.69336,1.02832.87379.87379,0,0,1-.58789-.168,7.17773,7.17773,0,0,0,.10547-1.57519V247.1437a26.37905,26.37905,0,0,0-.252-4.05176l.042-.06348a5.4172,5.4172,0,0,0,1.82714-.41992c.13184,0,.18848.06348.18848.21-.09863,1.28711-.126,2.39355-.126,3.94727Zm1.84766,7.53809c1.99414,0,2.77148-1.46973,2.77148-4.07324,0-2.61817-1.13183-3.67383-2.41406-3.67383-.86133,0-1.38672.39844-2.20508,1.23828v5.4375A2.77266,2.77266,0,0,0,540.18389,256.63393Z" transform="translate(-3.79198 -8.96389)"/><path d="M551.94366,256.256a3.77172,3.77172,0,0,1-2.85547,1.21777c-1.55371,0-2.625-.71386-2.625-2.26757,0-1.42774,1.34375-2.56153,3.48633-3.04395l1.95214-.44141a.25544.25544,0,0,0,.14746-.252c0-2.373-1.25976-2.47754-2.01562-2.47754-1.00781,0-1.72266.83985-2.31055,1.78418l-.27246-.02051-.35644-1.40722.0625-.084a4.57,4.57,0,0,1,3.08593-1.21679c1.59571,0,3.46485.5664,3.46485,3.40039,0,.23144-.0586,2.5625-.0586,3.17089,0,.93458.13672,1.44239.35059,1.6377a1.02967,1.02967,0,0,0,.61523.15723,1.68675,1.68675,0,0,0,.56641-.10938l.15527.51856a2.22134,2.22134,0,0,1-1.67089.65136,1.60411,1.60411,0,0,1-1.63575-1.21777Zm-1.70118-3.2334c-1.63671.44043-2.07812,1.15528-2.07812,2.09961a1.41957,1.41957,0,0,0,1.55371,1.28027,3.54131,3.54131,0,0,0,1.93164-.81835.6285.6285,0,0,0,.29395-.5459l.084-2.499Z" transform="translate(-3.79198 -8.96389)"/><path d="M556.98467,255.12221a3.22774,3.22774,0,0,0,2.47656,1.51172,1.72949,1.72949,0,0,0,1.93164-1.74316c0-1.02832-.90234-1.36426-2.12011-1.7002-1.26563-.34863-2.51953-.90332-2.51953-2.583,0-1.74218,1.61621-2.56054,3.17089-2.56054a6.915,6.915,0,0,1,2.834.6289l.042.06348-.41992,1.55371-.29395.02148a3.07222,3.07222,0,0,0-2.24609-1.42773c-.90332,0-1.5957.46094-1.5957,1.32227,0,1.0498,1.1582,1.44628,1.95215,1.63769,1.49121.35645,2.85546,1.02832,2.85546,2.751,0,1.15429-.67187,2.876-3.56933,2.876a10.02075,10.02075,0,0,1-3.16992-.56738l.35644-1.76367Z" transform="translate(-3.79198 -8.96389)"/><path d="M572.58623,255.60561a4.56752,4.56752,0,0,1-3.65332,1.86816,4.26992,4.26992,0,0,1-3.33886-1.38574,4.97888,4.97888,0,0,1-.94434-3.21289c0-3.08594,2.1416-4.82812,4.30371-4.82812,2.77149,0,3.63281,2.2041,3.63281,3.96777a.33627.33627,0,0,1-.37793.35644h-5.71093a5.09288,5.09288,0,0,0,.5039,2.667,2.66285,2.66285,0,0,0,2.28809,1.19629,3.73664,3.73664,0,0,0,2.87695-1.1543Zm-2.16211-4.07422a.25621.25621,0,0,0,.293-.293c0-1.57519-.93359-2.35156-1.76367-2.35156-.66113,0-2.03613.46094-2.39258,2.64453Z" transform="translate(-3.79198 -8.96389)"/><path d="M578.46612,257.47377c-2.26758,0-3.79981-2.09961-3.79981-4.68261a4.51422,4.51422,0,0,1,6.50781-4.28321V247.1437a27.784,27.784,0,0,0-.18847-4.05176l.042-.06348a5.405,5.405,0,0,0,1.82617-.41992c.13281,0,.18946.06348.18946.21-.10547,1.2959-.18946,2.39355-.18946,3.94727v6.46679a23.77851,23.77851,0,0,0,.35742,4.03125l-.042.0625a7.24619,7.24619,0,0,0-.93457-.0625,4.74408,4.74408,0,0,0-.72461.0625c-.125,0-.18847-.02051-.18847-.0625l-.1045-1.21777h-.043A3.358,3.358,0,0,1,578.46612,257.47377Zm2.708-7.37011a2.12743,2.12743,0,0,0-1.99414-1.2168c-1.0166,0-2.6875.58789-2.6875,3.73633,0,2.625.96582,3.75879,2.09961,3.75879a3.47042,3.47042,0,0,0,2.582-1.49121Z" transform="translate(-3.79198 -8.96389)"/><path d="M591.34014,255.12221a3.22774,3.22774,0,0,0,2.47656,1.51172,1.72949,1.72949,0,0,0,1.93164-1.74316c0-1.02832-.90234-1.36426-2.12011-1.7002-1.26563-.34863-2.51953-.90332-2.51953-2.583,0-1.74218,1.61621-2.56054,3.17089-2.56054a6.915,6.915,0,0,1,2.834.6289l.042.06348-.41992,1.55371-.29395.02148a3.07222,3.07222,0,0,0-2.24609-1.42773c-.90332,0-1.5957.46094-1.5957,1.32227,0,1.0498,1.1582,1.44628,1.95214,1.63769,1.49122.35645,2.85547,1.02832,2.85547,2.751,0,1.15429-.67187,2.876-3.56933,2.876a10.0207,10.0207,0,0,1-3.16992-.56738l.35644-1.76367Z" transform="translate(-3.79198 -8.96389)"/><path d="M600.36944,245.5685l.043-.0625a5.03267,5.03267,0,0,0,1.46875-.52539c.13281,0,.18945.05762.18945.21094a29.14045,29.14045,0,0,0-.10547,3.06445h.98731c.48339,0,1.09179-.02637,1.46972-.041l.10547.14649a3.87352,3.87352,0,0,0-.25195.86133c-.2793-.02735-1.00782-.043-1.51172-.043h-.79883v2.64648c0,1.25977-.0625,2.16211-.0625,2.792,0,1.13575.19531,1.64161.69336,1.72168a3.15227,3.15227,0,0,0,1.65234-.1621l.25782.51953a4.12778,4.12778,0,0,1-2.43555.77636,1.82223,1.82223,0,0,1-1.84766-2.01562c0-.62988.0625-2.1416.0625-3.40137v-2.87695c-.47851.00293-1.1289.01562-1.49023.043l-.10547-.14746a4.72371,4.72371,0,0,0,.46289-.86036,11.32041,11.32041,0,0,0,1.13281.041C600.28545,247.0392,600.32842,246.298,600.36944,245.5685Z" transform="translate(-3.79198 -8.96389)"/><path d="M609.0003,250.29311c.92382-1.5957,1.5332-2.24609,2.666-2.24609a1.85286,1.85286,0,0,1,.75586.14648l.084.084-.41993,1.55372-.168.042a1.56227,1.56227,0,0,0-1.0918-.29395,1.50689,1.50689,0,0,0-1.17578.73535,3.38661,3.38661,0,0,0-.71289,2.07813v1.0918a26.8573,26.8573,0,0,0,.18847,3.77929l-.042.0625a7.82168,7.82168,0,0,0-1.97363,0l-.042-.0625a25.49166,25.49166,0,0,0,.18945-3.77929v-1.1543a30.8579,30.8579,0,0,0-.18945-4.07422l.042-.0625a6.83646,6.83646,0,0,0,1.70019-.0625c.09961,0,.127.04785.127.209v1.91114Z" transform="translate(-3.79198 -8.96389)"/><path d="M619.31084,256.256a3.77169,3.77169,0,0,1-2.85547,1.21777c-1.55371,0-2.625-.71386-2.625-2.26757,0-1.42774,1.34375-2.56153,3.48633-3.04395l1.95215-.44141a.25544.25544,0,0,0,.14746-.252c0-2.373-1.25976-2.47754-2.01562-2.47754-1.00782,0-1.72266.83985-2.31055,1.78418l-.27246-.02051-.35645-1.40722.0625-.084a4.57,4.57,0,0,1,3.08594-1.21679c1.5957,0,3.46485.5664,3.46485,3.40039,0,.23144-.0586,2.5625-.0586,3.17089,0,.93458.13672,1.44239.35059,1.6377a1.02965,1.02965,0,0,0,.61523.15723,1.68679,1.68679,0,0,0,.56641-.10938l.15527.51856a2.22136,2.22136,0,0,1-1.6709.65136,1.60411,1.60411,0,0,1-1.63574-1.21777Zm-1.70117-3.2334c-1.63672.44043-2.07812,1.15528-2.07812,2.09961a1.41957,1.41957,0,0,0,1.55371,1.28027,3.54131,3.54131,0,0,0,1.93164-.81835.62849.62849,0,0,0,.29394-.5459l.084-2.499Z" transform="translate(-3.79198 -8.96389)"/><path d="M625.73662,243.65834a1.07081,1.07081,0,1,1-1.07031,1.07032A1.10379,1.10379,0,0,1,625.73662,243.65834ZM624.6878,248.256l.041-.0625a13.173,13.173,0,0,0,1.82715-.02148c.16406,0,.18848.02148.18848.21093a28.808,28.808,0,0,0-.18848,3.61133v1.49024a27.8876,27.8876,0,0,0,.18848,3.77929l-.041.0625a7.82942,7.82942,0,0,0-1.97461,0l-.041-.0625a27.55577,27.55577,0,0,0,.18847-3.77929v-1.1543A33.55168,33.55168,0,0,0,624.6878,248.256Z" transform="translate(-3.79198 -8.96389)"/><path d="M633.14971,254.40834a3.88862,3.88862,0,0,1-1.55371-.29394,1.40252,1.40252,0,0,0-.56641,1.17578c0,.90332.62891.9873,1.2168.9873.10547,0,.31543-.02148.60938-.043.48242-.0625,1.32226-.1045,1.67968-.1045a4.90958,4.90958,0,0,1,2.96094.69239,2.53139,2.53139,0,0,1,.88086,2.0791c0,1.96777-1.9502,3.33887-5.22754,3.33887-2.22559,0-4.03125-.72071-4.03125-2.37305a2.9608,2.9608,0,0,1,.4834-1.38574,8.139,8.139,0,0,1,1.78223-1.06446,1.77806,1.77806,0,0,1-1.63575-1.81152c0-.71484.73438-1.32324,1.34375-1.74316a2.82632,2.82632,0,0,1-1.49023-2.624,3.37261,3.37261,0,0,1,3.56836-3.1914,4.46111,4.46111,0,0,1,1.28711.17968c1.5664-.08105,2.30762-.30371,3.31152-.39062l.06348.06347a2.379,2.379,0,0,0,0,1.0918l-.06348.06348c-.86523-.08887-1.55957-.168-2.19238-.21875a2.67051,2.67051,0,0,1,1.05859,2.44336A3.20956,3.20956,0,0,1,633.14971,254.40834Zm.168,6.92871c1.80566,0,3.52734-.67187,3.52734-1.95214a1.68668,1.68668,0,0,0-.81933-1.51172,4.21,4.21,0,0,0-2.22461-.35742c-.29,0-1.25.0625-1.86914.0625a2.46242,2.46242,0,0,0-1.36524,1.86914C630.5667,260.87514,631.95342,261.337,633.31768,261.337Zm-.23145-12.49316c-1.21679,0-1.84765.90332-1.84765,2.28906,0,1.44922.46289,2.43555,1.97461,2.43555,1.25976,0,1.78418-.99316,1.78418-2.26758C634.99737,249.81069,634.45147,248.84389,633.08623,248.84389Z" transform="translate(-3.79198 -8.96389)"/><path d="M642.53643,249.93569a4.87649,4.87649,0,0,1,3.63184-1.88867c1.89062,0,2.60351,1.13281,2.60351,3.3164,0,.67188-.041,1.44922-.041,2.1211a25.3539,25.3539,0,0,0,.18847,3.77929l-.042.0625a7.82168,7.82168,0,0,0-1.97363,0l-.042-.0625a24.96923,24.96923,0,0,0,.18946-3.77929V251.4269c0-1.7002-.44141-2.12012-1.51172-2.12012a4.37652,4.37652,0,0,0-3.04492,1.7207v2.457a26.728,26.728,0,0,0,.18945,3.77929l-.043.0625a7.81395,7.81395,0,0,0-1.97265,0l-.043-.0625a25.92435,25.92435,0,0,0,.18945-3.77929V247.1642a28.0696,28.0696,0,0,0-.18945-4.07226l.043-.06348a5.41688,5.41688,0,0,0,1.82617-.41992c.13183,0,.18945.06348.18945.21-.10156,1.291-.18945,2.37305-.18945,3.92578v3.12891Z" transform="translate(-3.79198 -8.96389)"/><path d="M652.5335,245.5685l.041-.0625a5.046,5.046,0,0,0,1.4707-.52539c.13183,0,.18848.05762.18848.21094a29.17,29.17,0,0,0-.1045,3.06445h.98633c.48242,0,1.0918-.02637,1.46973-.041l.10449.14649a4.03508,4.03508,0,0,0-.25195.86133c-.27832-.02735-1.00782-.043-1.51172-.043h-.79688v2.64648c0,1.25977-.06347,2.16211-.06347,2.792,0,1.13575.19531,1.64161.69238,1.72168a3.15584,3.15584,0,0,0,1.65332-.1621l.25781.51953a4.12775,4.12775,0,0,1-2.43554.77636,1.82222,1.82222,0,0,1-1.84766-2.01562c0-.62988.06348-2.1416.06348-3.40137v-2.87695c-.4795.00293-1.12989.01562-1.49122.043l-.10449-.14746a4.71405,4.71405,0,0,0,.46094-.86036c.26074.03321.7041.03907,1.13477.041C652.44952,247.0392,652.49053,246.298,652.5335,245.5685Z" transform="translate(-3.79198 -8.96389)"/><path d="M666.24444,255.60561a4.56752,4.56752,0,0,1-3.65332,1.86816,4.27,4.27,0,0,1-3.33887-1.38574,4.97888,4.97888,0,0,1-.94434-3.21289c0-3.08594,2.14161-4.82812,4.30371-4.82812,2.77149,0,3.63282,2.2041,3.63282,3.96777a.33628.33628,0,0,1-.37793.35644h-5.71094a5.09286,5.09286,0,0,0,.50391,2.667,2.66283,2.66283,0,0,0,2.28808,1.19629,3.73666,3.73666,0,0,0,2.877-1.1543Zm-2.16211-4.07422a.25621.25621,0,0,0,.293-.293c0-1.57519-.9336-2.35156-1.76368-2.35156-.66113,0-2.03613.46094-2.39257,2.64453Z" transform="translate(-3.79198 -8.96389)"/><path d="M676.95342,257.26381l-.041.0625a7.82942,7.82942,0,0,0-1.97461,0l-.041-.0625a27.52085,27.52085,0,0,0,.18848-3.77929V251.4269c0-1.7002-.44043-2.12012-1.51172-2.12012a4.3573,4.3573,0,0,0-3.04395,1.7207v2.457a25.32451,25.32451,0,0,0,.18848,3.77929l-.042.0625a7.82168,7.82168,0,0,0-1.97363,0l-.042-.0625a24.99824,24.99824,0,0,0,.18946-3.77929v-1.1543a30.8559,30.8559,0,0,0-.18946-4.07422l.042-.0625a6.83646,6.83646,0,0,0,1.70019-.0625c.09961,0,.12207.04785.12695.209v1.53321l.041.0625a4.87666,4.87666,0,0,1,3.63281-1.88867c1.88965,0,2.60352,1.13281,2.60352,3.3164,0,.67188-.042,1.44922-.042,2.1211A25.99946,25.99946,0,0,0,676.95342,257.26381Z" transform="translate(-3.79198 -8.96389)"/><path d="M681.17608,243.65834a1.07081,1.07081,0,1,1-1.07031,1.07032A1.1038,1.1038,0,0,1,681.17608,243.65834Zm-1.04883,4.59766.041-.0625a13.17281,13.17281,0,0,0,1.82714-.02148c.16407,0,.18848.02148.18848.21093a28.808,28.808,0,0,0-.18848,3.61133v1.49024a27.8876,27.8876,0,0,0,.18848,3.77929l-.041.0625a7.82934,7.82934,0,0,0-1.9746,0l-.041-.0625a27.5556,27.5556,0,0,0,.18848-3.77929v-1.1543A33.5493,33.5493,0,0,0,680.12725,248.256Z" transform="translate(-3.79198 -8.96389)"/><path d="M693.73272,257.26381l-.041.0625a7.82942,7.82942,0,0,0-1.97461,0l-.041-.0625a27.521,27.521,0,0,0,.18847-3.77929V251.4269c0-1.7002-.44043-2.12012-1.51171-2.12012a4.35729,4.35729,0,0,0-3.04395,1.7207v2.457a25.32451,25.32451,0,0,0,.18848,3.77929l-.042.0625a7.82168,7.82168,0,0,0-1.97363,0l-.042-.0625a24.99839,24.99839,0,0,0,.18945-3.77929v-1.1543a30.8579,30.8579,0,0,0-.18945-4.07422l.042-.0625a6.83654,6.83654,0,0,0,1.7002-.0625c.09961,0,.12207.04785.12695.209v1.53321l.041.0625a4.87666,4.87666,0,0,1,3.63281-1.88867c1.88965,0,2.60351,1.13281,2.60351,3.3164,0,.67188-.042,1.44922-.042,2.1211A25.9979,25.9979,0,0,0,693.73272,257.26381Z" transform="translate(-3.79198 -8.96389)"/><path d="M699.90752,254.40834a3.88865,3.88865,0,0,1-1.55371-.29394,1.40251,1.40251,0,0,0-.5664,1.17578c0,.90332.6289.9873,1.21679.9873.10547,0,.31543-.02148.60938-.043.48242-.0625,1.32226-.1045,1.67969-.1045a4.90955,4.90955,0,0,1,2.96093.69239,2.53139,2.53139,0,0,1,.88086,2.0791c0,1.96777-1.95019,3.33887-5.22754,3.33887-2.22558,0-4.03125-.72071-4.03125-2.37305a2.96091,2.96091,0,0,1,.4834-1.38574,8.139,8.139,0,0,1,1.78223-1.06446,1.77805,1.77805,0,0,1-1.63574-1.81152c0-.71484.73437-1.32324,1.34375-1.74316a2.82633,2.82633,0,0,1-1.49024-2.624,3.37261,3.37261,0,0,1,3.56836-3.1914,4.46111,4.46111,0,0,1,1.28711.17968c1.56641-.08105,2.30762-.30371,3.31152-.39062l.06348.06347a2.379,2.379,0,0,0,0,1.0918l-.06348.06348c-.86523-.08887-1.55957-.168-2.19238-.21875a2.67051,2.67051,0,0,1,1.05859,2.44336A3.20955,3.20955,0,0,1,699.90752,254.40834Zm.168,6.92871c1.80567,0,3.52735-.67187,3.52735-1.95214a1.68669,1.68669,0,0,0-.81934-1.51172,4.21,4.21,0,0,0-2.22461-.35742c-.29,0-1.25.0625-1.86914.0625a2.46241,2.46241,0,0,0-1.36523,1.86914C697.32452,260.87514,698.71123,261.337,700.07549,261.337Zm-.23144-12.49316c-1.2168,0-1.84766.90332-1.84766,2.28906,0,1.44922.46289,2.43555,1.97461,2.43555,1.25977,0,1.78418-.99316,1.78418-2.26758C701.75518,249.81069,701.20928,248.84389,699.84405,248.84389Z" transform="translate(-3.79198 -8.96389)"/><path d="M509.31475,267.61928l.48242.37891a13.24208,13.24208,0,0,0-3.1914,9.1748,13.39571,13.39571,0,0,0,3.1914,9.21778l-.48242.35644a12.50034,12.50034,0,0,1,0-19.12793Z" transform="translate(-3.79198 -8.96389)"/><path d="M513.80889,275.4933c.92383-1.5957,1.5332-2.24707,2.666-2.24707a1.86994,1.86994,0,0,1,.75586.14747l.084.084-.41992,1.55371-.168.042a1.56231,1.56231,0,0,0-1.0918-.29394,1.50811,1.50811,0,0,0-1.17578.73437,3.3915,3.3915,0,0,0-.71289,2.0791v1.0918a26.84767,26.84767,0,0,0,.18848,3.7793l-.042.06347a7.7031,7.7031,0,0,0-1.97363,0l-.042-.06347a25.48417,25.48417,0,0,0,.18945-3.7793v-1.15527a30.82559,30.82559,0,0,0-.18945-4.07227l.042-.06347a6.79027,6.79027,0,0,0,1.7002-.06348c.09961,0,.12695.04883.12695.21094v1.91015Z" transform="translate(-3.79198 -8.96389)"/><path d="M526.17705,280.80483a4.56838,4.56838,0,0,1-3.65332,1.86914,4.2664,4.2664,0,0,1-3.33789-1.38574,4.97282,4.97282,0,0,1-.94531-3.21192c0-3.08691,2.1416-4.83008,4.30469-4.83008,2.77148,0,3.63183,2.20508,3.63183,3.96875a.3379.3379,0,0,1-.37793.35743h-5.71093a5.0911,5.0911,0,0,0,.5039,2.666,2.66442,2.66442,0,0,0,2.28907,1.19727,3.73805,3.73805,0,0,0,2.876-1.15528Zm-2.16308-4.07227a.2578.2578,0,0,0,.29492-.29492c0-1.57422-.93457-2.35156-1.76367-2.35156-.66211,0-2.03711.46289-2.39453,2.64648Z" transform="translate(-3.79198 -8.96389)"/><path d="M531.74248,279.60854a3.9019,3.9019,0,0,1-1.55371-.29395,1.40259,1.40259,0,0,0-.56738,1.17579c0,.90234.63086.98632,1.21875.98632.10449,0,.31445-.0205.6084-.041.4834-.06348,1.32324-.10547,1.67969-.10547a4.9048,4.9048,0,0,1,2.96.69336,2.52935,2.52935,0,0,1,.88281,2.07812c0,1.96778-1.95117,3.33789-5.22852,3.33789-2.22558,0-4.03125-.71972-4.03125-2.37207a2.96617,2.96617,0,0,1,.48243-1.38574,8.16791,8.16791,0,0,1,1.7832-1.06445,1.7783,1.7783,0,0,1-1.63574-1.8125c0-.71289.73535-1.32227,1.34375-1.74219a2.8273,2.8273,0,0,1-1.49121-2.625,3.37442,3.37442,0,0,1,3.57031-3.19141,4.4582,4.4582,0,0,1,1.28613.18067c1.56641-.08106,2.30762-.30371,3.31152-.38965l.0625.0625a2.4153,2.4153,0,0,0,0,1.0918l-.0625.0625c-.86523-.08789-1.55957-.168-2.19238-.21778a2.67347,2.67347,0,0,1,1.0586,2.44434A3.20941,3.20941,0,0,1,531.74248,279.60854Zm.168,6.92871c1.80567,0,3.52735-.67187,3.52735-1.95312a1.6908,1.6908,0,0,0-.81836-1.51172,4.23027,4.23027,0,0,0-2.22657-.35645c-.28906,0-1.249.06348-1.86816.06348a2.45583,2.45583,0,0,0-1.36426,1.86816C529.16045,286.07534,530.54522,286.53725,531.91045,286.53725ZM531.68,274.04506c-1.21875,0-1.84765.90235-1.84765,2.28809,0,1.44824.46094,2.43555,1.97265,2.43555,1.25977,0,1.78516-.99317,1.78516-2.26758C533.59014,275.00991,533.04424,274.04506,531.68,274.04506Z" transform="translate(-3.79198 -8.96389)"/><path d="M540.26787,268.85854a1.0708,1.0708,0,1,1-1.07031,1.07129A1.104,1.104,0,0,1,540.26787,268.85854Zm-1.04882,4.59863.041-.06347a13.32254,13.32254,0,0,0,1.82715-.02051c.16406,0,.18848.02051.18848.209a28.82866,28.82866,0,0,0-.18848,3.61133v1.49121a27.88776,27.88776,0,0,0,.18848,3.7793l-.041.06347a7.71073,7.71073,0,0,0-1.97461,0l-.041-.06347a27.54712,27.54712,0,0,0,.18847-3.7793v-1.15527A33.51626,33.51626,0,0,0,539.21905,273.45717Z" transform="translate(-3.79198 -8.96389)"/><path d="M548.31084,273.24623c2.834,0,4.36719,1.86915,4.36719,4.72461,0,2.75-1.67969,4.70313-4.45117,4.70313a4.26837,4.26837,0,0,1-4.45117-4.51367C543.77569,275.17788,545.56084,273.24623,548.31084,273.24623Zm-2.6875,4.55665c0,1.61718.56641,4.03125,2.793,4.03125,1.40625,0,2.41406-1.48829,2.41406-3.48536,0-2.54-.4414-4.26269-2.666-4.26269C546.18975,274.08608,545.62334,275.9767,545.62334,277.80288Z" transform="translate(-3.79198 -8.96389)"/><path d="M563.32452,282.464l-.041.06347a7.71073,7.71073,0,0,0-1.97461,0l-.041-.06347a27.51062,27.51062,0,0,0,.18848-3.7793v-2.05762c0-1.70117-.44043-2.12109-1.51172-2.12109a4.36131,4.36131,0,0,0-3.04394,1.72266v2.45605a25.31887,25.31887,0,0,0,.18847,3.7793l-.042.06347a7.7031,7.7031,0,0,0-1.97363,0l-.042-.06347a24.99118,24.99118,0,0,0,.18945-3.7793v-1.15527a30.82559,30.82559,0,0,0-.18945-4.07227l.042-.06347a6.79019,6.79019,0,0,0,1.70019-.06348c.09961,0,.12207.04883.127.21094v1.53222l.041.06348a4.8771,4.8771,0,0,1,3.63282-1.89063c1.88964,0,2.60351,1.13477,2.60351,3.31836,0,.67188-.042,1.44825-.042,2.12012A25.99042,25.99042,0,0,0,563.32452,282.464Z" transform="translate(-3.79198 -8.96389)"/><path d="M566.16241,280.32241a3.23038,3.23038,0,0,0,2.47656,1.51172,1.7293,1.7293,0,0,0,1.93164-1.74219c0-1.0293-.90234-1.36524-2.12012-1.70117-1.26562-.34864-2.51953-.90235-2.51953-2.582,0-1.74316,1.61621-2.5625,3.1709-2.5625a6.8971,6.8971,0,0,1,2.834.63086l.042.0625-.41993,1.55371-.29394.02051a3.075,3.075,0,0,0-2.2461-1.42773c-.90332,0-1.5957.46289-1.5957,1.32324,0,1.04981,1.1582,1.44629,1.95215,1.6377,1.49121.35742,2.85547,1.02929,2.85547,2.75,0,1.15527-.67188,2.877-3.56934,2.877a10.01575,10.01575,0,0,1-3.16992-.56641l.35645-1.76367Z" transform="translate(-3.79198 -8.96389)"/><path d="M584.78741,281.4562a3.77527,3.77527,0,0,1-2.85547,1.21777c-1.55371,0-2.625-.71387-2.625-2.26758,0-1.42773,1.34375-2.56152,3.48633-3.04492l1.95214-.44043a.2534.2534,0,0,0,.14746-.252c0-2.37207-1.25976-2.47754-2.01562-2.47754-1.00781,0-1.72266.83984-2.31055,1.78515l-.27246-.02148-.35644-1.40625.0625-.084a4.56508,4.56508,0,0,1,3.08593-1.21875c1.59571,0,3.46485.56739,3.46485,3.40235,0,.23047-.0586,2.56055-.0586,3.16992,0,.93457.13672,1.44238.35059,1.6377a1.02974,1.02974,0,0,0,.61523.15722,1.6867,1.6867,0,0,0,.56641-.10937l.15527.51953a2.224,2.224,0,0,1-1.67089.65039,1.60412,1.60412,0,0,1-1.63575-1.21777Zm-1.70118-3.2334c-1.63671.4414-2.07812,1.15429-2.07812,2.09961a1.42089,1.42089,0,0,0,1.55371,1.28125,3.55024,3.55024,0,0,0,1.93164-.81934.62727.62727,0,0,0,.29395-.5459l.084-2.498Z" transform="translate(-3.79198 -8.96389)"/><path d="M592.03252,275.4933c.92383-1.5957,1.53223-2.24707,2.667-2.24707a1.87952,1.87952,0,0,1,.75585.14747l.084.084-.41992,1.55371-.168.042a1.56371,1.56371,0,0,0-1.0918-.29394,1.50523,1.50523,0,0,0-1.17578.73437,3.38716,3.38716,0,0,0-.71484,2.0791v1.0918a26.83325,26.83325,0,0,0,.18945,3.7793l-.042.06347a7.70318,7.70318,0,0,0-1.97364,0l-.042-.06347a25.49737,25.49737,0,0,0,.18848-3.7793v-1.15527a30.68288,30.68288,0,0,0-.18848-4.07227l.042-.06347a6.79977,6.79977,0,0,0,1.70118-.06348c.09863,0,.125.04883.125.21094v1.91015Z" transform="translate(-3.79198 -8.96389)"/><path d="M604.40069,280.80483a4.56838,4.56838,0,0,1-3.65332,1.86914,4.27,4.27,0,0,1-3.33887-1.38574,4.97787,4.97787,0,0,1-.94434-3.21192c0-3.08691,2.14161-4.83008,4.30371-4.83008,2.77149,0,3.63282,2.20508,3.63282,3.96875a.33745.33745,0,0,1-.37793.35743h-5.71094a5.09109,5.09109,0,0,0,.50391,2.666,2.66392,2.66392,0,0,0,2.28808,1.19727,3.73737,3.73737,0,0,0,2.877-1.15528Zm-2.16211-4.07227a.2572.2572,0,0,0,.293-.29492c0-1.57422-.9336-2.35156-1.76368-2.35156-.66113,0-2.03613.46289-2.39257,2.64648Z" transform="translate(-3.79198 -8.96389)"/><path d="M613.95635,275.13686a3.476,3.476,0,0,1,2.835-1.89063c2.35156,0,3.65235,2.14258,3.65235,4.36719,0,2.959-1.67969,5.06055-4.45118,5.06055a4.59466,4.59466,0,0,1-2.07812-.46192v.92383a34.83748,34.83748,0,0,0,.18945,4.19922l-.043.06348a7.69429,7.69429,0,0,0-1.97265,0l-.043-.06348a34.31492,34.31492,0,0,0,.18945-4.19922v-5.60644a30.65674,30.65674,0,0,0-.18945-4.07227l.043-.06347a6.7919,6.7919,0,0,0,1.70019-.06348c.09864,0,.126.04883.126.21094v1.53222Zm-.042,5.75195a2.56807,2.56807,0,0,0,1.95312.94532c2.2461,0,2.72852-2.22559,2.72852-3.94727,0-2.37305-.73438-3.67383-2.16211-3.67383a3.45,3.45,0,0,0-2.51953,2.07813Z" transform="translate(-3.79198 -8.96389)"/><path d="M625.06573,275.4933c.92382-1.5957,1.53222-2.24707,2.667-2.24707a1.87957,1.87957,0,0,1,.75586.14747l.084.084-.41992,1.55371-.168.042a1.5637,1.5637,0,0,0-1.0918-.29394,1.50523,1.50523,0,0,0-1.17578.73437,3.38722,3.38722,0,0,0-.71484,2.0791v1.0918a26.83476,26.83476,0,0,0,.18945,3.7793l-.042.06347a7.7031,7.7031,0,0,0-1.97363,0l-.042-.06347a25.49889,25.49889,0,0,0,.18847-3.7793v-1.15527a30.68315,30.68315,0,0,0-.18847-4.07227l.042-.06347a6.79971,6.79971,0,0,0,1.70117-.06348c.09863,0,.125.04883.125.21094v1.91015Z" transform="translate(-3.79198 -8.96389)"/><path d="M637.43291,280.80483a4.56838,4.56838,0,0,1-3.65332,1.86914,4.26639,4.26639,0,0,1-3.33789-1.38574,4.97282,4.97282,0,0,1-.94531-3.21192c0-3.08691,2.1416-4.83008,4.30469-4.83008,2.77148,0,3.63183,2.20508,3.63183,3.96875a.3379.3379,0,0,1-.37793.35743h-5.71093a5.0911,5.0911,0,0,0,.5039,2.666,2.66442,2.66442,0,0,0,2.28907,1.19727,3.73805,3.73805,0,0,0,2.876-1.15528Zm-2.16308-4.07227a.2578.2578,0,0,0,.29492-.29492c0-1.57422-.93457-2.35156-1.76367-2.35156-.66211,0-2.03711.46289-2.39453,2.64648Z" transform="translate(-3.79198 -8.96389)"/><path d="M639.66045,280.32241a3.23384,3.23384,0,0,0,2.47852,1.51172,1.72979,1.72979,0,0,0,1.93164-1.74219c0-1.0293-.90332-1.36524-2.12109-1.70117-1.26563-.34864-2.51954-.90235-2.51954-2.582,0-1.74316,1.61719-2.5625,3.16993-2.5625a6.89444,6.89444,0,0,1,2.835.63086l.042.0625-.41992,1.55371-.294.02051a3.07886,3.07886,0,0,0-2.24707-1.42773c-.90234,0-1.5957.46289-1.5957,1.32324,0,1.04981,1.15918,1.44629,1.95312,1.6377,1.49024.35742,2.85547,1.02929,2.85547,2.75,0,1.15527-.67187,2.877-3.56933,2.877a10.02546,10.02546,0,0,1-3.1709-.56641l.35742-1.76367Z" transform="translate(-3.79198 -8.96389)"/><path d="M655.262,280.80483a4.56841,4.56841,0,0,1-3.65332,1.86914,4.27,4.27,0,0,1-3.33887-1.38574,4.97787,4.97787,0,0,1-.94434-3.21192c0-3.08691,2.1416-4.83008,4.30371-4.83008,2.77149,0,3.63282,2.20508,3.63282,3.96875a.33745.33745,0,0,1-.37793.35743h-5.71094a5.0911,5.0911,0,0,0,.5039,2.666,2.664,2.664,0,0,0,2.28809,1.19727,3.73735,3.73735,0,0,0,2.87695-1.15528Zm-2.16211-4.07227a.25719.25719,0,0,0,.293-.29492c0-1.57422-.93359-2.35156-1.76367-2.35156-.66113,0-2.03613.46289-2.39258,2.64648Z" transform="translate(-3.79198 -8.96389)"/><path d="M659.69366,275.4933c.92382-1.5957,1.5332-2.24707,2.666-2.24707a1.86987,1.86987,0,0,1,.75586.14747l.084.084-.41993,1.55371-.168.042a1.56228,1.56228,0,0,0-1.09179-.29394,1.5081,1.5081,0,0,0-1.17578.73437,3.39144,3.39144,0,0,0-.71289,2.0791v1.0918a26.84933,26.84933,0,0,0,.18847,3.7793l-.042.06347a7.7031,7.7031,0,0,0-1.97363,0l-.042-.06347a25.48417,25.48417,0,0,0,.18945-3.7793v-1.15527a30.82559,30.82559,0,0,0-.18945-4.07227l.042-.06347a6.79019,6.79019,0,0,0,1.70019-.06348c.09961,0,.127.04883.127.21094v1.91015Z" transform="translate(-3.79198 -8.96389)"/><path d="M664.31377,273.3937a7.832,7.832,0,0,0,1.21778.06347,5.71423,5.71423,0,0,0,1.0498-.06347,69.98666,69.98666,0,0,0,2.49414,7.17871h.042c.96387-2.05762,1.69434-4.80371,2.54493-7.17871a2.644,2.644,0,0,0,.71386.06347,3.30181,3.30181,0,0,0,.79785-.06347c-1.36523,3.08691-2.666,6.06738-3.75781,9.13378a2.06366,2.06366,0,0,0-.63086-.06347,2.26845,2.26845,0,0,0-.65039.06347C666.95928,279.46108,665.721,276.48061,664.31377,273.3937Z" transform="translate(-3.79198 -8.96389)"/><path d="M682.07842,280.80483a4.56838,4.56838,0,0,1-3.65332,1.86914,4.27,4.27,0,0,1-3.33887-1.38574,4.97792,4.97792,0,0,1-.94433-3.21192c0-3.08691,2.1416-4.83008,4.30371-4.83008,2.77148,0,3.63281,2.20508,3.63281,3.96875a.33745.33745,0,0,1-.37793.35743h-5.71094a5.09109,5.09109,0,0,0,.50391,2.666,2.66394,2.66394,0,0,0,2.28809,1.19727,3.73737,3.73737,0,0,0,2.87695-1.15528Zm-2.16211-4.07227a.25719.25719,0,0,0,.293-.29492c0-1.57422-.93359-2.35156-1.76367-2.35156-.66113,0-2.03613.46289-2.39258,2.64648Z" transform="translate(-3.79198 -8.96389)"/><path d="M687.9583,282.674c-2.26757,0-3.7998-2.09961-3.7998-4.68164a4.5391,4.5391,0,0,1,4.74414-4.7461,4.49193,4.49193,0,0,1,1.76367.4629v-1.36524a27.80646,27.80646,0,0,0-.18847-4.05273l.042-.0625a5.38143,5.38143,0,0,0,1.82617-.41993c.13281,0,.18945.0625.18945.21-.10547,1.29589-.18945,2.39355-.18945,3.94726v6.4668a23.77757,23.77757,0,0,0,.35742,4.03125l-.042.06347a6.91669,6.91669,0,0,0-.93457-.06347,4.62066,4.62066,0,0,0-.72461.06347c-.125,0-.18848-.02148-.18848-.06347l-.10449-1.21778h-.043A3.358,3.358,0,0,1,687.9583,282.674Zm2.708-7.36914a2.126,2.126,0,0,0-1.99414-1.21875c-1.0166,0-2.6875.58789-2.6875,3.73828,0,2.624.96582,3.75781,2.09961,3.75781a3.472,3.472,0,0,0,2.582-1.49023Z" transform="translate(-3.79198 -8.96389)"/><path d="M695.1419,286.7267l-.4834-.3789a13.2421,13.2421,0,0,0,3.19141-9.17481,13.39067,13.39067,0,0,0-3.19141-9.21777l.4834-.35645a12.50034,12.50034,0,0,1,0,19.12793Z" transform="translate(-3.79198 -8.96389)"/></svg>