<svg id="Layer_1" data-name="Layer 1" xmlns="http://www.w3.org/2000/svg" xmlns:xlink="http://www.w3.org/1999/xlink" width="239.05095" height="62.99768" viewBox="0 0 239.05095 62.99768"><defs><style>.cls-1,.cls-10,.cls-16,.cls-17,.cls-3,.cls-5,.cls-7,.cls-8,.cls-9{fill:none;}.cls-2{fill:#ffe8cd;}.cls-10,.cls-16,.cls-17,.cls-3,.cls-5{stroke:#000;}.cls-10,.cls-16,.cls-17,.cls-3,.cls-5,.cls-7,.cls-8,.cls-9{stroke-miterlimit:10;}.cls-3,.cls-5,.cls-8,.cls-9{stroke-width:0.5px;}.cls-3{opacity:0.4;}.cls-4{fill:#99cfec;}.cls-6{clip-path:url(#clip-path);}.cls-7,.cls-8,.cls-9{stroke:red;}.cls-7{stroke-width:1.2812px;}.cls-9{stroke-dasharray:1.53022 1.53022;}.cls-10{stroke-width:0.7px;}.cls-11{clip-path:url(#clip-path-2);}.cls-12{clip-path:url(#clip-path-3);}.cls-13{clip-path:url(#clip-path-4);}.cls-14{clip-path:url(#clip-path-5);}.cls-15{fill:red;}.cls-16{stroke-width:0px;}.cls-16,.cls-17{opacity:0;}.cls-17{stroke-width:0px;}</style><clipPath id="clip-path" transform="translate(-0.35104 1.41185)"><rect class="cls-1" x="0.70104" y="0.58213" width="44.83171" height="59.09436"/></clipPath><clipPath id="clip-path-2" transform="translate(-0.35104 1.41185)"><rect class="cls-1" x="49.08085" y="0.58213" width="44.83171" height="59.09436"/></clipPath><clipPath id="clip-path-3" transform="translate(-0.35104 1.41185)"><rect class="cls-1" x="97.46066" y="0.58213" width="44.83171" height="59.09436"/></clipPath><clipPath id="clip-path-4" transform="translate(-0.35104 1.41185)"><rect class="cls-1" x="145.84047" y="0.58213" width="44.83171" height="59.09436"/></clipPath><clipPath id="clip-path-5" transform="translate(-0.35104 1.41185)"><rect class="cls-1" x="194.22028" y="0.58213" width="44.83171" height="59.09436"/></clipPath></defs><rect class="cls-2" x="0.35" y="1.99398" width="44.83171" height="59.09436"/><line class="cls-3" x1="14.30459" y1="6.84023" x2="11.21661" y2="1.99398"/><line class="cls-3" x1="12.19409" y1="56.02551" x2="2.83742" y2="61.08834"/><polygon class="cls-4" points="39.6 30.031 14.305 6.84 10.55 12.767 20.68 22.78 5.325 31.833 20.117 36.86 5.789 51.06 12.194 56.026 39.6 30.031"/><line class="cls-3" x1="14.30459" y1="6.84023" x2="39.60013" y2="30.03133"/><line class="cls-3" x1="12.19409" y1="56.02551" x2="39.60013" y2="30.03133"/><line class="cls-3" x1="5.78867" y1="51.06047" x2="39.60013" y2="30.03133"/><line class="cls-3" x1="5.32485" y1="31.83295" x2="39.60013" y2="30.03133"/><line class="cls-5" x1="10.54955" y1="12.76737" x2="39.60013" y2="30.03133"/><line class="cls-3" x1="20.67985" y1="22.77979" x2="39.60013" y2="30.03133"/><line class="cls-3" x1="20.11684" y1="36.85999" x2="39.60013" y2="30.03133"/><line class="cls-3" x1="10.54955" y1="12.76737" x2="5.32485" y2="31.83295"/><line class="cls-3" x1="5.32485" y1="31.83295" x2="5.78867" y2="51.06047"/><g class="cls-6"><polyline class="cls-7" points="10.165 0.344 14.305 6.84 39.6 30.031 12.194 56.026 0.35 62.434"/><line class="cls-8" x1="14.30459" y1="6.84023" x2="14.58311" y2="7.5366"/><polyline class="cls-9" points="15.151 8.957 20.68 22.78 20.117 36.86 12.773 54.625"/><line class="cls-8" x1="12.48061" y1="55.3324" x2="12.19409" y2="56.02551"/></g><line class="cls-3" x1="10.54955" y1="12.76737" x2="0.35" y2="5.13402"/><line class="cls-3" x1="14.30459" y1="6.84023" x2="30.33596" y2="1.99398"/><line class="cls-3" x1="39.60013" y1="30.03133" x2="45.18171" y2="12.87979"/><line class="cls-3" x1="39.60013" y1="30.03133" x2="45.18171" y2="48.18089"/><line class="cls-3" x1="39.60013" y1="30.03133" x2="45.18171" y2="29.30259"/><line class="cls-3" x1="12.19409" y1="56.02551" x2="28.49758" y2="61.08834"/><line class="cls-3" x1="12.19409" y1="56.02551" x2="12.44283" y2="61.08834"/><line class="cls-3" x1="5.78867" y1="51.06047" x2="0.35" y2="59.20668"/><line class="cls-3" x1="5.78867" y1="51.06047" x2="0.35" y2="48.85678"/><line class="cls-3" x1="5.32485" y1="31.83295" x2="0.35" y2="34.88252"/><line class="cls-3" x1="5.32485" y1="31.83295" x2="0.35" y2="29.30259"/><line class="cls-3" x1="10.54955" y1="12.76737" x2="0.35" y2="15.01611"/><line class="cls-3" x1="14.30459" y1="6.84023" x2="3.06934" y2="1.99398"/><line class="cls-3" x1="5.32485" y1="31.83295" x2="20.11684" y2="36.85999"/><line class="cls-3" x1="20.67985" y1="22.77979" x2="10.54955" y2="12.76737"/><line class="cls-3" x1="5.32485" y1="31.83295" x2="20.67985" y2="22.77979"/><line class="cls-3" x1="14.30459" y1="6.84023" x2="10.54955" y2="12.76737"/><line class="cls-3" x1="20.11684" y1="36.85999" x2="5.78867" y2="51.06047"/><line class="cls-3" x1="12.19409" y1="56.02551" x2="5.78867" y2="51.06047"/><rect class="cls-10" x="0.35" y="1.99398" width="44.83171" height="59.09436"/><circle cx="39.60013" cy="30.03133" r="1.22622"/><circle cx="10.54955" cy="12.76737" r="1.22622"/><circle cx="20.67985" cy="22.77979" r="1.22622"/><circle cx="5.32485" cy="31.83295" r="1.22622"/><circle cx="20.11684" cy="36.85999" r="1.22622"/><circle cx="5.78867" cy="51.06047" r="1.22622"/><circle cx="12.19409" cy="56.02551" r="1.22622"/><circle cx="14.30459" cy="6.84023" r="1.22622"/><rect class="cls-2" x="48.72981" y="1.99398" width="44.83171" height="59.09436"/><line class="cls-3" x1="62.6844" y1="6.84023" x2="59.59642" y2="1.99398"/><line class="cls-3" x1="60.5739" y1="56.02551" x2="51.21724" y2="61.08834"/><polygon class="cls-4" points="87.98 30.031 62.684 6.84 69.06 22.78 53.705 31.833 68.497 36.86 54.168 51.06 60.574 56.026 87.98 30.031"/><line class="cls-3" x1="62.6844" y1="6.84023" x2="87.97994" y2="30.03133"/><line class="cls-3" x1="60.5739" y1="56.02551" x2="87.97994" y2="30.03133"/><line class="cls-3" x1="54.16848" y1="51.06047" x2="87.97994" y2="30.03133"/><line class="cls-5" x1="53.70466" y1="31.83295" x2="87.97994" y2="30.03133"/><line class="cls-3" x1="62.6844" y1="6.84023" x2="69.05966" y2="22.77979"/><line class="cls-3" x1="69.05966" y1="22.77979" x2="87.97994" y2="30.03133"/><line class="cls-3" x1="68.49665" y1="36.85999" x2="87.97994" y2="30.03133"/><line class="cls-3" x1="58.92936" y1="12.76737" x2="53.70466" y2="31.83295"/><line class="cls-3" x1="53.70466" y1="31.83295" x2="54.16848" y2="51.06047"/><g class="cls-11"><polyline class="cls-7" points="58.545 0.344 62.684 6.84 87.98 30.031 60.574 56.026 48.73 62.434"/></g><line class="cls-3" x1="58.92936" y1="12.76737" x2="48.72981" y2="5.13402"/><line class="cls-3" x1="62.6844" y1="6.84023" x2="78.71577" y2="1.99398"/><line class="cls-3" x1="87.97994" y1="30.03133" x2="93.56152" y2="12.87979"/><line class="cls-3" x1="87.97994" y1="30.03133" x2="93.56152" y2="48.18089"/><line class="cls-3" x1="87.97994" y1="30.03133" x2="93.56152" y2="29.30259"/><line class="cls-3" x1="60.5739" y1="56.02551" x2="76.87739" y2="61.08834"/><line class="cls-3" x1="60.5739" y1="56.02551" x2="60.82264" y2="61.08834"/><line class="cls-3" x1="54.16848" y1="51.06047" x2="48.72981" y2="59.20668"/><line class="cls-3" x1="54.16848" y1="51.06047" x2="48.72981" y2="48.85678"/><line class="cls-3" x1="53.70466" y1="31.83295" x2="48.72981" y2="34.88252"/><line class="cls-3" x1="53.70466" y1="31.83295" x2="48.72981" y2="29.30259"/><line class="cls-3" x1="58.92936" y1="12.76737" x2="48.72981" y2="15.01611"/><line class="cls-3" x1="62.6844" y1="6.84023" x2="51.44915" y2="1.99398"/><line class="cls-3" x1="53.70466" y1="31.83295" x2="68.49665" y2="36.85999"/><line class="cls-3" x1="69.05966" y1="22.77979" x2="58.92936" y2="12.76737"/><line class="cls-3" x1="53.70466" y1="31.83295" x2="69.05966" y2="22.77979"/><line class="cls-3" x1="62.6844" y1="6.84023" x2="58.92936" y2="12.76737"/><line class="cls-3" x1="68.49665" y1="36.85999" x2="54.16848" y2="51.06047"/><line class="cls-3" x1="60.5739" y1="56.02551" x2="54.16848" y2="51.06047"/><rect class="cls-10" x="48.72981" y="1.99398" width="44.83171" height="59.09436"/><circle cx="87.97994" cy="30.03133" r="1.22622"/><circle cx="58.92936" cy="12.76737" r="1.22622"/><circle cx="69.05966" cy="22.77979" r="1.22622"/><circle cx="53.70466" cy="31.83295" r="1.22622"/><circle cx="68.49665" cy="36.85999" r="1.22622"/><circle cx="54.16848" cy="51.06047" r="1.22622"/><circle cx="60.5739" cy="56.02551" r="1.22622"/><circle cx="62.6844" cy="6.84023" r="1.22622"/><rect class="cls-2" x="97.10962" y="1.99398" width="44.83171" height="59.09436"/><line class="cls-3" x1="111.06421" y1="6.84023" x2="107.97623" y2="1.99398"/><line class="cls-3" x1="108.95371" y1="56.02551" x2="99.59705" y2="61.08834"/><polygon class="cls-4" points="136.36 30.031 111.064 6.84 117.439 22.78 116.876 36.86 102.548 51.06 108.954 56.026 136.36 30.031"/><line class="cls-3" x1="111.06421" y1="6.84023" x2="136.35975" y2="30.03133"/><line class="cls-3" x1="108.95371" y1="56.02551" x2="136.35975" y2="30.03133"/><line class="cls-5" x1="102.54829" y1="51.06047" x2="136.35975" y2="30.03133"/><line class="cls-3" x1="117.43947" y1="22.77979" x2="116.87646" y2="36.85999"/><line class="cls-3" x1="111.06421" y1="6.84023" x2="117.43947" y2="22.77979"/><line class="cls-3" x1="117.43947" y1="22.77979" x2="136.35975" y2="30.03133"/><line class="cls-3" x1="116.87646" y1="36.85999" x2="136.35975" y2="30.03133"/><line class="cls-3" x1="107.30917" y1="12.76737" x2="102.08447" y2="31.83295"/><line class="cls-3" x1="102.08447" y1="31.83295" x2="102.54829" y2="51.06047"/><g class="cls-12"><polyline class="cls-7" points="106.925 0.344 111.064 6.84 136.36 30.031 108.954 56.026 97.11 62.434"/></g><line class="cls-3" x1="107.30917" y1="12.76737" x2="97.10962" y2="5.13402"/><line class="cls-3" x1="111.06421" y1="6.84023" x2="127.09558" y2="1.99398"/><line class="cls-3" x1="136.35975" y1="30.03133" x2="141.94133" y2="12.87979"/><line class="cls-3" x1="136.35975" y1="30.03133" x2="141.94133" y2="48.18089"/><line class="cls-3" x1="136.35975" y1="30.03133" x2="141.94133" y2="29.30259"/><line class="cls-3" x1="108.95371" y1="56.02551" x2="125.2572" y2="61.08834"/><line class="cls-3" x1="108.95371" y1="56.02551" x2="109.20246" y2="61.08834"/><line class="cls-3" x1="102.54829" y1="51.06047" x2="97.10962" y2="59.20668"/><line class="cls-3" x1="102.54829" y1="51.06047" x2="97.10962" y2="48.85678"/><line class="cls-3" x1="102.08447" y1="31.83295" x2="97.10962" y2="34.88252"/><line class="cls-3" x1="102.08447" y1="31.83295" x2="97.10962" y2="29.30259"/><line class="cls-3" x1="107.30917" y1="12.76737" x2="97.10962" y2="15.01611"/><line class="cls-3" x1="111.06421" y1="6.84023" x2="99.82896" y2="1.99398"/><line class="cls-3" x1="102.08447" y1="31.83295" x2="116.87646" y2="36.85999"/><line class="cls-3" x1="117.43947" y1="22.77979" x2="107.30917" y2="12.76737"/><line class="cls-3" x1="102.08447" y1="31.83295" x2="117.43947" y2="22.77979"/><line class="cls-3" x1="111.06421" y1="6.84023" x2="107.30917" y2="12.76737"/><line class="cls-3" x1="116.87646" y1="36.85999" x2="102.54829" y2="51.06047"/><line class="cls-3" x1="108.95371" y1="56.02551" x2="102.54829" y2="51.06047"/><rect class="cls-10" x="97.10962" y="1.99398" width="44.83171" height="59.09436"/><circle cx="136.35975" cy="30.03133" r="1.22622"/><circle cx="107.30917" cy="12.76737" r="1.22622"/><circle cx="117.43947" cy="22.77979" r="1.22622"/><circle cx="102.08447" cy="31.83295" r="1.22622"/><circle cx="116.87646" cy="36.85999" r="1.22622"/><circle cx="102.54829" cy="51.06047" r="1.22622"/><circle cx="108.95371" cy="56.02551" r="1.22622"/><circle cx="111.06421" cy="6.84023" r="1.22622"/><rect class="cls-2" x="145.48943" y="1.99398" width="44.83171" height="59.09436"/><line class="cls-3" x1="159.44402" y1="6.84023" x2="156.35604" y2="1.99398"/><line class="cls-3" x1="157.33352" y1="56.02551" x2="147.97686" y2="61.08834"/><polygon class="cls-4" points="184.74 30.031 159.444 6.84 165.819 22.78 165.256 36.86 157.334 56.026 184.74 30.031"/><line class="cls-3" x1="159.44402" y1="6.84023" x2="184.73956" y2="30.03133"/><line class="cls-3" x1="157.33352" y1="56.02551" x2="184.73956" y2="30.03133"/><line class="cls-3" x1="165.25627" y1="36.85999" x2="157.33352" y2="56.02551"/><line class="cls-3" x1="165.81928" y1="22.77979" x2="165.25627" y2="36.85999"/><line class="cls-3" x1="159.44402" y1="6.84023" x2="165.81928" y2="22.77979"/><line class="cls-3" x1="165.81928" y1="22.77979" x2="184.73956" y2="30.03133"/><line class="cls-3" x1="165.25627" y1="36.85999" x2="184.73956" y2="30.03133"/><line class="cls-3" x1="155.68899" y1="12.76737" x2="150.46428" y2="31.83295"/><line class="cls-3" x1="150.46428" y1="31.83295" x2="150.9281" y2="51.06047"/><g class="cls-13"><polyline class="cls-7" points="155.305 0.344 159.444 6.84 184.74 30.031 157.334 56.026 145.489 62.434"/></g><line class="cls-3" x1="155.68899" y1="12.76737" x2="145.48943" y2="5.13402"/><line class="cls-3" x1="159.44402" y1="6.84023" x2="175.4754" y2="1.99398"/><line class="cls-3" x1="184.73956" y1="30.03133" x2="190.32114" y2="12.87979"/><line class="cls-3" x1="184.73956" y1="30.03133" x2="190.32114" y2="48.18089"/><line class="cls-3" x1="184.73956" y1="30.03133" x2="190.32114" y2="29.30259"/><line class="cls-3" x1="157.33352" y1="56.02551" x2="173.63701" y2="61.08834"/><line class="cls-3" x1="157.33352" y1="56.02551" x2="157.58227" y2="61.08834"/><line class="cls-3" x1="150.9281" y1="51.06047" x2="145.48943" y2="59.20668"/><line class="cls-3" x1="150.9281" y1="51.06047" x2="145.48943" y2="48.85678"/><line class="cls-3" x1="150.46428" y1="31.83295" x2="145.48943" y2="34.88252"/><line class="cls-3" x1="150.46428" y1="31.83295" x2="145.48943" y2="29.30259"/><line class="cls-3" x1="155.68899" y1="12.76737" x2="145.48943" y2="15.01611"/><line class="cls-3" x1="159.44402" y1="6.84023" x2="148.20877" y2="1.99398"/><line class="cls-3" x1="150.46428" y1="31.83295" x2="165.25627" y2="36.85999"/><line class="cls-3" x1="165.81928" y1="22.77979" x2="155.68899" y2="12.76737"/><line class="cls-3" x1="150.46428" y1="31.83295" x2="165.81928" y2="22.77979"/><line class="cls-3" x1="159.44402" y1="6.84023" x2="155.68899" y2="12.76737"/><line class="cls-3" x1="165.25627" y1="36.85999" x2="150.9281" y2="51.06047"/><line class="cls-3" x1="157.33352" y1="56.02551" x2="150.9281" y2="51.06047"/><rect class="cls-10" x="145.48943" y="1.99398" width="44.83171" height="59.09436"/><circle cx="184.73956" cy="30.03133" r="1.22622"/><circle cx="155.68899" cy="12.76737" r="1.22622"/><circle cx="165.81928" cy="22.77979" r="1.22622"/><circle cx="150.46428" cy="31.83295" r="1.22622"/><circle cx="165.25627" cy="36.85999" r="1.22622"/><circle cx="150.9281" cy="51.06047" r="1.22622"/><circle cx="157.33352" cy="56.02551" r="1.22622"/><circle cx="159.44402" cy="6.84023" r="1.22622"/><rect class="cls-2" x="193.86924" y="1.99398" width="44.83171" height="59.09436"/><line class="cls-3" x1="207.82383" y1="6.84023" x2="204.73585" y2="1.99398"/><line class="cls-3" x1="205.71333" y1="56.02551" x2="196.35667" y2="61.08834"/><line class="cls-3" x1="213.63609" y1="36.85999" x2="205.71333" y2="56.02551"/><line class="cls-3" x1="214.1991" y1="22.77979" x2="213.63609" y2="36.85999"/><line class="cls-3" x1="207.82383" y1="6.84023" x2="214.1991" y2="22.77979"/><line class="cls-3" x1="214.1991" y1="22.77979" x2="233.11938" y2="30.03133"/><line class="cls-3" x1="219.75834" y1="34.71422" x2="233.11938" y2="30.03133"/><line class="cls-3" x1="213.63609" y1="36.85999" x2="216.7824" y2="35.75725"/><line class="cls-3" x1="204.0688" y1="12.76737" x2="198.84409" y2="31.83295"/><line class="cls-3" x1="198.84409" y1="31.83295" x2="199.30791" y2="51.06047"/><g class="cls-14"><polyline class="cls-7" points="203.685 0.344 207.824 6.84 214.199 22.78 213.636 36.86 205.713 56.026 193.869 62.434"/></g><line class="cls-3" x1="204.0688" y1="12.76737" x2="193.86924" y2="5.13402"/><line class="cls-3" x1="207.82383" y1="6.84023" x2="223.85521" y2="1.99398"/><line class="cls-3" x1="233.11938" y1="30.03133" x2="238.70095" y2="12.87979"/><line class="cls-3" x1="233.11938" y1="30.03133" x2="238.70095" y2="48.18089"/><line class="cls-3" x1="233.11938" y1="30.03133" x2="238.70095" y2="29.30259"/><line class="cls-3" x1="205.71333" y1="56.02551" x2="222.01682" y2="61.08834"/><line class="cls-3" x1="205.71333" y1="56.02551" x2="205.96208" y2="61.08834"/><line class="cls-3" x1="199.30791" y1="51.06047" x2="193.86924" y2="59.20668"/><line class="cls-3" x1="199.30791" y1="51.06047" x2="193.86924" y2="48.85678"/><line class="cls-3" x1="198.84409" y1="31.83295" x2="193.86924" y2="34.88252"/><line class="cls-3" x1="198.84409" y1="31.83295" x2="193.86924" y2="29.30259"/><line class="cls-3" x1="204.0688" y1="12.76737" x2="193.86924" y2="15.01611"/><line class="cls-3" x1="207.82383" y1="6.84023" x2="196.58858" y2="1.99398"/><line class="cls-3" x1="198.84409" y1="31.83295" x2="213.63609" y2="36.85999"/><line class="cls-3" x1="214.1991" y1="22.77979" x2="204.0688" y2="12.76737"/><line class="cls-3" x1="198.84409" y1="31.83295" x2="214.1991" y2="22.77979"/><line class="cls-3" x1="207.82383" y1="6.84023" x2="204.0688" y2="12.76737"/><line class="cls-3" x1="213.63609" y1="36.85999" x2="199.30791" y2="51.06047"/><line class="cls-3" x1="205.71333" y1="56.02551" x2="199.30791" y2="51.06047"/><rect class="cls-10" x="193.86924" y="1.99398" width="44.83171" height="59.09436"/><line class="cls-3" x1="207.82383" y1="6.84023" x2="233.11938" y2="30.03133"/><line class="cls-3" x1="205.71333" y1="56.02551" x2="233.11938" y2="30.03133"/><circle cx="233.11938" cy="30.03133" r="1.22622"/><circle cx="204.0688" cy="12.76737" r="1.22622"/><circle cx="214.1991" cy="22.77979" r="1.22622"/><circle cx="198.84409" cy="31.83295" r="1.22622"/><circle cx="213.63609" cy="36.85999" r="1.22622"/><circle cx="199.30791" cy="51.06047" r="1.22622"/><circle cx="205.71333" cy="56.02551" r="1.22622"/><circle cx="207.82383" cy="6.84023" r="1.22622"/><path d="M39.47918,34.19061a6.78956,6.78956,0,0,0,.18906-.85625.17055.17055,0,0,0-.18906-.18906,10.35945,10.35945,0,0,0-1.11876.11719.20481.20481,0,0,0,.00938.25312l.36094.02656a.1715.1715,0,0,1,.1625.17969,2.11776,2.11776,0,0,1-.08125.46094l-.42344,1.85625a5.69307,5.69307,0,0,0-.15469.82968c0,.17188.1.29844.37032.29844a1.72848,1.72848,0,0,0,1.25312-.83906.20025.20025,0,0,0-.20781-.15312,1.34758,1.34758,0,0,1-.58594.45c-.0625,0-.08906-.04375-.08906-.15312a3.70379,3.70379,0,0,1,.09844-.51406l.40625-1.76719m-.39688-2.25312a.43282.43282,0,1,0,.43281-.43282A.43893.43893,0,0,0,39.0823,31.93749Z" transform="translate(-0.35104 1.41185)"/><path d="M87.813,34.19061a6.78956,6.78956,0,0,0,.18906-.85625.17055.17055,0,0,0-.18906-.18906,10.35945,10.35945,0,0,0-1.11876.11719.20481.20481,0,0,0,.00938.25312l.36094.02656a.1715.1715,0,0,1,.1625.17969,2.11776,2.11776,0,0,1-.08125.46094l-.42344,1.85625a5.69443,5.69443,0,0,0-.15469.82968c0,.17188.1.29844.37032.29844a1.72848,1.72848,0,0,0,1.25312-.83906.20025.20025,0,0,0-.20781-.15312,1.34758,1.34758,0,0,1-.58594.45c-.0625,0-.08906-.04375-.08906-.15312a3.70379,3.70379,0,0,1,.09844-.51406l.40625-1.76719m-.39688-2.25312a.43282.43282,0,1,0,.43281-.43282A.43893.43893,0,0,0,87.41616,31.93749Z" transform="translate(-0.35104 1.41185)"/><path d="M136.22074,34.19061a6.78956,6.78956,0,0,0,.18906-.85625.17055.17055,0,0,0-.18906-.18906,10.35945,10.35945,0,0,0-1.11876.11719.20481.20481,0,0,0,.00938.25312l.36094.02656a.1715.1715,0,0,1,.1625.17969,2.11776,2.11776,0,0,1-.08125.46094l-.42344,1.85625a5.69307,5.69307,0,0,0-.15469.82968c0,.17188.1.29844.37032.29844a1.72848,1.72848,0,0,0,1.25312-.83906.20025.20025,0,0,0-.20781-.15312,1.34758,1.34758,0,0,1-.58594.45c-.0625,0-.08906-.04375-.08906-.15312a3.70379,3.70379,0,0,1,.09844-.51406l.40625-1.76719m-.39688-2.25312a.43282.43282,0,1,0,.43281-.43282A.43893.43893,0,0,0,135.82386,31.93749Z" transform="translate(-0.35104 1.41185)"/><path d="M184.6203,34.19061a6.78956,6.78956,0,0,0,.18906-.85625.17055.17055,0,0,0-.18906-.18906,10.35945,10.35945,0,0,0-1.11876.11719.20481.20481,0,0,0,.00938.25312l.36094.02656a.1715.1715,0,0,1,.1625.17969,2.11776,2.11776,0,0,1-.08125.46094l-.42344,1.85625a5.69307,5.69307,0,0,0-.15469.82968c0,.17188.1.29844.37032.29844a1.72848,1.72848,0,0,0,1.25312-.83906.20025.20025,0,0,0-.20781-.15312,1.34758,1.34758,0,0,1-.58594.45c-.0625,0-.08906-.04375-.08906-.15312a3.70379,3.70379,0,0,1,.09844-.51406l.40625-1.76719m-.39688-2.25312a.43282.43282,0,1,0,.43281-.43282A.43893.43893,0,0,0,184.22342,31.93749Z" transform="translate(-0.35104 1.41185)"/><path class="cls-15" d="M218.51722,34.66007v-.27031l1.67656-2.39844a7.503,7.503,0,0,1,.78438-.9375l-.04531-.01875a1.35881,1.35881,0,0,1-.43282.08125,1.5161,1.5161,0,0,1-.3875-.0625,6.7205,6.7205,0,0,1-.45.92031L218.50785,33.921a26.09648,26.09648,0,0,0-.36094-2.80469.11924.11924,0,0,0-.13438-.11719c-.2625,0-.37031.19844-1.04688.33438l-.01718.27031a1.30373,1.30373,0,0,1,.32344-.04531c.13594,0,.2625.02656.325.325a22.11646,22.11646,0,0,1,.3875,2.85781l-.35156.56875a2.68322,2.68322,0,0,0-.42344,1.22656c0,.29688.1.56719.37031.56719.89219,0,.92813-1.55.9375-2.44375m-.86562,2.09219c-.07188,0-.10782-.08125-.10782-.225a2.82247,2.82247,0,0,1,.45-1.28125v.08125C217.99378,35.87726,217.93128,36.75226,217.6516,36.75226Z" transform="translate(-0.35104 1.41185)"/><path class="cls-15" d="M223.44378,28.58351a.43253.43253,0,0,0-.44687-.3875c-.24219,0-.36094.23751-.42656.43437L221.886,30.621a.98794.98794,0,0,0-.06562.22968c0,.05937.04062.13906.10624.13906.09844,0,.20938-.13906.25626-.21094l1.07656-1.70156a.95955.95955,0,0,0,.18437-.49375" transform="translate(-0.35104 1.41185)"/><path class="cls-15" d="M27.2862,47.75367v-.27031l1.67656-2.39844a7.503,7.503,0,0,1,.78438-.9375l-.04531-.01875a1.35881,1.35881,0,0,1-.43282.08125,1.5161,1.5161,0,0,1-.3875-.0625,6.71933,6.71933,0,0,1-.45.92031l-1.15468,1.94688a26.09648,26.09648,0,0,0-.36094-2.80469.11924.11924,0,0,0-.13438-.11719c-.2625,0-.37031.19844-1.04687.33438l-.01719.27031a1.30373,1.30373,0,0,1,.32344-.04531c.13594,0,.2625.02656.325.325a22.11646,22.11646,0,0,1,.3875,2.85781l-.35156.56875a2.68322,2.68322,0,0,0-.42344,1.22656c0,.29688.1.56719.37031.56719.89219,0,.92813-1.55.9375-2.44375m-.86562,2.09219c-.07188,0-.10782-.08125-.10782-.225a2.82247,2.82247,0,0,1,.45-1.28125v.08125C26.76276,48.97086,26.70026,49.84586,26.42058,49.84586Z" transform="translate(-0.35104 1.41185)"/><path class="cls-15" d="M75.666,47.75367v-.27031l1.67656-2.39844a7.503,7.503,0,0,1,.78438-.9375l-.04531-.01875a1.35881,1.35881,0,0,1-.43282.08125,1.5161,1.5161,0,0,1-.3875-.0625,6.71933,6.71933,0,0,1-.45.92031l-1.15468,1.94688a26.09648,26.09648,0,0,0-.36094-2.80469.11924.11924,0,0,0-.13438-.11719c-.2625,0-.37031.19844-1.04687.33438l-.01719.27031a1.30373,1.30373,0,0,1,.32344-.04531c.13594,0,.2625.02656.325.325a22.11646,22.11646,0,0,1,.3875,2.85781l-.35156.56875a2.68322,2.68322,0,0,0-.42344,1.22656c0,.29688.1.56719.37031.56719.89219,0,.92813-1.55.9375-2.44375m-.86562,2.09219c-.07188,0-.10782-.08125-.10782-.225a2.82247,2.82247,0,0,1,.45-1.28125v.08125C75.14257,48.97086,75.08007,49.84586,74.80039,49.84586Z" transform="translate(-0.35104 1.41185)"/><path class="cls-15" d="M124.04582,47.75367v-.27031l1.67656-2.39844a7.503,7.503,0,0,1,.78438-.9375l-.04531-.01875a1.35881,1.35881,0,0,1-.43282.08125,1.5161,1.5161,0,0,1-.3875-.0625,6.71933,6.71933,0,0,1-.45.92031l-1.15468,1.94688a26.09648,26.09648,0,0,0-.36094-2.80469.11924.11924,0,0,0-.13438-.11719c-.2625,0-.37031.19844-1.04687.33438l-.01719.27031a1.30373,1.30373,0,0,1,.32344-.04531c.13594,0,.2625.02656.325.325a22.11646,22.11646,0,0,1,.3875,2.85781l-.35156.56875a2.68322,2.68322,0,0,0-.42344,1.22656c0,.29688.1.56719.37031.56719.89219,0,.92813-1.55.9375-2.44375m-.86562,2.09219c-.07188,0-.10782-.08125-.10782-.225a2.82247,2.82247,0,0,1,.45-1.28125v.08125C123.52238,48.97086,123.45988,49.84586,123.1802,49.84586Z" transform="translate(-0.35104 1.41185)"/><path class="cls-15" d="M172.42563,47.75367v-.27031l1.67656-2.39844a7.503,7.503,0,0,1,.78438-.9375l-.04531-.01875a1.35881,1.35881,0,0,1-.43282.08125,1.5161,1.5161,0,0,1-.3875-.0625,6.71933,6.71933,0,0,1-.45.92031l-1.15468,1.94688a26.09648,26.09648,0,0,0-.36094-2.80469.11924.11924,0,0,0-.13438-.11719c-.2625,0-.37031.19844-1.04687.33438l-.01719.27031a1.30385,1.30385,0,0,1,.32344-.04531c.13594,0,.2625.02656.325.325a22.11646,22.11646,0,0,1,.3875,2.85781l-.35156.56875a2.68322,2.68322,0,0,0-.42344,1.22656c0,.29688.1.56719.37031.56719.89219,0,.92813-1.55.9375-2.44375M171.56,49.84586c-.07188,0-.10782-.08125-.10782-.225a2.82247,2.82247,0,0,1,.45-1.28125v.08125C171.90219,48.97086,171.83969,49.84586,171.56,49.84586Z" transform="translate(-0.35104 1.41185)"/><path class="cls-16" d="M110.66347-12.69852" transform="translate(-0.35104 1.41185)"/><polygon class="cls-17" points="119.965 33.6 119.965 33.6 119.965 33.6 119.965 33.6 119.965 33.6 119.965 33.6 119.965 33.6 119.965 33.6 119.965 33.6 119.965 33.6 119.965 33.6 119.965 33.6 119.965 33.6 119.965 33.6 119.965 33.6 119.965 33.6 119.965 33.6 119.965 33.6 119.965 33.6 119.965 33.6 119.965 33.6 119.965 33.6 119.965 33.6 119.965 33.6 119.965 33.6 119.965 33.6 119.965 33.6 119.965 33.6 119.965 33.6 119.965 33.6 119.965 33.6 119.965 33.6 119.965 33.6 119.965 33.6 119.965 33.6 119.965 33.6 119.965 33.6 119.965 33.6 119.965 33.6 119.965 33.6 119.965 33.6 119.965 33.6 119.965 33.6 119.965 33.6 119.965 33.6 119.965 33.6 119.965 33.6 119.965 33.6 119.965 33.6 119.965 33.6 119.965 33.6 119.965 33.6 119.965 33.6 119.965 33.6 119.965 33.6 119.965 33.6 119.965 33.6 119.965 33.6 119.965 33.6 119.965 33.6 119.965 33.6 119.965 33.6 119.965 33.6 119.965 33.6 119.965 33.6 119.965 33.6 119.965 33.6 119.965 33.6 119.965 33.6 119.965 33.6 119.965 33.6 119.965 33.6 119.965 33.6 119.965 33.6 119.965 33.6 119.965 33.6 119.965 33.6 119.965 33.6 119.965 33.6 119.965 33.6 119.965 33.6 119.965 33.6 119.965 33.6 119.965 33.6 119.965 33.6 119.965 33.6 119.965 33.6 119.965 33.6 119.965 33.6 119.965 33.6 119.965 33.6 119.965 33.6 119.965 33.6 119.965 33.6 119.965 33.6"/></svg>