<svg id="Layer_1" data-name="Layer 1" xmlns="http://www.w3.org/2000/svg" xmlns:xlink="http://www.w3.org/1999/xlink" width="717.15286" height="188.99303" viewBox="0 0 717.15286 188.99303"><defs><style>.cls-1,.cls-10,.cls-16,.cls-17,.cls-3,.cls-5,.cls-7,.cls-8,.cls-9{fill:none;}.cls-2{fill:#ffe8cd;}.cls-10,.cls-16,.cls-17,.cls-3,.cls-5{stroke:#000;}.cls-10,.cls-16,.cls-17,.cls-3,.cls-5,.cls-7,.cls-8,.cls-9{stroke-miterlimit:10;}.cls-3,.cls-5,.cls-8,.cls-9{stroke-width:1.5px;}.cls-3{opacity:0.4;}.cls-4{fill:#99cfec;}.cls-6{clip-path:url(#clip-path);}.cls-7,.cls-8,.cls-9{stroke:red;}.cls-7{stroke-width:3.8436px;}.cls-9{stroke-dasharray:4.59066 4.59066;}.cls-10{stroke-width:2.1px;}.cls-11{clip-path:url(#clip-path-2);}.cls-12{clip-path:url(#clip-path-3);}.cls-13{clip-path:url(#clip-path-4);}.cls-14{clip-path:url(#clip-path-5);}.cls-15{fill:red;}.cls-16{stroke-width:0px;}.cls-16,.cls-17{opacity:0;}.cls-17{stroke-width:0px;}</style><clipPath id="clip-path" transform="translate(0 0.55124)"><rect class="cls-1" x="1.05" y="5.43071" width="134.49513" height="177.28307"/></clipPath><clipPath id="clip-path-2" transform="translate(0 0.55124)"><rect class="cls-1" x="146.18943" y="5.43071" width="134.49513" height="177.28307"/></clipPath><clipPath id="clip-path-3" transform="translate(0 0.55124)"><rect class="cls-1" x="291.32886" y="5.43071" width="134.49513" height="177.28307"/></clipPath><clipPath id="clip-path-4" transform="translate(0 0.55124)"><rect class="cls-1" x="436.4683" y="5.43071" width="134.49513" height="177.28307"/></clipPath><clipPath id="clip-path-5" transform="translate(0 0.55124)"><rect class="cls-1" x="581.60773" y="5.43071" width="134.49513" height="177.28307"/></clipPath></defs><rect class="cls-2" x="1.05" y="5.98195" width="134.49513" height="177.28307"/><line class="cls-3" x1="42.91377" y1="20.5207" x2="33.64983" y2="5.98195"/><line class="cls-3" x1="36.58226" y1="168.07654" x2="8.51227" y2="183.26502"/><polygon class="cls-4" points="118.8 90.094 42.914 20.521 31.649 38.302 62.04 68.339 15.975 95.499 60.351 110.58 17.366 153.181 36.582 168.077 118.8 90.094"/><line class="cls-3" x1="42.91377" y1="20.5207" x2="118.8004" y2="90.09398"/><line class="cls-3" x1="36.58226" y1="168.07654" x2="118.8004" y2="90.09398"/><line class="cls-3" x1="17.36601" y1="153.18142" x2="118.8004" y2="90.09398"/><line class="cls-3" x1="15.97455" y1="95.49885" x2="118.8004" y2="90.09398"/><line class="cls-5" x1="31.64866" y1="38.30212" x2="118.8004" y2="90.09398"/><line class="cls-3" x1="62.03956" y1="68.33937" x2="118.8004" y2="90.09398"/><line class="cls-3" x1="60.35053" y1="110.57998" x2="118.8004" y2="90.09398"/><line class="cls-3" x1="31.64866" y1="38.30212" x2="15.97455" y2="95.49885"/><line class="cls-3" x1="15.97455" y1="95.49885" x2="17.36601" y2="153.18142"/><g class="cls-6"><polyline class="cls-7" points="30.496 1.033 42.914 20.521 118.8 90.094 36.582 168.077 1.05 187.303"/><line class="cls-8" x1="42.91377" y1="20.5207" x2="43.74934" y2="22.6098"/><polyline class="cls-9" points="45.454 26.872 62.04 68.339 60.351 110.58 38.319 163.876"/><line class="cls-8" x1="37.44183" y1="165.9972" x2="36.58226" y2="168.07654"/></g><line class="cls-3" x1="31.64866" y1="38.30212" x2="1.05" y2="15.40207"/><line class="cls-3" x1="42.91377" y1="20.5207" x2="91.00789" y2="5.98195"/><line class="cls-3" x1="118.8004" y1="90.09398" x2="135.54513" y2="38.63936"/><line class="cls-3" x1="118.8004" y1="90.09398" x2="135.54513" y2="144.54266"/><line class="cls-3" x1="118.8004" y1="90.09398" x2="135.54513" y2="87.90778"/><line class="cls-3" x1="36.58226" y1="168.07654" x2="85.49273" y2="183.26502"/><line class="cls-3" x1="36.58226" y1="168.07654" x2="37.3285" y2="183.26502"/><line class="cls-3" x1="17.36601" y1="153.18142" x2="1.05" y2="177.62005"/><line class="cls-3" x1="17.36601" y1="153.18142" x2="1.05" y2="146.57034"/><line class="cls-3" x1="15.97455" y1="95.49885" x2="1.05" y2="104.64756"/><line class="cls-3" x1="15.97455" y1="95.49885" x2="1.05" y2="87.90778"/><line class="cls-3" x1="31.64866" y1="38.30212" x2="1.05" y2="45.04834"/><line class="cls-3" x1="42.91377" y1="20.5207" x2="9.20801" y2="5.98195"/><line class="cls-3" x1="15.97455" y1="95.49885" x2="60.35053" y2="110.57998"/><line class="cls-3" x1="62.03956" y1="68.33937" x2="31.64866" y2="38.30212"/><line class="cls-3" x1="15.97455" y1="95.49885" x2="62.03956" y2="68.33937"/><line class="cls-3" x1="42.91377" y1="20.5207" x2="31.64866" y2="38.30212"/><line class="cls-3" x1="60.35053" y1="110.57998" x2="17.36601" y2="153.18142"/><line class="cls-3" x1="36.58226" y1="168.07654" x2="17.36601" y2="153.18142"/><rect class="cls-10" x="1.05" y="5.98195" width="134.49513" height="177.28307"/><circle cx="118.8004" cy="90.09398" r="3.67865"/><circle cx="31.64866" cy="38.30212" r="3.67866"/><circle cx="62.03956" cy="68.33937" r="3.67866"/><circle cx="15.97455" cy="95.49885" r="3.67866"/><circle cx="60.35053" cy="110.57998" r="3.67866"/><circle cx="17.36601" cy="153.18142" r="3.67866"/><circle cx="36.58226" cy="168.07654" r="3.67866"/><circle cx="42.91377" cy="20.5207" r="3.67866"/><rect class="cls-2" x="146.18943" y="5.98195" width="134.49513" height="177.28307"/><line class="cls-3" x1="188.0532" y1="20.5207" x2="178.78926" y2="5.98195"/><line class="cls-3" x1="181.72169" y1="168.07654" x2="153.65171" y2="183.26502"/><polygon class="cls-4" points="263.94 90.094 188.053 20.521 207.179 68.339 161.114 95.499 205.49 110.58 162.505 153.181 181.722 168.077 263.94 90.094"/><line class="cls-3" x1="188.0532" y1="20.5207" x2="263.93983" y2="90.09398"/><line class="cls-3" x1="181.72169" y1="168.07654" x2="263.93983" y2="90.09398"/><line class="cls-3" x1="162.50544" y1="153.18142" x2="263.93983" y2="90.09398"/><line class="cls-5" x1="161.11398" y1="95.49885" x2="263.93983" y2="90.09398"/><line class="cls-3" x1="188.0532" y1="20.5207" x2="207.17899" y2="68.33937"/><line class="cls-3" x1="207.17899" y1="68.33937" x2="263.93983" y2="90.09398"/><line class="cls-3" x1="205.48996" y1="110.57998" x2="263.93983" y2="90.09398"/><line class="cls-3" x1="176.78809" y1="38.30212" x2="161.11398" y2="95.49885"/><line class="cls-3" x1="161.11398" y1="95.49885" x2="162.50544" y2="153.18142"/><g class="cls-11"><polyline class="cls-7" points="175.636 1.033 188.053 20.521 263.94 90.094 181.722 168.077 146.189 187.303"/></g><line class="cls-3" x1="176.78809" y1="38.30212" x2="146.18943" y2="15.40207"/><line class="cls-3" x1="188.0532" y1="20.5207" x2="236.14732" y2="5.98195"/><line class="cls-3" x1="263.93983" y1="90.09398" x2="280.68456" y2="38.63936"/><line class="cls-3" x1="263.93983" y1="90.09398" x2="280.68456" y2="144.54266"/><line class="cls-3" x1="263.93983" y1="90.09398" x2="280.68456" y2="87.90778"/><line class="cls-3" x1="181.72169" y1="168.07654" x2="230.63216" y2="183.26502"/><line class="cls-3" x1="181.72169" y1="168.07654" x2="182.46793" y2="183.26502"/><line class="cls-3" x1="162.50544" y1="153.18142" x2="146.18943" y2="177.62005"/><line class="cls-3" x1="162.50544" y1="153.18142" x2="146.18943" y2="146.57034"/><line class="cls-3" x1="161.11398" y1="95.49885" x2="146.18943" y2="104.64756"/><line class="cls-3" x1="161.11398" y1="95.49885" x2="146.18943" y2="87.90778"/><line class="cls-3" x1="176.78809" y1="38.30212" x2="146.18943" y2="45.04834"/><line class="cls-3" x1="188.0532" y1="20.5207" x2="154.34744" y2="5.98195"/><line class="cls-3" x1="161.11398" y1="95.49885" x2="205.48996" y2="110.57998"/><line class="cls-3" x1="207.17899" y1="68.33937" x2="176.78809" y2="38.30212"/><line class="cls-3" x1="161.11398" y1="95.49885" x2="207.17899" y2="68.33937"/><line class="cls-3" x1="188.0532" y1="20.5207" x2="176.78809" y2="38.30212"/><line class="cls-3" x1="205.48996" y1="110.57998" x2="162.50544" y2="153.18142"/><line class="cls-3" x1="181.72169" y1="168.07654" x2="162.50544" y2="153.18142"/><rect class="cls-10" x="146.18943" y="5.98195" width="134.49513" height="177.28307"/><circle cx="263.93983" cy="90.09398" r="3.67865"/><circle cx="176.78809" cy="38.30212" r="3.67866"/><circle cx="207.17899" cy="68.33937" r="3.67866"/><circle cx="161.11398" cy="95.49885" r="3.67866"/><circle cx="205.48996" cy="110.57998" r="3.67866"/><circle cx="162.50544" cy="153.18142" r="3.67866"/><circle cx="181.72169" cy="168.07654" r="3.67866"/><circle cx="188.0532" cy="20.5207" r="3.67866"/><rect class="cls-2" x="291.32886" y="5.98195" width="134.49513" height="177.28307"/><line class="cls-3" x1="333.19263" y1="20.5207" x2="323.92869" y2="5.98195"/><line class="cls-3" x1="326.86112" y1="168.07654" x2="298.79114" y2="183.26502"/><polygon class="cls-4" points="409.079 90.094 333.193 20.521 352.318 68.339 350.629 110.58 307.645 153.181 326.861 168.077 409.079 90.094"/><line class="cls-3" x1="333.19263" y1="20.5207" x2="409.07926" y2="90.09398"/><line class="cls-3" x1="326.86112" y1="168.07654" x2="409.07926" y2="90.09398"/><line class="cls-5" x1="307.64488" y1="153.18142" x2="409.07926" y2="90.09398"/><line class="cls-3" x1="352.31842" y1="68.33937" x2="350.62939" y2="110.57998"/><line class="cls-3" x1="333.19263" y1="20.5207" x2="352.31842" y2="68.33937"/><line class="cls-3" x1="352.31842" y1="68.33937" x2="409.07926" y2="90.09398"/><line class="cls-3" x1="350.62939" y1="110.57998" x2="409.07926" y2="90.09398"/><line class="cls-3" x1="321.92752" y1="38.30212" x2="306.25341" y2="95.49885"/><line class="cls-3" x1="306.25341" y1="95.49885" x2="307.64488" y2="153.18142"/><g class="cls-12"><polyline class="cls-7" points="320.775 1.033 333.193 20.521 409.079 90.094 326.861 168.077 291.329 187.303"/></g><line class="cls-3" x1="321.92752" y1="38.30212" x2="291.32886" y2="15.40207"/><line class="cls-3" x1="333.19263" y1="20.5207" x2="381.28675" y2="5.98195"/><line class="cls-3" x1="409.07926" y1="90.09398" x2="425.82399" y2="38.63936"/><line class="cls-3" x1="409.07926" y1="90.09398" x2="425.82399" y2="144.54266"/><line class="cls-3" x1="409.07926" y1="90.09398" x2="425.82399" y2="87.90778"/><line class="cls-3" x1="326.86112" y1="168.07654" x2="375.77159" y2="183.26502"/><line class="cls-3" x1="326.86112" y1="168.07654" x2="327.60737" y2="183.26502"/><line class="cls-3" x1="307.64488" y1="153.18142" x2="291.32886" y2="177.62005"/><line class="cls-3" x1="307.64488" y1="153.18142" x2="291.32886" y2="146.57034"/><line class="cls-3" x1="306.25341" y1="95.49885" x2="291.32886" y2="104.64756"/><line class="cls-3" x1="306.25341" y1="95.49885" x2="291.32886" y2="87.90778"/><line class="cls-3" x1="321.92752" y1="38.30212" x2="291.32886" y2="45.04834"/><line class="cls-3" x1="333.19263" y1="20.5207" x2="299.48687" y2="5.98195"/><line class="cls-3" x1="306.25341" y1="95.49885" x2="350.62939" y2="110.57998"/><line class="cls-3" x1="352.31842" y1="68.33937" x2="321.92752" y2="38.30212"/><line class="cls-3" x1="306.25341" y1="95.49885" x2="352.31842" y2="68.33937"/><line class="cls-3" x1="333.19263" y1="20.5207" x2="321.92752" y2="38.30212"/><line class="cls-3" x1="350.62939" y1="110.57998" x2="307.64488" y2="153.18142"/><line class="cls-3" x1="326.86112" y1="168.07654" x2="307.64488" y2="153.18142"/><rect class="cls-10" x="291.32886" y="5.98195" width="134.49513" height="177.28307"/><circle cx="409.07926" cy="90.09398" r="3.67865"/><circle cx="321.92752" cy="38.30212" r="3.67866"/><circle cx="352.31842" cy="68.33937" r="3.67866"/><circle cx="306.25341" cy="95.49885" r="3.67866"/><circle cx="350.62939" cy="110.57998" r="3.67866"/><circle cx="307.64488" cy="153.18142" r="3.67866"/><circle cx="326.86112" cy="168.07654" r="3.67866"/><circle cx="333.19263" cy="20.5207" r="3.67866"/><rect class="cls-2" x="436.4683" y="5.98195" width="134.49513" height="177.28307"/><line class="cls-3" x1="478.33207" y1="20.5207" x2="469.06813" y2="5.98195"/><line class="cls-3" x1="472.00055" y1="168.07654" x2="443.93057" y2="183.26502"/><polygon class="cls-4" points="554.219 90.094 478.332 20.521 497.458 68.339 495.769 110.58 472.001 168.077 554.219 90.094"/><line class="cls-3" x1="478.33207" y1="20.5207" x2="554.21869" y2="90.09398"/><line class="cls-3" x1="472.00055" y1="168.07654" x2="554.21869" y2="90.09398"/><line class="cls-3" x1="495.76882" y1="110.57998" x2="472.00055" y2="168.07654"/><line class="cls-3" x1="497.45785" y1="68.33937" x2="495.76882" y2="110.57998"/><line class="cls-3" x1="478.33207" y1="20.5207" x2="497.45785" y2="68.33937"/><line class="cls-3" x1="497.45785" y1="68.33937" x2="554.21869" y2="90.09398"/><line class="cls-3" x1="495.76882" y1="110.57998" x2="554.21869" y2="90.09398"/><line class="cls-3" x1="467.06695" y1="38.30212" x2="451.39284" y2="95.49885"/><line class="cls-3" x1="451.39284" y1="95.49885" x2="452.78431" y2="153.18142"/><g class="cls-13"><polyline class="cls-7" points="465.915 1.033 478.332 20.521 554.219 90.094 472.001 168.077 436.468 187.303"/></g><line class="cls-3" x1="467.06695" y1="38.30212" x2="436.4683" y2="15.40207"/><line class="cls-3" x1="478.33207" y1="20.5207" x2="526.42619" y2="5.98195"/><line class="cls-3" x1="554.21869" y1="90.09398" x2="570.96343" y2="38.63936"/><line class="cls-3" x1="554.21869" y1="90.09398" x2="570.96343" y2="144.54266"/><line class="cls-3" x1="554.21869" y1="90.09398" x2="570.96343" y2="87.90778"/><line class="cls-3" x1="472.00055" y1="168.07654" x2="520.91102" y2="183.26502"/><line class="cls-3" x1="472.00055" y1="168.07654" x2="472.7468" y2="183.26502"/><line class="cls-3" x1="452.78431" y1="153.18142" x2="436.4683" y2="177.62005"/><line class="cls-3" x1="452.78431" y1="153.18142" x2="436.4683" y2="146.57034"/><line class="cls-3" x1="451.39284" y1="95.49885" x2="436.4683" y2="104.64756"/><line class="cls-3" x1="451.39284" y1="95.49885" x2="436.4683" y2="87.90778"/><line class="cls-3" x1="467.06695" y1="38.30212" x2="436.4683" y2="45.04834"/><line class="cls-3" x1="478.33207" y1="20.5207" x2="444.6263" y2="5.98195"/><line class="cls-3" x1="451.39284" y1="95.49885" x2="495.76882" y2="110.57998"/><line class="cls-3" x1="497.45785" y1="68.33937" x2="467.06695" y2="38.30212"/><line class="cls-3" x1="451.39284" y1="95.49885" x2="497.45785" y2="68.33937"/><line class="cls-3" x1="478.33207" y1="20.5207" x2="467.06695" y2="38.30212"/><line class="cls-3" x1="495.76882" y1="110.57998" x2="452.78431" y2="153.18142"/><line class="cls-3" x1="472.00055" y1="168.07654" x2="452.78431" y2="153.18142"/><rect class="cls-10" x="436.4683" y="5.98195" width="134.49513" height="177.28307"/><circle cx="554.21869" cy="90.09398" r="3.67865"/><circle cx="467.06695" cy="38.30212" r="3.67866"/><circle cx="497.45785" cy="68.33937" r="3.67866"/><circle cx="451.39284" cy="95.49885" r="3.67866"/><circle cx="495.76882" cy="110.57998" r="3.67866"/><circle cx="452.78431" cy="153.18142" r="3.67866"/><circle cx="472.00055" cy="168.07654" r="3.67866"/><circle cx="478.33207" cy="20.5207" r="3.67866"/><rect class="cls-2" x="581.60773" y="5.98195" width="134.49513" height="177.28307"/><line class="cls-3" x1="623.4715" y1="20.5207" x2="614.20756" y2="5.98195"/><line class="cls-3" x1="617.13999" y1="168.07654" x2="589.07" y2="183.26502"/><line class="cls-3" x1="640.90826" y1="110.57998" x2="617.13999" y2="168.07654"/><line class="cls-3" x1="642.59729" y1="68.33937" x2="640.90826" y2="110.57998"/><line class="cls-3" x1="623.4715" y1="20.5207" x2="642.59729" y2="68.33937"/><line class="cls-3" x1="642.59729" y1="68.33937" x2="699.35813" y2="90.09398"/><line class="cls-3" x1="659.27501" y1="104.14265" x2="699.35813" y2="90.09398"/><line class="cls-3" x1="640.90826" y1="110.57998" x2="650.3472" y2="107.27174"/><line class="cls-3" x1="612.20639" y1="38.30212" x2="596.53228" y2="95.49885"/><line class="cls-3" x1="596.53228" y1="95.49885" x2="597.92374" y2="153.18142"/><g class="cls-14"><polyline class="cls-7" points="611.054 1.033 623.471 20.521 642.597 68.339 640.908 110.58 617.14 168.077 581.608 187.303"/></g><line class="cls-3" x1="612.20639" y1="38.30212" x2="581.60773" y2="15.40207"/><line class="cls-3" x1="623.4715" y1="20.5207" x2="671.56562" y2="5.98195"/><line class="cls-3" x1="699.35813" y1="90.09398" x2="716.10286" y2="38.63936"/><line class="cls-3" x1="699.35813" y1="90.09398" x2="716.10286" y2="144.54266"/><line class="cls-3" x1="699.35813" y1="90.09398" x2="716.10286" y2="87.90778"/><line class="cls-3" x1="617.13999" y1="168.07654" x2="666.05046" y2="183.26502"/><line class="cls-3" x1="617.13999" y1="168.07654" x2="617.88623" y2="183.26502"/><line class="cls-3" x1="597.92374" y1="153.18142" x2="581.60773" y2="177.62005"/><line class="cls-3" x1="597.92374" y1="153.18142" x2="581.60773" y2="146.57034"/><line class="cls-3" x1="596.53228" y1="95.49885" x2="581.60773" y2="104.64756"/><line class="cls-3" x1="596.53228" y1="95.49885" x2="581.60773" y2="87.90778"/><line class="cls-3" x1="612.20639" y1="38.30212" x2="581.60773" y2="45.04834"/><line class="cls-3" x1="623.4715" y1="20.5207" x2="589.76574" y2="5.98195"/><line class="cls-3" x1="596.53228" y1="95.49885" x2="640.90826" y2="110.57998"/><line class="cls-3" x1="642.59729" y1="68.33937" x2="612.20639" y2="38.30212"/><line class="cls-3" x1="596.53228" y1="95.49885" x2="642.59729" y2="68.33937"/><line class="cls-3" x1="623.4715" y1="20.5207" x2="612.20639" y2="38.30212"/><line class="cls-3" x1="640.90826" y1="110.57998" x2="597.92374" y2="153.18142"/><line class="cls-3" x1="617.13999" y1="168.07654" x2="597.92374" y2="153.18142"/><rect class="cls-10" x="581.60773" y="5.98195" width="134.49513" height="177.28307"/><line class="cls-3" x1="623.4715" y1="20.5207" x2="699.35813" y2="90.09398"/><line class="cls-3" x1="617.13999" y1="168.07654" x2="699.35813" y2="90.09398"/><circle cx="699.35813" cy="90.09398" r="3.67865"/><circle cx="612.20639" cy="38.30212" r="3.67866"/><circle cx="642.59729" cy="68.33937" r="3.67866"/><circle cx="596.53228" cy="95.49885" r="3.67866"/><circle cx="640.90826" cy="110.57998" r="3.67866"/><circle cx="597.92374" cy="153.18142" r="3.67866"/><circle cx="617.13999" cy="168.07654" r="3.67866"/><circle cx="623.4715" cy="20.5207" r="3.67866"/><path d="M117.38442,106.25614a20.36867,20.36867,0,0,0,.56718-2.56875.51164.51164,0,0,0-.56718-.56718,31.07752,31.07752,0,0,0-3.35626.35157.61445.61445,0,0,0,.02812.75936l1.08282.07968a.51449.51449,0,0,1,.4875.53907,6.35328,6.35328,0,0,1-.24375,1.38282l-1.27032,5.56875a17.08189,17.08189,0,0,0-.46406,2.48906c0,.51563.3.89532,1.111.89532,1.29843,0,2.51718-.91875,3.75936-2.5172a.60075.60075,0,0,0-.62343-.45936,4.04286,4.04286,0,0,1-1.75782,1.35c-.1875,0-.26718-.13125-.26718-.45937a11.11143,11.11143,0,0,1,.29532-1.54219l1.21875-5.30157m-1.19064-6.75936a1.29845,1.29845,0,1,0,1.29843-1.29846A1.31678,1.31678,0,0,0,116.19378,99.49678Z" transform="translate(0 0.55124)"/><path d="M262.386,106.25614a20.36867,20.36867,0,0,0,.56718-2.56875.51164.51164,0,0,0-.56718-.56718,31.07793,31.07793,0,0,0-3.35627.35157.61445.61445,0,0,0,.02813.75936l1.08282.07968a.51449.51449,0,0,1,.4875.53907,6.35328,6.35328,0,0,1-.24375,1.38282l-1.27032,5.56875a17.08189,17.08189,0,0,0-.46406,2.48906c0,.51563.3.89532,1.111.89532,1.29843,0,2.51718-.91875,3.75936-2.5172a.60075.60075,0,0,0-.62343-.45936,4.04286,4.04286,0,0,1-1.75782,1.35c-.1875,0-.26718-.13125-.26718-.45937a11.11143,11.11143,0,0,1,.29532-1.54219l1.21875-5.30157m-1.19064-6.75936a1.29845,1.29845,0,1,0,1.29843-1.29846A1.31678,1.31678,0,0,0,261.19537,99.49678Z" transform="translate(0 0.55124)"/><path d="M407.6091,106.25614a20.36867,20.36867,0,0,0,.56718-2.56875.51164.51164,0,0,0-.56718-.56718,31.07752,31.07752,0,0,0-3.35626.35157.61445.61445,0,0,0,.02812.75936l1.08282.07968a.51449.51449,0,0,1,.4875.53907,6.35328,6.35328,0,0,1-.24375,1.38282l-1.27032,5.56875a17.08325,17.08325,0,0,0-.46406,2.48906c0,.51563.3.89532,1.111.89532,1.29843,0,2.51718-.91875,3.75936-2.5172a.60075.60075,0,0,0-.62343-.45936,4.04286,4.04286,0,0,1-1.75782,1.35c-.1875,0-.26718-.13125-.26718-.45937a11.11143,11.11143,0,0,1,.29532-1.54219l1.21875-5.30157m-1.19064-6.75936a1.29845,1.29845,0,1,0,1.29843-1.29846A1.31678,1.31678,0,0,0,406.41846,99.49678Z" transform="translate(0 0.55124)"/><path d="M552.80779,106.25614a20.36867,20.36867,0,0,0,.56718-2.56875.51164.51164,0,0,0-.56718-.56718,31.07768,31.07768,0,0,0-3.35627.35157.61444.61444,0,0,0,.02813.75936l1.08282.07968a.51449.51449,0,0,1,.4875.53907,6.35354,6.35354,0,0,1-.24376,1.38282l-1.27031,5.56875a17.08212,17.08212,0,0,0-.46407,2.48906c0,.51563.3.89532,1.111.89532,1.29843,0,2.51718-.91875,3.75937-2.5172a.60076.60076,0,0,0-.62343-.45936,4.04281,4.04281,0,0,1-1.75783,1.35c-.1875,0-.26717-.13125-.26717-.45937a11.10987,11.10987,0,0,1,.29532-1.54219l1.21875-5.30157m-1.19065-6.75936a1.29845,1.29845,0,1,0,1.29843-1.29846A1.31678,1.31678,0,0,0,551.61714,99.49678Z" transform="translate(0 0.55124)"/><path class="cls-15" d="M654.49854,107.66454v-.81093l5.02968-7.19532a22.50908,22.50908,0,0,1,2.35314-2.8125l-.13593-.05625a4.07644,4.07644,0,0,1-1.29846.24375,4.5483,4.5483,0,0,1-1.1625-.1875,20.158,20.158,0,0,1-1.35,2.76093l-3.464,5.84064a78.28945,78.28945,0,0,0-1.08282-8.41407.35773.35773,0,0,0-.40314-.35157c-.7875,0-1.11093.59532-3.14062,1.00314l-.05156.81093a3.91143,3.91143,0,0,1,.97032-.13593c.40782,0,.7875.07968.975.975a66.34939,66.34939,0,0,1,1.1625,8.57343l-1.05468,1.70625a8.04967,8.04967,0,0,0-1.27032,3.67968c0,.89064.3,1.70157,1.11093,1.70157,2.67657,0,2.78439-4.65,2.8125-7.33125m-2.59686,6.27657c-.21564,0-.32346-.24375-.32346-.675a8.4674,8.4674,0,0,1,1.35-3.84375v.24375C652.92822,111.31611,652.74072,113.94111,651.90168,113.94111Z" transform="translate(0 0.55124)"/><path class="cls-15" d="M669.27822,89.43486a1.29754,1.29754,0,0,0-1.34061-1.1625c-.72657,0-1.08282.71251-1.27968,1.30311l-2.05314,5.9719a2.96439,2.96439,0,0,0-.19686.689c0,.17813.12186.4172.31875.4172.29529,0,.62811-.4172.76875-.63282l3.22968-5.10468a2.87866,2.87866,0,0,0,.55311-1.48125" transform="translate(0 0.55124)"/><path class="cls-15" d="M80.80549,146.94533v-.81093l5.02968-7.19532a22.50908,22.50908,0,0,1,2.35314-2.8125l-.13593-.05625a4.07644,4.07644,0,0,1-1.29846.24375,4.5483,4.5483,0,0,1-1.1625-.1875,20.158,20.158,0,0,1-1.35,2.76093l-3.464,5.84064a78.28945,78.28945,0,0,0-1.08282-8.41407.35773.35773,0,0,0-.40314-.35157c-.7875,0-1.11093.59532-3.14062,1.00314l-.05156.81093a3.91132,3.91132,0,0,1,.97032-.13593c.40782,0,.7875.07968.975.975a66.34939,66.34939,0,0,1,1.1625,8.57343l-1.05468,1.70625a8.04967,8.04967,0,0,0-1.27032,3.67968c0,.89064.3,1.70157,1.11093,1.70157,2.67657,0,2.78439-4.65,2.8125-7.33125m-2.59686,6.27657c-.21564,0-.32346-.24375-.32346-.675a8.4674,8.4674,0,0,1,1.35-3.84375v.24375C79.23517,150.5969,79.04767,153.2219,78.20863,153.2219Z" transform="translate(0 0.55124)"/><path class="cls-15" d="M225.94492,146.94533v-.81093l5.02968-7.19532a22.50908,22.50908,0,0,1,2.35314-2.8125l-.13593-.05625a4.07644,4.07644,0,0,1-1.29846.24375,4.5483,4.5483,0,0,1-1.1625-.1875,20.158,20.158,0,0,1-1.35,2.76093l-3.464,5.84064a78.28945,78.28945,0,0,0-1.08282-8.41407.35773.35773,0,0,0-.40314-.35157c-.7875,0-1.11093.59532-3.14062,1.00314l-.05156.81093a3.91137,3.91137,0,0,1,.97032-.13593c.40782,0,.7875.07968.975.975a66.34939,66.34939,0,0,1,1.1625,8.57343l-1.05468,1.70625a8.04967,8.04967,0,0,0-1.27032,3.67968c0,.89064.3,1.70157,1.11093,1.70157,2.67657,0,2.78439-4.65,2.8125-7.33125m-2.59686,6.27657c-.21564,0-.32346-.24375-.32346-.675a8.4674,8.4674,0,0,1,1.35-3.84375v.24375C224.3746,150.5969,224.1871,153.2219,223.34806,153.2219Z" transform="translate(0 0.55124)"/><path class="cls-15" d="M371.08435,146.94533v-.81093l5.02968-7.19532a22.50908,22.50908,0,0,1,2.35314-2.8125l-.13593-.05625a4.07644,4.07644,0,0,1-1.29846.24375,4.5483,4.5483,0,0,1-1.1625-.1875,20.158,20.158,0,0,1-1.35,2.76093l-3.464,5.84064a78.28945,78.28945,0,0,0-1.08282-8.41407.35773.35773,0,0,0-.40314-.35157c-.7875,0-1.11093.59532-3.14061,1.00314l-.05157.81093a3.91143,3.91143,0,0,1,.97032-.13593c.40782,0,.7875.07968.975.975a66.34939,66.34939,0,0,1,1.1625,8.57343l-1.05468,1.70625a8.04967,8.04967,0,0,0-1.27032,3.67968c0,.89064.3,1.70157,1.11093,1.70157,2.67657,0,2.78439-4.65,2.8125-7.33125m-2.59686,6.27657c-.21564,0-.32346-.24375-.32346-.675a8.4674,8.4674,0,0,1,1.35-3.84375v.24375C369.514,150.5969,369.32653,153.2219,368.48749,153.2219Z" transform="translate(0 0.55124)"/><path class="cls-15" d="M516.22379,146.94533v-.81093l5.02968-7.19532a22.50822,22.50822,0,0,1,2.35314-2.8125l-.13593-.05625a4.07649,4.07649,0,0,1-1.29847.24375,4.5483,4.5483,0,0,1-1.16249-.1875,20.16032,20.16032,0,0,1-1.35,2.76093l-3.46405,5.84064a78.28692,78.28692,0,0,0-1.08281-8.41407.35774.35774,0,0,0-.40315-.35157c-.78749,0-1.11092.59532-3.14061,1.00314l-.05156.81093a3.91132,3.91132,0,0,1,.97032-.13593c.40781,0,.7875.07968.975.975a66.35287,66.35287,0,0,1,1.1625,8.57343l-1.05469,1.70625a8.04979,8.04979,0,0,0-1.27031,3.67968c0,.89064.3,1.70157,1.11093,1.70157,2.67657,0,2.78438-4.65,2.8125-7.33125m-2.59687,6.27657c-.21563,0-.32346-.24375-.32346-.675a8.46752,8.46752,0,0,1,1.35-3.84375v.24375C514.65346,150.5969,514.466,153.2219,513.62692,153.2219Z" transform="translate(0 0.55124)"/><path class="cls-16" d="M330.9373-34.41125" transform="translate(0 0.55124)"/><polygon class="cls-17" points="359.895 100.801 359.895 100.801 359.895 100.801 359.895 100.801 359.895 100.801 359.895 100.801 359.895 100.801 359.895 100.801 359.895 100.801 359.895 100.801 359.895 100.801 359.895 100.801 359.895 100.801 359.895 100.801 359.895 100.801 359.895 100.801 359.895 100.801 359.895 100.801 359.895 100.801 359.895 100.801 359.895 100.801 359.895 100.801 359.895 100.801 359.895 100.801 359.895 100.801 359.895 100.801 359.895 100.801 359.895 100.801 359.895 100.801 359.895 100.801 359.895 100.801 359.895 100.801 359.895 100.801 359.895 100.801 359.895 100.801 359.895 100.801 359.895 100.801 359.895 100.801 359.895 100.801 359.895 100.801 359.895 100.801 359.895 100.801 359.895 100.801 359.895 100.801 359.895 100.801 359.895 100.801 359.895 100.801 359.895 100.801 359.895 100.801 359.895 100.801 359.895 100.801 359.895 100.801 359.895 100.801 359.895 100.801 359.895 100.801 359.895 100.801 359.895 100.801 359.895 100.801 359.895 100.801 359.895 100.801 359.895 100.801 359.895 100.801 359.895 100.801 359.895 100.801 359.895 100.801 359.895 100.801 359.895 100.801 359.895 100.801 359.895 100.801 359.895 100.801 359.895 100.801 359.895 100.801 359.895 100.801 359.895 100.801 359.895 100.801 359.895 100.801 359.895 100.801 359.895 100.801 359.895 100.801 359.895 100.801 359.895 100.801 359.895 100.801 359.895 100.801 359.895 100.801 359.895 100.801 359.895 100.801 359.895 100.801 359.895 100.801 359.895 100.801 359.895 100.801 359.895 100.801 359.895 100.801 359.895 100.801 359.895 100.801 359.895 100.801"/></svg>