<?xml version="1.0" encoding="utf-8"?>
<!-- Generator: Adobe Illustrator 22.0.1, SVG Export Plug-In . SVG Version: 6.00 Build 0)  -->
<svg version="1.1" id="Layer_1" xmlns="http://www.w3.org/2000/svg" xmlns:xlink="http://www.w3.org/1999/xlink" x="0px" y="0px"
	 viewBox="0 0 333.5 215.2" style="enable-background:new 0 0 333.5 215.2;" xml:space="preserve">
<style type="text/css">
	.st0{opacity:0.2;fill:#1B1F8A;enable-background:new    ;}
	.st1{opacity:0.15;fill:#1B1F8A;enable-background:new    ;}
	.st2{opacity:0.1;}
	.st3{fill:url(#SVGID_1_);}
	.st4{fill:none;stroke:#000000;stroke-width:0.5284;stroke-dasharray:1.5852;}
	.st5{opacity:0.82;}
	.st6{fill:none;stroke:#000000;stroke-width:1.0637;}
	.st7{fill:none;stroke:#000000;stroke-width:0.2659;}
	.st8{fill:none;stroke:#000000;stroke-width:0.2659;stroke-linecap:round;}
</style>
<g>
	<g>
		<g>
			<path class="st0" d="M104.5,45.1c0.2,0-5.6,6.6-12.9,17.3C84.3,73.2,78,86.8,78,86.8C81.5,68.4,88.8,52.3,104.5,45.1z"/>
			<path class="st1" d="M122.2,61c5.9-13.8,18.7-22.9,33.1-30.3c14.1-7.3,31.8-12.3,50.4-12.1c27.9,0.3,52,12.7,65.8,29.4
				c4,4.9,10.9,14.7,11.3,24.2C283.3,81.7,280,88,279,91c-5-10.5-12.6-22.7-23.6-29c-11.4-6.6-31.2-13-45-5.6
				c7.5,3.2,15.2,7.5,21.7,13.3c6,5.3,12.4,12.3,14,21c1.5,7.8-2.4,15.7-7,20.8c-0.1,0.5-0.7,0.5-0.2,0c2-2.2,4.5-7.5,3.7-11.7
				c-1.7-9.6-12.6-16.5-19.8-21c-16.3-10.2-38.6-17.1-62.3-19.1C147.3,58.5,133.1,59.4,122.2,61z"/>
			<path class="st1" d="M223.7,170.4c-18.8,7.3-38.5,13.8-53.9,24.5c18.8,12.6,55.7,18.6,81.6,8.4c0.4-0.1,0.5,0.2,0.2,0.2
				c-20.9,9.2-53.2,10.8-77.7,4.7c-24-6-42.6-18.5-57.6-32.7c-24.5-4-46.4-12.3-62.8-25.2c-7.6-6-14.9-14.6-18.9-25
				c-3.9-10.2-3.8-26.5,2.3-35.9c0-0.6,0.3-0.4,0.2,0c-9.4,20.5,2.7,39.1,14.5,49c13,10.9,28.8,19,46.4,24.5
				c31.2,9.8,72,11.6,109.6,7.5C213,169.8,218.5,168.5,223.7,170.4z"/>
		</g>
	</g>
	<g>
		<g>
			<g class="st2">
				
					<linearGradient id="SVGID_1_" gradientUnits="userSpaceOnUse" x1="226.9582" y1="190.8847" x2="26.2761" y2="118.1988" gradientTransform="matrix(1 0 0 -1 0 290)">
					<stop  offset="0" style="stop-color:#FFFFFF"/>
					<stop  offset="1" style="stop-color:#000000"/>
				</linearGradient>
				<path class="st3" d="M83.7,183.7c-20.4-0.7-37.7-4.5-51.5-11.9c-13-7.8-25.8-17.4-26.1-37.1c-0.3-19.8,12-30.5,22.4-40.8
					C40,84.5,53.6,77,69.5,71.8c14.2-13.1,32.1-21.9,57.8-23.1c18.9-0.9,35.1,3.1,48.9,8.4c13.7,5.2,25.9,12.7,35.7,21.4
					c9.5,8.5,18.4,20,23.8,33.3c5.8,14.4,6.5,32.8,0.9,48.2c-4.8,13.3-14,24.3-24.9,32.4c-10.9,8.1-24.9,14.3-40.8,16.3
					C133.3,213.6,106.1,199.1,83.7,183.7z M158,130.5c5.7-5.2,11.5-11,14.7-17.7c2.2-4.6,3-11.3,0.9-15.8
					c-3.5-7.8-13.9-12.9-22.8-15.6c-20.5-6.1-48.6-4.5-67.4,1.6c-15.8,17-7.5,52,2.1,68.8c2.1,3.7,3.9,7.7,7,9.8
					C118.1,157.6,141.8,145.3,158,130.5z"/>
			</g>
			<g>
				<g>
					<path class="st4" d="M123.1,176.1c-0.2-2.2-0.1-4.5-0.4-6.8v-6.8c-0.5-5.8,0.9-14.5-4.1-16.8"/>
					<path class="st4" d="M106.8,173c3.9,0.7,10-3.2,13.3-5.4l4.9-3.5c6.5-5.8,16.1-8,13.8,3.6c-0.9,4.7-7.3,18.9-12.5,15.6"/>
				</g>
				<path class="st4" d="M150.8,9.3c-6,2,0,23.8,0.3,25.9l-0.3,0.1c-5.6,3.1-4.2,15.2-0.6,22.6c0.4,0.8,1,1.4,1.5,1.3"/>
				<path class="st4" d="M119.1,67.8c-5,6.2-20.9-2.6-26.8-6.5l0,0l0,0c-3.9,6-11.1,14.6-17.8,11.5c-4.9-2.3-9.3-10.7-4.7-15"/>
				<path class="st4" d="M115.3,113.2c0.2,2-0.7,4.1-2.4,6c-8.1,9.1-26.3,4.1-37.7-3.8l0,0l0,0c-10.6,5.4-29.4,14.5-39.2,6.7
					c-1.6-1.3-2.6-3-2.8-4.8"/>
				<path class="st4" d="M208.3,133.6c-0.6,0.5-1.1,1.6-1.3,3c-1.6,10.5,3.9,25.9,5.7,34.2l0.6,2.9c0,0-1.1,1.7-1.9,3.4
					c-3.2,6.9,0,27.5,5.4,33c0.6,0.6,1.1,0.8,1.4,0.8"/>
				<path class="st4" d="M229,5.5c1.1,0.2,1.1,2.8,1,4.4c-0.5,6.9-5.4,19-8.4,24.9l-2.1,5.1l-0.3,3.8c-0.2,7.2-3.3,24.6-8.8,27.7"/>
				<path class="st4" d="M238.1,91.3c4.1,5.3,15.8-0.5,21.4-5c3-2.4,6.8-6.5,9-9l2.2-2.8l3.5,0.6c6.2,0.6,14.5,0.5,21.3-2.9
					c4.8-2.4,11.5-8.3,9.5-13.4"/>
				<path class="st4" d="M241.9,104.9c-1,1.7-1,3.7-0.4,5.7c3.4,11.5,21.1,16.8,33.3,19h0.3l1.1,3.1c2.7,7.6,6.8,15.6,13.5,20.3
					c5,3.5,16,7.1,19.2,1.2"/>
			</g>
			<g class="st5">
				<g>
					<path class="st0" d="M116.2,175c-16.8-3.3-32.7-7.3-45.9-14.4c-12.9-6.9-24.8-16.2-31.8-28.4c-5.5-9.5-7.7-23.8-4.4-34.7
						c3.1-10.3,9.7-18.9,16.4-25.6c14.3-14.2,33.9-22.6,55.3-29c22.2-25.8,48.3-40.6,84-42.3c23.9-1.1,43.2,4.7,60.3,12.3
						s31.1,17.8,42.8,30s21.7,28,25.8,47.2c4.9,22.9,0.1,44.3-7.8,60.8c-14.6,30.2-47.2,54-86.6,59.2c-35.5,4.7-67-4.7-87.7-19.3
						C129.5,185.9,123,180.6,116.2,175z M188.8,140.3c17.5-5,34.2-12.7,44.9-23.5c3.5-3.6,7.7-8.5,8.4-14.1
						c1.2-9.8-10.3-18-16.2-22.2c-7.1-5-15-8.6-23-11.5c-21.4-7.8-53.5-13.1-80.6-7.6c-12,22.7-9.7,67.4,5.2,85.1
						C149.8,147.6,170.7,145.5,188.8,140.3z"/>
				</g>
			</g>
			<g>
				<g>
					<path class="st6" d="M116.2,175c-16.8-3.3-32.7-7.3-45.9-14.4c-12.9-6.9-24.8-16.2-31.8-28.4c-5.5-9.5-7.7-23.8-4.4-34.7
						c3.1-10.3,9.7-18.9,16.4-25.6c14.3-14.2,33.9-22.6,55.3-29c22.2-25.8,48.3-40.6,84-42.3c23.9-1.1,43.2,4.7,60.3,12.3
						s31.1,17.8,42.8,30s21.7,28,25.8,47.2c4.9,22.9,0.1,44.3-7.8,60.8c-14.6,30.2-47.2,54-86.6,59.2c-35.5,4.7-67-4.7-87.7-19.3
						C129.5,185.9,123,180.6,116.2,175z M188.8,140.3c17.5-5,34.2-12.7,44.9-23.5c3.5-3.6,7.7-8.5,8.4-14.1
						c1.2-9.8-10.3-18-16.2-22.2c-7.1-5-15-8.6-23-11.5c-21.4-7.8-53.5-13.1-80.6-7.6c-12,22.7-9.7,67.4,5.2,85.1
						C149.8,147.6,170.7,145.5,188.8,140.3z"/>
				</g>
			</g>
			<g>
				<g>
					<g>
						<path class="st7" d="M116.3,79.4c0.2-1.2,0.4-2.7,0.7-3.6C129,25,165.7-0.1,216.3,5.4C271.2,11.3,327.8,59,320,121.1
							c-5.3,42.7-42.4,78.1-86.7,87.3"/>
						<path class="st7" d="M124.8,143.5c-22.3-39.2-32.4-105.9,16.8-130.2"/>
						<path class="st7" d="M116.2,175c46.8,34.6,116.3,28.9,155.7-6.3c16.4-14.7,28.3-34.2,29.6-55.7c4-68.3-83.4-109.9-149.9-77.9"
							/>
						<path class="st7" d="M280.4,113.1C287.8,68,231.8,42,193.6,38c-16.2-1.7-42.4-0.2-56.5,4.1"/>
						<path class="st7" d="M103.9,47.1"/>
						<path class="st7" d="M120.5,143.8"/>
						<path class="st7" d="M108.3,143.7c-16.7-4.3-33.7-11.9-45.9-24C47,104.3,45.1,83.8,60.7,66.9c7.9-8.6,17-13.4,29.3-18.6"/>
						<path class="st7" d="M101.8,48.2c-27,11.7-47.9,47.9-28.5,73.9c3.8,5.1,7.4,9.2,10.8,12.3"/>
						<path class="st7" d="M67.3,158.7c29.4,16.2,64.5,17.9,96.8,12.1c37.1-6.6,90.1-30.9,94.4-65.9c4-33-54.4-43.4-82.1-45.8
							c-17.1-1.5-31.6-1.6-50.1,1.3"/>
						<path class="st7" d="M91.6,62.5c-15.4,23.6-9.6,55.2,9.3,76.4c1.4,1.6,2.7,3,3.7,4.2"/>
						<path class="st7" d="M234.4,87.4c4,3.9,8.9,9.3,7.9,15.7c-2,12.8-21,24.6-32.5,30.4c-25.3,12.6-58.8,19.8-87.9,19.6
							c-27.5-0.2-57.5-5.6-76.7-22.5C35,121.7,29.9,109.5,34.9,95"/>
						<path class="st6" d="M131,147.1c10.3,0.2,20.6-0.1,30.8-1.4"/>
					</g>
				</g>
				<g>
					<g>
						<g>
							<path class="st7" d="M183.5,62.9c1.5-20.4,1.4-41,3.4-61.3"/>
							<path class="st7" d="M226.4,81.2l-0.1-0.1c-2-12.2,14.1-22.2,22.7-27.9c1.3-6,8.5-21.7,15.2-27c2.1-1.7,4.8-3.1,6.5-1.7"/>
							<path class="st7" d="M120.8,27.7c8-3.8,15.2,14.2,10.8,19.3"/>
							<path class="st7" d="M133.8,60c3.2-4.1,1.3-10.4,1.2-15.3"/>
							<path class="st7" d="M89.2,48.6c3.4-1.4,7.5,0.9,10.6,2.2"/>
							<path class="st7" d="M40.7,83.3C51,73,66.3,82.2,77,87.1c7.7-7.4,29.6-14.8,36.5-2.5c0.6,1.1,1.3,3.1,1,4.9"/>
							<path class="st7" d="M241.5,98.1c-0.7-2.3,1.5-5.6,3.2-6.8c10.3-8,29.6,2.9,36.3,9.8c8.1-3,26-7.6,34.9-2.8
								c2.6,1.4,4.8,3.9,4.4,6.6"/>
							<path class="st7" d="M232.2,118c10.4-4.9,19.2,12.9,20.2,24.3c0.4,4.7,0.1,9.3-0.5,13.8c6.2,8.3,22.4,22.7,20.8,34.5
								c-0.1,1.1-1,2.7-2.2,3.2"/>
							<path class="st7" d="M57.6,152.9c-12.9-10.4,13.2-29,25.3-19.3"/>
							<path class="st7" d="M166.3,205.3c-0.6-8.9-0.3-16.8,0.1-25.7c-0.4-0.3-0.9-0.1-1.4-0.2c-3.1-10.1-0.6-24.1,0.9-34.5"/>
						</g>
					</g>
					<path class="st8" d="M210.5,71.5"/>
					<path class="st7" d="M209.5,71.6c0.2,0.2,0.6,0.2,1,0"/>
					<path class="st8" d="M103.1,164.1"/>
					<path class="st8" d="M213.3,173.8"/>
					<g>
						<path class="st7" d="M150.8,9.4c0.3-0.1,0.6,0,0.9,0.4c3.2,3.8,5.8,24.8-0.7,25.4l0,0l0.3,2c0.7,5.8,2.9,16.2,0.7,21.6
							c-0.1,0.3-0.3,0.5-0.5,0.5"/>
						<path class="st7" d="M209.5,71.6c-0.7-0.6-0.7-2.7-0.7-3.5c0.4-6.5,5.4-18.4,8.4-24.4l1.9-3.7l0.5-5.2
							c0.9-7.5,2.4-24.8,8.6-28.9c0.4-0.2,0.7-0.3,0.9-0.3"/>
						<path class="st7" d="M69.9,57.8c0.8-0.7,1.8-1.3,3.1-1.7c6.6-2,12.9,1.7,19.4,5.2l0,0l0,0c4.1-7.1,8.5-10.3,13.2-10.7
							c6.2-0.5,16.1,9,14.5,15.2c-0.2,0.7-0.5,1.4-1,2"/>
						<path class="st7" d="M305.1,58.8c-3.1-8.1-17.1,0.3-23.2,5.2c-3.4,2.8-6.6,6.1-8.5,8l-2.6,2.5l-2.8-0.2
							c-10.4-0.7-21.6-0.2-28.5,7.5c-2.4,2.6-3.6,6.6-1.3,9.6"/>
						<path class="st7" d="M33.2,117.3c-0.2-1.4,0.1-2.9,0.8-4.2c2.9-5.3,9.2-6.5,15.2-7c9-0.7,19.2,3.8,25.9,9.3l0,0l0,0
							c9.3-4.2,27.9-13.9,37.1-6.7c1.8,1.4,2.8,3,2.9,4.6"/>
						<path class="st7" d="M308.9,154.4c0.3-0.5,0.5-1.1,0.6-1.7c1.3-5.7-6.8-13.3-17-17.2s-17.5-5.7-17.5-5.7s-1.6-4.7-2.2-6.2
							c-0.6-1.6-3.7-9.3-8.6-14.3c-5.5-5.6-13.5-10-19.7-6.7c-1.2,0.7-2.1,1.5-2.6,2.4"/>
						<g>
							<path class="st7" d="M126.4,183.2c-0.6-0.4-1.2-1.1-1.8-2c-1-1.6-1.3-3.3-1.5-5.1"/>
							<path class="st7" d="M118.6,145.7c-7.4-3.4-14.7,11.4-15.5,18.4l0,0c-0.2,2.1-0.1,5.8,1.4,7.6c0.6,0.7,1.4,1.2,2.3,1.3"/>
						</g>
						<g>
							<path class="st7" d="M213.3,173.8c2.2,7.7,7.3,26,6.5,33.9c-0.1,1.4-0.5,3.1-1.5,3.1"/>
							<path class="st7" d="M208.3,133.6c0.6-0.5,1.5-0.2,2.4,1c6.3,8,8.5,30,2.5,39.3l0,0l0,0"/>
						</g>
					</g>
				</g>
			</g>
			<path class="st6" d="M122.2,61.5c0,0,9.7-20.9,26.1-25.6s54.6-7.1,95.8,14.4c40.2,20.9,52.1,68.8,13,101
				C213.9,187,149.1,181,116.7,175"/>
			<path class="st6" d="M105.8,43c0,0-6.3,7.8-13.4,18.3C85.2,71.9,77.4,85.2,75,96c-4.2,19.2,7,36.8,7,36.8s8.4,6.3,20.2,9.6
				s25.2,4.3,25.2,4.3"/>
		</g>
	</g>
</g>
</svg>
